SplineFontDB: 3.0
FontName: MarckScript-Regular
FullName: Marck Script
FamilyName: Marck Script
Weight: Regular
Copyright: Copyright (c) 2011, Denis Masharov <denis.masharov@gmail.com> & Marck Fogel with Reserved Font Names "Marck Script".
Version: 1.001
ItalicAngle: 0
UnderlinePosition: -76
UnderlineWidth: 75
Ascent: 800
Descent: 200
LayerCount: 2
Layer: 0 1 "Back"  1
Layer: 1 1 "Fore"  0
XUID: [1021 288 713564382 4473181]
FSType: 0
OS2Version: 2
OS2_WeightWidthSlopeOnly: 0
OS2_UseTypoMetrics: 1
CreationTime: 1314602700
ModificationTime: 1314621199
PfmFamily: 17
TTFWeight: 400
TTFWidth: 5
LineGap: 0
VLineGap: 0
Panose: 2 0 0 0 0 0 0 0 0 0
OS2TypoAscent: 864
OS2TypoAOffset: 0
OS2TypoDescent: -385
OS2TypoDOffset: 0
OS2TypoLinegap: 0
OS2WinAscent: 864
OS2WinAOffset: 0
OS2WinDescent: 385
OS2WinDOffset: 0
HheadAscent: 864
HheadAOffset: 0
HheadDescent: -385
HheadDOffset: 0
OS2SubXSize: 700
OS2SubYSize: 650
OS2SubXOff: 0
OS2SubYOff: 140
OS2SupXSize: 700
OS2SupYSize: 650
OS2SupXOff: 0
OS2SupYOff: 477
OS2StrikeYSize: 50
OS2StrikeYPos: 250
OS2Vendor: 'pyrs'
OS2CodePages: 00000017.00000000
OS2UnicodeRanges: 8000022f.0000000a.00000000.00000000
Lookup: 258 0 0 "'kern' Horizontal Kerning in Latin lookup 0"  {"'kern' Horizontal Kerning in Latin lookup 0 subtable"  } ['kern' ('latn' <'dflt' > ) ]
MarkAttachClasses: 1
DEI: 91125
TtTable: prep
PUSHW_1
 511
SCANCTRL
PUSHB_1
 4
SCANTYPE
EndTTInstrs
LangName: 1033 "" "" "" "" "" "Version 1.001" "" "" "Denis Masharov" "Denis Masharov & Marck Fogel" "Copyright (c) 2011, Denis Masharov <denis.masharov@gmail.com> &  Marck Fogel" "" "" "This Font Software is licensed under the SIL Open Font License, Version 1.1. This license is available with a FAQ at: http://scripts.sil.org/OFL" "http://scripts.sil.org/OFL" "" "" "" "Marck Script" 
GaspTable: 1 65535 15
Encoding: UnicodeBmp
UnicodeInterp: none
NameList: Adobe Glyph List
DisplaySize: -36
AntiAlias: 1
FitToEm: 1
WinInfo: 44 22 10
BeginPrivate: 0
EndPrivate

StartChar: d
Encoding: 100 100 4
Width: 599
Flags: W
LayerCount: 2
Fore
SplineSet
342 193 m 1,0,1
 224.285714286 -13 224.285714286 -13 111 -13 c 0,2,3
 72 -13 72 -13 49 11 c 128,-1,4
 26 35 26 35 26 72.5 c 128,-1,5
 26 110 26 110 40.5 145 c 128,-1,6
 55 180 55 180 79.5 212.5 c 128,-1,7
 104 245 104 245 136.5 274 c 128,-1,8
 169 303 169 303 204.5 324 c 0,9,10
 282.261904762 370 282.261904762 370 348 370 c 1,11,-1
 351 335 l 1,12,13
 263.141566265 322.448795181 263.141566265 322.448795181 191.5 261.5 c 0,14,15
 116 197.268656716 116 197.268656716 116 131 c 0,16,17
 116 103 116 103 131 86.5 c 128,-1,18
 146 70 146 70 172.5 70 c 128,-1,19
 199 70 199 70 230 98 c 128,-1,20
 261 126 261 126 284.5 157 c 128,-1,21
 308 188 308 188 318 203.5 c 128,-1,22
 328 219 328 219 342 244 c 128,-1,23
 356 269 356 269 375.5 307 c 128,-1,24
 395 345 395 345 424.5 403 c 128,-1,25
 454 461 454 461 495 543.5 c 128,-1,26
 536 626 536 626 594 739 c 1,27,-1
 645 721 l 2,28,29
 645 720 645 720 626.5 685.5 c 128,-1,30
 608 651 608 651 580 596 c 128,-1,31
 552 541 552 541 519.5 472.5 c 128,-1,32
 487 404 487 404 459 336 c 0,33,34
 393 175.714285714 393 175.714285714 393 109 c 0,35,36
 393 93 393 93 401 83.5 c 128,-1,37
 409 74 409 74 422.5 74 c 128,-1,38
 436 74 436 74 444 78 c 128,-1,39
 452 82 452 82 467 97 c 1,40,-1
 485 80 l 1,41,42
 472.781021898 51.4890510949 472.781021898 51.4890510949 440.5 27 c 0,43,44
 407.545454545 2 407.545454545 2 378 2 c 0,45,46
 320 2 320 2 320 70 c 0,47,48
 320 108.142857143 320 108.142857143 342 193 c 1,0,1
EndSplineSet
EndChar

StartChar: e
Encoding: 101 101 5
Width: 421
Flags: W
LayerCount: 2
Fore
SplineSet
333 100 m 1,0,1
 302.256756757 56.9594594595 302.256756757 56.9594594595 248.5 28.5 c 128,-1,2
 194.666666667 -5.3290705182e-15 194.666666667 -5.3290705182e-15 143.333333333 -2.6645352591e-15 c 128,-1,3
 92 0 92 0 61 29.5 c 128,-1,4
 30 59 30 59 30 107 c 128,-1,5
 30 155 30 155 57.5 203 c 128,-1,6
 85 251 85 251 127.5 290 c 128,-1,7
 170 329 170 329 222.5 354 c 128,-1,8
 275 379 275 379 325 379 c 0,9,10
 366.5 379 366.5 379 384 354 c 0,11,12
 391 344 391 344 391 327 c 0,13,14
 391 273 391 273 322.5 218 c 128,-1,15
 254 163 254 163 126 118 c 1,16,17
 135 94 135 94 154.5 81.5 c 128,-1,18
 174 69 174 69 188.5 69 c 128,-1,19
 203 69 203 69 213.5 70.5 c 128,-1,20
 224 72 224 72 237.5 77.5 c 0,21,22
 267.714285714 89.8095238095 267.714285714 89.8095238095 310 118 c 1,23,-1
 333 100 l 1,0,1
121 148 m 1,24,25
 202.545454545 175.181818182 202.545454545 175.181818182 259 217 c 0,26,27
 318 260.703703704 318 260.703703704 318 295 c 0,28,29
 318 309 318 309 308.5 318.5 c 128,-1,30
 299 328 299 328 280.5 328 c 128,-1,31
 262 328 262 328 235 312 c 128,-1,32
 208 296 208 296 184 270.5 c 0,33,34
 129.009009009 212.072072072 129.009009009 212.072072072 121 148 c 1,24,25
EndSplineSet
EndChar

StartChar: f
Encoding: 102 102 6
Width: 381
Flags: W
LayerCount: 2
Fore
SplineSet
147 220 m 1,0,1
 111 211 111 211 87.5 211 c 128,-1,2
 64 211 64 211 52.5 215.5 c 128,-1,3
 41 220 41 220 35 226.5 c 0,4,5
 26 236.25 26 236.25 26 256.625 c 128,-1,6
 26 277 26 277 47.5 300.5 c 128,-1,7
 69 324 69 324 97.5 345 c 0,8,9
 140.346938776 376.571428571 140.346938776 376.571428571 195 406 c 1,10,11
 223 502 223 502 245.5 571.5 c 128,-1,12
 268 641 268 641 294 685.5 c 128,-1,13
 320 730 320 730 353.5 751.5 c 128,-1,14
 387 773 387 773 436 773 c 0,15,16
 478.48 773 478.48 773 499 744.5 c 0,17,18
 515 722.277777778 515 722.277777778 515 686 c 1,19,20
 511.306698951 619.520581114 511.306698951 619.520581114 430.5 536.5 c 0,21,22
 362.860791826 467.007662835 362.860791826 467.007662835 244 393 c 1,23,-1
 212 272 l 1,24,-1
 342 287 l 1,25,-1
 313 240 l 1,26,-1
 201 225 l 1,27,28
 186 165 186 165 167 97.5 c 128,-1,29
 148 30 148 30 131 -33 c 0,30,31
 90 -184.941176471 90 -184.941176471 90 -237 c 1,32,-1
 26 -270 l 1,33,34
 26 -178 26 -178 110 94 c 0,35,36
 131 162 131 162 147 220 c 1,0,1
444 645 m 1,37,38
 444 688 444 688 404 688 c 0,39,40
 367 688 367 688 345 666 c 128,-1,41
 323 644 323 644 309 610 c 128,-1,42
 295 576 295 576 284.5 534 c 128,-1,43
 274 492 274 492 261 452 c 1,44,45
 308.447761194 479.910447761 308.447761194 479.910447761 353.223880597 520.955223881 c 128,-1,46
 398 562 398 562 420 591 c 128,-1,47
 442 620 442 620 444 645 c 1,37,38
161 267 m 1,48,-1
 183 355 l 1,49,50
 144 338 144 338 123 321.5 c 128,-1,51
 102 305 102 305 102 293.5 c 0,52,53
 102 267 102 267 161 267 c 1,48,-1
EndSplineSet
EndChar

StartChar: g
Encoding: 103 103 7
Width: 489
Flags: W
LayerCount: 2
Fore
SplineSet
462 12 m 1,0,1
 453.142857143 6.68571428571 453.142857143 6.68571428571 423.571428571 -4.15714285714 c 128,-1,2
 394 -15 394 -15 371 -24 c 1,3,4
 322.447558637 -306.746570291 322.447558637 -306.746570291 205.5 -366 c 0,5,6
 168 -385 168 -385 125 -385 c 256,7,8
 82 -385 82 -385 57.5 -358 c 128,-1,9
 33 -331 33 -331 33 -288 c 256,10,11
 33 -202.789473684 33 -202.789473684 113 -127 c 0,12,13
 191.73540856 -52.4085603113 191.73540856 -52.4085603113 323 -10 c 1,14,15
 334.603603604 45.1171171171 334.603603604 45.1171171171 350.301801802 94.0585585586 c 128,-1,16
 366 143 366 143 377 179 c 1,17,18
 279.609565217 31.5982608696 279.609565217 31.5982608696 195.5 11 c 0,19,20
 171 5 171 5 142 5 c 128,-1,21
 113 5 113 5 90.5 28.5 c 128,-1,22
 68 52 68 52 68 98 c 128,-1,23
 68 144 68 144 101 196 c 128,-1,24
 134 248 134 248 186 289.5 c 128,-1,25
 238 331 238 331 300.5 357 c 128,-1,26
 363 383 363 383 423 383 c 1,27,-1
 431 348 l 1,28,29
 321.669071827 336.881600525 321.669071827 336.881600525 237 267.5 c 0,30,31
 201 238 201 238 181 204.5 c 128,-1,32
 161 171 161 171 161 144 c 128,-1,33
 161 117 161 117 177 100 c 128,-1,34
 193 83 193 83 214 83 c 128,-1,35
 235 83 235 83 264 105.5 c 128,-1,36
 293 128 293 128 323 159.5 c 0,37,38
 386.214285714 225.875 386.214285714 225.875 416 278 c 1,39,-1
 453 257 l 1,40,41
 394.948717949 100.987179487 394.948717949 100.987179487 377 9 c 1,42,-1
 461 36 l 1,43,-1
 462 12 l 1,0,1
317 -40 m 1,44,45
 230.074918567 -79.5114006515 230.074918567 -79.5114006515 172.5 -136 c 0,46,47
 116 -191.433962264 116 -191.433962264 116 -238 c 0,48,49
 116 -262 116 -262 130 -277 c 128,-1,50
 144 -292 144 -292 163.5 -292 c 128,-1,51
 183 -292 183 -292 203 -280 c 128,-1,52
 223 -268 223 -268 243.5 -239 c 0,53,54
 289.472915685 -173.965143665 289.472915685 -173.965143665 317 -40 c 1,44,45
EndSplineSet
EndChar

StartChar: k
Encoding: 107 107 8
Width: 493
Flags: W
LayerCount: 2
Fore
SplineSet
369 60 m 0,0,1
 385 60 385 60 434 102 c 1,2,-1
 459 80 l 1,3,4
 400.19047619 -15 400.19047619 -15 336 -15 c 0,5,6
 295.411764706 -15 295.411764706 -15 252 46.5 c 0,7,8
 212 103.166666667 212 103.166666667 212 141 c 0,9,10
 212 157 212 157 234.5 167.5 c 128,-1,11
 257 178 257 178 284 189 c 128,-1,12
 311 200 311 200 333.5 216 c 128,-1,13
 356 232 356 232 356 260 c 0,14,15
 356 274 356 274 345.5 285 c 128,-1,16
 335 296 335 296 317 296 c 1,17,18
 229.553993419 288.28417589 229.553993419 288.28417589 135.5 105.5 c 0,19,20
 109 54 109 54 87 0 c 1,21,-1
 26 21 l 1,22,23
 26 63.6304347826 26 63.6304347826 140 363.5 c 0,24,25
 257.03539823 671.353982301 257.03539823 671.353982301 308 738 c 1,26,-1
 357 720 l 1,27,28
 307 633 307 633 245.5 493.5 c 128,-1,29
 184 354 184 354 131 174 c 1,30,31
 241.769585253 341.442396313 241.769585253 341.442396313 328 363 c 0,32,33
 352 369 352 369 377.5 369 c 128,-1,34
 403 369 403 369 421.5 350 c 128,-1,35
 440 331 440 331 440 300.5 c 128,-1,36
 440 270 440 270 424 247 c 128,-1,37
 408 224 408 224 385 206.5 c 0,38,39
 355.121495327 183.76635514 355.121495327 183.76635514 288 155 c 1,40,41
 297 106 297 106 319.5 83 c 128,-1,42
 342 60 342 60 369 60 c 0,0,1
EndSplineSet
EndChar

StartChar: i
Encoding: 105 105 9
Width: 308
Flags: W
LayerCount: 2
Fore
SplineSet
234 424 m 0,0,1
 178 424 178 424 178 469 c 0,2,3
 178 493 178 493 191.5 510.5 c 128,-1,4
 205 528 205 528 226.5 528 c 128,-1,5
 248 528 248 528 263 515.5 c 128,-1,6
 278 503 278 503 278 482.5 c 128,-1,7
 278 462 278 462 266.5 443 c 128,-1,8
 255 424 255 424 234 424 c 0,0,1
221 129 m 1,9,10
 180.14893617 83.0425531915 180.14893617 83.0425531915 159 77 c 0,11,12
 152 75 152 75 142 75 c 128,-1,13
 132 75 132 75 122 84.5 c 128,-1,14
 112 94 112 94 112 111.5 c 128,-1,15
 112 129 112 129 121.5 161 c 128,-1,16
 131 193 131 193 144 228.5 c 0,17,18
 171.385786802 303.284263959 171.385786802 303.284263959 194 346 c 1,19,-1
 151 372 l 1,20,21
 140 350 140 350 123 317.5 c 128,-1,22
 106 285 106 285 90 246 c 0,23,24
 50 148.5 50 148.5 50 74.75 c 128,-1,25
 50 1 50 1 106 1 c 0,26,27
 136.8 1 136.8 1 177.5 34 c 0,28,29
 217.024439919 66.0468431772 217.024439919 66.0468431772 241 112 c 1,30,-1
 221 129 l 1,9,10
EndSplineSet
EndChar

StartChar: j
Encoding: 106 106 10
Width: 443
Flags: W
LayerCount: 2
Fore
SplineSet
336 141 m 1,0,-1
 251 118 l 1,1,2
 261.75862069 198.689655172 261.75862069 198.689655172 338 402 c 0,3,4
 356 450 356 450 368 477 c 1,5,-1
 318 493 l 1,6,7
 315 481 315 481 303.5 450.5 c 128,-1,8
 292 420 292 420 274 370.5 c 0,9,10
 225.939393939 238.333333333 225.939393939 238.333333333 189 97 c 1,11,12
 -100 -5.48226950355 -100 -5.48226950355 -100 -177 c 0,13,14
 -100 -224 -100 -224 -74.5 -251 c 128,-1,15
 -49 -278 -49 -278 -4 -278 c 0,16,17
 90 -278 90 -278 148.5 -183.5 c 128,-1,18
 207 -89 207 -89 242 82 c 1,19,20
 275.076923077 95.2307692308 275.076923077 95.2307692308 305.038461538 103.115384615 c 128,-1,21
 335 111 335 111 338 112 c 1,22,23
 338 127 338 127 336 141 c 1,0,-1
185 58 m 1,24,25
 160.739130435 -47.1304347826 160.739130435 -47.1304347826 119 -116 c 0,26,27
 76.5757575758 -186 76.5757575758 -186 32 -186 c 0,28,29
 10 -186 10 -186 -3 -173 c 128,-1,30
 -16 -160 -16 -160 -16 -131 c 128,-1,31
 -16 -102 -16 -102 2.5 -73 c 128,-1,32
 21 -44 21 -44 50 -20.5 c 0,33,34
 89.8254931715 11.7723823976 89.8254931715 11.7723823976 185 58 c 1,24,25
420.5 562 m 128,-1,36
 413 556 413 556 394 556 c 128,-1,37
 375 556 375 556 358.5 568.5 c 128,-1,38
 342 581 342 581 342 604.5 c 128,-1,39
 342 628 342 628 357.5 647 c 128,-1,40
 373 666 373 666 394 666 c 128,-1,41
 415 666 415 666 429 652 c 128,-1,42
 443 638 443 638 443 622 c 128,-1,43
 443 606 443 606 440.5 595.5 c 128,-1,44
 438 585 438 585 433 576.5 c 128,-1,35
 428 568 428 568 420.5 562 c 128,-1,36
EndSplineSet
EndChar

StartChar: l
Encoding: 108 108 11
Width: 311
Flags: W
LayerCount: 2
Fore
SplineSet
207 79 m 1,0,1
 176 31 176 31 151 5 c 128,-1,2
 126 -21 126 -21 95 -21 c 128,-1,3
 64 -21 64 -21 45 3 c 128,-1,4
 26 27 26 27 26 56.5 c 128,-1,5
 26 86 26 86 38 132 c 128,-1,6
 50 178 50 178 70.5 237 c 128,-1,7
 91 296 91 296 118.5 365.5 c 128,-1,8
 146 435 146 435 177.5 506 c 0,9,10
 248.357303371 665.71011236 248.357303371 665.71011236 307 772 c 1,11,-1
 351 748 l 1,12,13
 160.275167785 381.22147651 160.275167785 381.22147651 107 177 c 0,14,15
 95 131 95 131 95 101 c 0,16,17
 95 54 95 54 130 54 c 0,18,19
 158 54 158 54 186 96 c 1,20,-1
 207 79 l 1,0,1
EndSplineSet
EndChar

StartChar: m
Encoding: 109 109 12
Width: 762
Flags: W
LayerCount: 2
Fore
SplineSet
380 163 m 1,0,1
 519.164179104 385 519.164179104 385 627 385 c 0,2,3
 654 385 654 385 670 368.5 c 128,-1,4
 686 352 686 352 686 325 c 256,5,6
 686 284.413793103 686 284.413793103 648.5 212 c 128,-1,7
 611 139.586206897 611 139.586206897 611 118.793103448 c 0,8,9
 611 80 611 80 639 80 c 0,10,11
 654 80 654 80 669 91.5 c 128,-1,12
 684 103 684 103 707 130 c 1,13,-1
 728 110 l 1,14,15
 701 62 701 62 667 35 c 128,-1,16
 633 8 633 8 600 8 c 128,-1,17
 567 8 567 8 550.5 24.5 c 128,-1,18
 534 41 534 41 534 65.5 c 128,-1,19
 534 90 534 90 544 113.5 c 128,-1,20
 554 137 554 137 566 162 c 128,-1,21
 578 187 578 187 589 213 c 128,-1,22
 600 239 600 239 601 260 c 128,-1,23
 602 281 602 281 592 291 c 128,-1,24
 582 301 582 301 566 301 c 0,25,26
 530 301 530 301 500 274 c 128,-1,27
 470 247 470 247 443 203.5 c 128,-1,28
 416 160 416 160 390.5 106.5 c 128,-1,29
 365 53 365 53 338 -1 c 1,30,-1
 278 20 l 1,31,32
 278 26 278 26 290.5 66 c 128,-1,33
 303 106 303 106 311.5 134 c 128,-1,34
 320 162 320 162 327 188.5 c 0,35,36
 344 252.857142857 344 252.857142857 344 268.928571429 c 128,-1,37
 344 285 344 285 334 294.5 c 128,-1,38
 324 304 324 304 308.5 304 c 128,-1,39
 293 304 293 304 272 288 c 128,-1,40
 251 272 251 272 228 246.5 c 128,-1,41
 205 221 205 221 182 188.5 c 128,-1,42
 159 156 159 156 139.5 122.5 c 0,43,44
 97.2847965739 49.9764453961 97.2847965739 49.9764453961 83 1 c 1,45,-1
 26 20 l 1,46,47
 28.7051671733 65.9878419453 28.7051671733 65.9878419453 56.3525835866 156.993920973 c 128,-1,48
 84 248 84 248 97 284.5 c 0,49,50
 127.333333333 369.666666667 127.333333333 369.666666667 144 398 c 1,51,-1
 189 382 l 1,52,53
 179 359 179 359 170 338.5 c 128,-1,54
 161 318 161 318 153.5 293 c 0,55,56
 137.75 240.5 137.75 240.5 125 164 c 1,57,58
 251.379157428 343.73924612 251.379157428 343.73924612 327 375.5 c 0,59,60
 352 386 352 386 374 386 c 0,61,62
 425 386 425 386 425 335 c 0,63,64
 425 312.411764706 425 312.411764706 409 259.705882353 c 128,-1,65
 393 207 393 207 380 163 c 1,0,1
EndSplineSet
EndChar

StartChar: n
Encoding: 110 110 13
Width: 504
Flags: W
LayerCount: 2
Fore
SplineSet
470 105 m 1,0,1
 447.194508009 61.4622425629 447.194508009 61.4622425629 410 31.5 c 0,2,3
 372.137931034 1 372.137931034 1 340.568965517 1 c 128,-1,4
 309 1 309 1 291 19 c 128,-1,5
 273 37 273 37 273 61 c 128,-1,6
 273 85 273 85 284 109 c 128,-1,7
 295 133 295 133 307.5 158.5 c 128,-1,8
 320 184 320 184 331 209 c 128,-1,9
 342 234 342 234 342 253 c 128,-1,10
 342 272 342 272 330.5 283.5 c 128,-1,11
 319 295 319 295 297 295 c 128,-1,12
 275 295 275 295 248 271.5 c 128,-1,13
 221 248 221 248 193.5 207.5 c 0,14,15
 151.204678363 145.210526316 151.204678363 145.210526316 84 -6 c 1,16,-1
 24 15 l 1,17,18
 52.5737840066 189.30008244 52.5737840066 189.30008244 113.5 337 c 0,19,20
 130 377 130 377 144 400 c 1,21,-1
 185 387 l 1,22,23
 144.180327869 271.344262295 144.180327869 271.344262295 114 142 c 1,24,25
 227.963927856 334.653306613 227.963927856 334.653306613 318 368 c 0,26,27
 345 378 345 378 369 378 c 128,-1,28
 393 378 393 378 409.5 361 c 128,-1,29
 426 344 426 344 426 326 c 128,-1,30
 426 308 426 308 425 300 c 128,-1,31
 424 292 424 292 420.5 280.5 c 0,32,33
 413.742574257 258.297029703 413.742574257 258.297029703 396.371287129 221.648514851 c 128,-1,34
 379 185 379 185 371 166.5 c 128,-1,35
 363 148 363 148 358.5 135.5 c 0,36,37
 351 114.666666667 351 114.666666667 351 103.333333333 c 128,-1,38
 351 92 351 92 360.5 82.5 c 128,-1,39
 370 73 370 73 380 73 c 128,-1,40
 390 73 390 73 398.5 78 c 128,-1,41
 407 83 407 83 415.5 90.5 c 128,-1,42
 424 98 424 98 432.5 106 c 128,-1,43
 441 114 441 114 449 121 c 1,44,-1
 470 105 l 1,0,1
EndSplineSet
EndChar

StartChar: o
Encoding: 111 111 14
Width: 371
Flags: W
LayerCount: 2
Fore
SplineSet
315 297 m 1,0,1
 341 254.285714286 341 254.285714286 341 208.142857143 c 128,-1,2
 341 162 341 162 326 124.5 c 128,-1,3
 311 87 311 87 285.5 58 c 0,4,5
 229.224137931 -6 229.224137931 -6 153 -6 c 0,6,7
 94 -6 94 -6 62 27 c 128,-1,8
 30 60 30 60 30 113.5 c 128,-1,9
 30 167 30 167 50 211.5 c 128,-1,10
 70 256 70 256 103.5 290.5 c 128,-1,11
 137 325 137 325 180.5 345.5 c 128,-1,12
 224 366 224 366 270 366 c 2,13,-1
 282.5 366 l 2,14,15
 289 366 289 366 294 365 c 1,16,-1
 297 332 l 1,17,18
 216.272727273 332 216.272727273 332 164 286 c 0,19,20
 111 239.36 111 239.36 111 168 c 0,21,22
 111 125 111 125 132 98.5 c 128,-1,23
 153 72 153 72 182.5 72 c 128,-1,24
 212 72 212 72 230 82.5 c 128,-1,25
 248 93 248 93 259.5 110.5 c 0,26,27
 282 144.739130435 282 144.739130435 282 192.869565217 c 128,-1,28
 282 241 282 241 263 281 c 1,29,-1
 315 297 l 1,0,1
EndSplineSet
EndChar

StartChar: p
Encoding: 112 112 15
Width: 535
Flags: W
LayerCount: 2
Fore
SplineSet
-58 -321 m 1,0,1
 143 231.75 143 231.75 143 265 c 0,2,3
 143 313.7 143 313.7 134.5 338.35 c 128,-1,4
 126 363 126 363 117 381 c 1,5,-1
 167 406 l 1,6,7
 178 390 178 390 188 363.5 c 128,-1,8
 198 337 198 337 198 317.5 c 128,-1,9
 198 298 198 298 197.5 288.5 c 128,-1,10
 197 279 197 279 195.5 266 c 0,11,12
 193.393258427 247.741573034 193.393258427 247.741573034 179 184 c 1,13,14
 287.2616591 347.712752786 287.2616591 347.712752786 371.5 373.5 c 0,15,16
 396 381 396 381 423.5 381 c 128,-1,17
 451 381 451 381 474 355.5 c 128,-1,18
 497 330 497 330 497 284 c 128,-1,19
 497 238 497 238 476 186 c 128,-1,20
 455 134 455 134 420.5 92.5 c 128,-1,21
 386 51 386 51 340 25.5 c 128,-1,22
 294 0 294 0 245 0 c 0,23,24
 200.571428571 0 200.571428571 0 177 15 c 1,25,-1
 201 58 l 1,26,27
 254.666666667 51 254.666666667 51 273.833333333 51 c 128,-1,28
 293 51 293 51 319.5 69 c 128,-1,29
 346 87 346 87 367 115 c 0,30,31
 414 177.666666667 414 177.666666667 414 243 c 0,32,33
 414 269 414 269 399.5 285 c 128,-1,34
 385 301 385 301 359 301 c 128,-1,35
 333 301 333 301 301 275 c 128,-1,36
 269 249 269 249 236.5 203.5 c 128,-1,37
 204 158 204 158 171.5 96.5 c 128,-1,38
 139 35 139 35 108.5 -36.5 c 0,39,40
 48.4838709677 -177.193548387 48.4838709677 -177.193548387 2 -342 c 1,41,-1
 -58 -321 l 1,0,1
EndSplineSet
EndChar

StartChar: q
Encoding: 113 113 16
Width: 462
Flags: W
LayerCount: 2
Fore
SplineSet
434 273 m 1,0,1
 210.449115044 -180.488938053 210.449115044 -180.488938053 184 -348 c 1,2,-1
 130 -326 l 1,3,4
 130 -250.975609756 130 -250.975609756 329 181 c 1,5,6
 222.386586696 35.3816793893 222.386586696 35.3816793893 147.5 11 c 0,7,8
 126 4 126 4 107 4 c 0,9,10
 32 4 32 4 32 91 c 0,11,12
 32 146 32 146 61.5 198.5 c 128,-1,13
 91 251 91 251 140 292.5 c 128,-1,14
 189 334 189 334 252 359 c 128,-1,15
 315 384 315 384 382 384 c 1,16,-1
 391 349 l 1,17,18
 348 348 348 348 300.5 332.5 c 128,-1,19
 253 317 253 317 213.5 290 c 128,-1,20
 174 263 174 263 148 225.5 c 128,-1,21
 122 188 122 188 122 139.5 c 128,-1,22
 122 91 122 91 167 91 c 0,23,24
 210.866666667 91 210.866666667 91 281.5 172.5 c 0,25,26
 301 195 301 195 320 217.5 c 0,27,28
 367.158273381 273.345323741 367.158273381 273.345323741 395 295 c 1,29,-1
 434 273 l 1,0,1
EndSplineSet
EndChar

StartChar: r
Encoding: 114 114 17
Width: 395
Flags: W
LayerCount: 2
Fore
SplineSet
140 171 m 1,0,1
 241.234042553 354 241.234042553 354 310 354 c 0,2,3
 336 354 336 354 351.5 337 c 128,-1,4
 367 320 367 320 367 292 c 0,5,6
 367 241 367 241 305 179 c 1,7,-1
 281 198 l 1,8,9
 287.5 211 287.5 211 291.25 226 c 128,-1,10
 295 241 295 241 295 243 c 0,11,12
 295 270 295 270 267.5 270 c 128,-1,13
 240 270 240 270 218.5 244 c 128,-1,14
 197 218 197 218 176 178 c 128,-1,15
 155 138 155 138 134 91 c 128,-1,16
 113 44 113 44 89 2 c 1,17,-1
 32 27 l 1,18,19
 47 62 47 62 59 90 c 128,-1,20
 71 118 71 118 81.5 142 c 128,-1,21
 92 166 92 166 102.5 196 c 0,22,23
 122 251.714285714 122 251.714285714 122 372 c 1,24,-1
 178 387 l 1,25,26
 171.790123457 290.74691358 171.790123457 290.74691358 161.895061728 251.87345679 c 128,-1,27
 152 213 152 213 140 171 c 1,0,1
EndSplineSet
EndChar

StartChar: s
Encoding: 115 115 18
Width: 371
Flags: W
LayerCount: 2
Fore
SplineSet
348 352 m 1,0,1
 335 354 335 354 324 354 c 2,2,-1
 304 354 l 2,3,4
 257.333333333 354 257.333333333 354 238.666666667 344 c 128,-1,5
 220 334 220 334 212 321.5 c 128,-1,6
 204 309 204 309 204 292.5 c 128,-1,7
 204 276 204 276 216.5 253.5 c 128,-1,8
 229 231 229 231 244.5 206 c 0,9,10
 285 140.677419355 285 140.677419355 285 115 c 0,11,12
 285 60 285 60 248 30 c 128,-1,13
 211 0 211 0 155.5 0 c 128,-1,14
 100 0 100 0 69 26.5 c 128,-1,15
 38 53 38 53 16 93 c 1,16,-1
 54 120 l 1,17,18
 72 105 72 105 84.5 92.5 c 128,-1,19
 97 80 97 80 107 72 c 0,20,21
 128.25 55 128.25 55 150.625 55 c 128,-1,22
 173 55 173 55 190 71.5 c 128,-1,23
 207 88 207 88 207 109 c 128,-1,24
 207 130 207 130 193.5 154.5 c 128,-1,25
 180 179 180 179 163.5 204 c 128,-1,26
 147 229 147 229 133.5 253.5 c 128,-1,27
 120 278 120 278 120 298 c 0,28,29
 120 347 120 347 161.5 373 c 128,-1,30
 203 399 203 399 280 399 c 0,31,32
 339 399 339 399 357 391 c 1,33,-1
 348 352 l 1,0,1
EndSplineSet
EndChar

StartChar: t
Encoding: 116 116 19
Width: 370
Flags: W
LayerCount: 2
Fore
SplineSet
339 330 m 1,0,1
 322.5 333 322.5 333 298.25 333 c 0,2,3
 273 333 273 333 204 324 c 1,4,5
 145 192.677419355 145 192.677419355 145 132 c 0,6,7
 145 109 145 109 159.5 94 c 128,-1,8
 174 79 174 79 198.5 79 c 128,-1,9
 223 79 223 79 264 112 c 1,10,-1
 286 87 l 1,11,12
 260 47 260 47 224.5 25.5 c 128,-1,13
 189 4 189 4 153.5 4 c 128,-1,14
 118 4 118 4 97 24.5 c 128,-1,15
 76 45 76 45 76 81 c 0,16,17
 76 166.954545455 76 166.954545455 139 313 c 1,18,19
 93.0869565217 305.826086957 93.0869565217 305.826086957 37 289 c 1,20,-1
 30 328 l 1,21,22
 -96 292 -96 292 -6 319 c 0,23,24
 116.5 355.75 116.5 355.75 160 363 c 1,25,26
 173 389 173 389 188.5 420.5 c 128,-1,27
 204 452 204 452 219.5 483 c 0,28,29
 257.142857143 558.285714286 257.142857143 558.285714286 276 585 c 1,30,-1
 319 568 l 1,31,32
 310 549 310 549 303 534 c 128,-1,33
 296 519 296 519 286.5 499.5 c 128,-1,34
 277 480 277 480 263 451.5 c 128,-1,35
 249 423 249 423 228 378 c 1,36,37
 261 381 261 381 293 381 c 128,-1,38
 325 381 325 381 339 373 c 1,39,-1
 339 330 l 1,0,1
EndSplineSet
EndChar

StartChar: u
Encoding: 117 117 20
Width: 480
Flags: W
LayerCount: 2
Fore
SplineSet
452 93 m 1,0,1
 435.140594059 51.7881188119 435.140594059 51.7881188119 397 21.5 c 0,2,3
 361.111111111 -7 361.111111111 -7 331.555555556 -7 c 128,-1,4
 302 -7 302 -7 285.5 13.5 c 128,-1,5
 269 34 269 34 269 69 c 0,6,7
 269 98.8333333333 269 98.8333333333 280 152 c 1,8,9
 230 74 230 74 176.5 34 c 128,-1,10
 123 -6 123 -6 91 -6 c 128,-1,11
 59 -6 59 -6 45.5 12.5 c 128,-1,12
 32 31 32 31 32 65.5 c 128,-1,13
 32 100 32 100 39 131 c 128,-1,14
 46 162 46 162 57 193.5 c 128,-1,15
 68 225 68 225 81 255 c 128,-1,16
 94 285 94 285 106.5 309.5 c 0,17,18
 132.965517241 361.372413793 132.965517241 361.372413793 145 371 c 1,19,-1
 193 350 l 1,20,21
 152.740368509 283.484087102 152.740368509 283.484087102 135.370184255 232.242043551 c 0,22,23
 110 157.4 110 157.4 110 135.2 c 128,-1,24
 110 113 110 113 123.5 100 c 128,-1,25
 137 87 137 87 155 87 c 256,26,27
 195.128571429 87 195.128571429 87 250.5 155 c 0,28,29
 313.584269663 232.471910112 313.584269663 232.471910112 376 380 c 1,30,-1
 427 357 l 1,31,32
 418.692913386 330.417322835 418.692913386 330.417322835 390.346456693 262.208661417 c 0,33,34
 338 136.25 338 136.25 338 113.125 c 128,-1,35
 338 90 338 90 347.5 79 c 128,-1,36
 357 68 357 68 374 68 c 128,-1,37
 391 68 391 68 404 81.5 c 128,-1,38
 417 95 417 95 431 110 c 1,39,-1
 452 93 l 1,0,1
EndSplineSet
EndChar

StartChar: v
Encoding: 118 118 21
Width: 420
Flags: W
LayerCount: 2
Fore
SplineSet
391 331 m 1,0,1
 257.65282823 156.436429683 257.65282823 156.436429683 211 39 c 0,2,3
 200 12 200 12 187 6 c 128,-1,4
 174 0 174 0 161.5 0 c 128,-1,5
 149 0 149 0 138 11 c 128,-1,6
 127 22 127 22 120 37 c 0,7,8
 108.882352941 60.8235294118 108.882352941 60.8235294118 99.4411764706 113.911764706 c 128,-1,9
 90 167 90 167 79.5 218 c 128,-1,10
 69 269 69 269 62 300 c 128,-1,11
 55 331 55 331 50.5 345.5 c 128,-1,12
 46 360 46 360 43 367 c 128,-1,13
 40 374 40 374 37 376 c 128,-1,14
 34 378 34 378 31 384 c 1,15,-1
 96 378 l 1,16,17
 121.448275862 315.227586207 121.448275862 315.227586207 132.724137931 265.613793103 c 128,-1,18
 144 216 144 216 152 175 c 128,-1,19
 160 134 160 134 172 75 c 1,20,21
 217 160 217 160 261 234.5 c 128,-1,22
 305 309 305 309 357 358 c 1,23,-1
 391 331 l 1,0,1
EndSplineSet
EndChar

StartChar: w
Encoding: 119 119 22
Width: 637
Flags: W
LayerCount: 2
Fore
SplineSet
19 372 m 1,0,1
 47 380 47 380 77 380 c 1,2,3
 81.9696969697 370.060606061 81.9696969697 370.060606061 88.4848484848 335.53030303 c 0,4,5
 104.615384615 250.038461538 104.615384615 250.038461538 133 116 c 1,6,7
 183.692695214 213.329974811 183.692695214 213.329974811 226.346347607 269.664987406 c 0,8,9
 301.557142857 369 301.557142857 369 320.278571429 369 c 128,-1,10
 339 369 339 369 347 348.5 c 128,-1,11
 355 328 355 328 359 293 c 128,-1,12
 363 258 363 258 367.5 212.5 c 128,-1,13
 372 167 372 167 383 117 c 1,14,15
 476.741887169 276.560659011 476.741887169 276.560659011 598 389 c 1,16,-1
 626 363 l 1,17,-1
 566 290 l 2,18,19
 496.050632911 204.506329114 496.050632911 204.506329114 441.5 101 c 0,20,21
 422 64 422 64 409 30 c 1,22,23
 405 25 405 25 399.5 14 c 128,-1,24
 394 3 394 3 384 3 c 128,-1,25
 374 3 374 3 366 4.5 c 128,-1,26
 358 6 358 6 350 15 c 0,27,28
 332.169491525 35.0593220339 332.169491525 35.0593220339 326.084745763 83.5296610169 c 128,-1,29
 320 132 320 132 317.5 155 c 128,-1,30
 315 178 315 178 313 193 c 128,-1,31
 311 208 311 208 309.5 216.5 c 128,-1,32
 308 225 308 225 306 233 c 128,-1,33
 304 241 304 241 301 251 c 128,-1,34
 298 261 298 261 293 278 c 1,35,36
 249.180327869 230.196721311 249.180327869 230.196721311 228.090163934 192.098360656 c 0,37,38
 202.373134328 145.641791045 202.373134328 145.641791045 149 30 c 1,39,40
 141 16 141 16 136.5 13.5 c 128,-1,41
 132 11 132 11 124 11 c 128,-1,42
 116 11 116 11 106.5 12.5 c 128,-1,43
 97 14 97 14 89 22.5 c 0,44,45
 72.2072072072 40.3423423423 72.2072072072 40.3423423423 62.6036036036 118.671171171 c 0,46,47
 40.7139222865 297.207601013 40.7139222865 297.207601013 19 372 c 1,0,1
EndSplineSet
EndChar

StartChar: x
Encoding: 120 120 23
Width: 484
Flags: W
LayerCount: 2
Fore
SplineSet
256 251 m 1,0,1
 371.421052632 334.210526316 371.421052632 334.210526316 435 366 c 1,2,-1
 454 339 l 1,3,4
 416.444444444 310.833333333 416.444444444 310.833333333 369.722222222 279.416666667 c 0,5,6
 277.119402985 217.149253731 277.119402985 217.149253731 273 212 c 1,7,8
 294 167 294 167 322.5 119 c 128,-1,9
 351 71 351 71 402 14 c 1,10,-1
 355 -16 l 1,11,12
 301 23 301 23 270 71 c 128,-1,13
 239 119 239 119 217 167 c 1,14,15
 175.692982456 130.552631579 175.692982456 130.552631579 135.846491228 83.7763157895 c 128,-1,16
 96 37 96 37 58 -6 c 1,17,-1
 30 17 l 1,18,19
 48.2525951557 60.8062283737 48.2525951557 60.8062283737 193 209 c 1,20,21
 157.235924933 294.522788204 157.235924933 294.522788204 151 360 c 1,22,-1
 217 372 l 1,23,24
 223.105263158 362.842105263 223.105263158 362.842105263 256 251 c 1,0,1
EndSplineSet
EndChar

StartChar: y
Encoding: 121 121 24
Width: 491
Flags: W
LayerCount: 2
Fore
SplineSet
444 37 m 1,0,1
 438 33 438 33 431 30.5 c 128,-1,2
 424 28 424 28 414 24 c 128,-1,3
 404 20 404 20 389 15 c 128,-1,4
 374 10 374 10 351 1 c 1,5,6
 332.705521472 -93.5214723926 332.705521472 -93.5214723926 317.352760736 -140.760736196 c 128,-1,7
 302 -188 302 -188 284 -226 c 128,-1,8
 266 -264 266 -264 240.5 -294 c 0,9,10
 184.4 -360 184.4 -360 105 -360 c 0,11,12
 63 -360 63 -360 38 -334 c 128,-1,13
 13 -308 13 -308 13 -257.5 c 128,-1,14
 13 -207 13 -207 40.5 -163 c 128,-1,15
 68 -119 68 -119 110.5 -85 c 0,16,17
 181.878504673 -27.8971962617 181.878504673 -27.8971962617 303 15 c 1,18,-1
 357 205 l 1,19,20
 309.835443038 131.632911392 309.835443038 131.632911392 273.417721519 97.8164556962 c 128,-1,21
 237 64 237 64 203.5 47 c 128,-1,22
 170 30 170 30 131.5 30 c 128,-1,23
 93 30 93 30 70.5 53.5 c 128,-1,24
 48 77 48 77 48 111 c 128,-1,25
 48 145 48 145 57 181 c 128,-1,26
 66 217 66 217 80.5 254.5 c 0,27,28
 112.887850467 338.261682243 112.887850467 338.261682243 150 391 c 1,29,-1
 199 370 l 1,30,31
 194 360 194 360 182 338 c 128,-1,32
 170 316 170 316 158 289 c 0,33,34
 127 219.25 127 219.25 127 187.625 c 128,-1,35
 127 156 127 156 132 142.5 c 128,-1,36
 137 129 137 129 145.5 121.5 c 0,37,38
 160.8 108 160.8 108 184.9 108 c 128,-1,39
 209 108 209 108 227.5 117 c 128,-1,40
 246 126 246 126 269 148.5 c 0,41,42
 315.282401091 193.776261937 315.282401091 193.776261937 397 304 c 1,43,-1
 433 283 l 1,44,45
 419 226 419 226 396.5 160 c 128,-1,46
 374 94 374 94 360 31 c 1,47,-1
 441 63 l 1,48,-1
 444 37 l 1,0,1
297 -15 m 1,49,50
 168.673189824 -76.5968688845 168.673189824 -76.5968688845 118 -148 c 0,51,52
 96 -179 96 -179 96 -208 c 128,-1,53
 96 -237 96 -237 110 -252 c 128,-1,54
 124 -267 124 -267 145 -267 c 0,55,56
 207.936708861 -267 207.936708861 -267 251 -172.5 c 0,57,58
 277.971962617 -113.31152648 277.971962617 -113.31152648 297 -15 c 1,49,50
EndSplineSet
EndChar

StartChar: z
Encoding: 122 122 25
Width: 459
Flags: W
LayerCount: 2
Fore
SplineSet
104 56 m 1,0,1
 249.2 78 249.2 78 292.1 78 c 128,-1,2
 335 78 335 78 375 74 c 1,3,-1
 374 32 l 1,4,5
 328 30 328 30 295 29.5 c 128,-1,6
 262 29 262 29 233.5 27.5 c 0,7,8
 158 23.5263157895 158 23.5263157895 89.5 5.5 c 0,9,10
 80 3 80 3 73 3 c 128,-1,11
 66 3 66 3 55.5 9.5 c 128,-1,12
 45 16 45 16 36.5 26 c 0,13,14
 17 48.9411764706 17 48.9411764706 17 71 c 0,15,16
 17 111.341772152 17 111.341772152 317 324 c 1,17,18
 307 325 307 325 298 325 c 128,-1,19
 289 325 289 325 280 325 c 0,20,21
 211.555555556 325 211.555555556 325 96 305 c 1,22,-1
 90 339 l 1,23,24
 159.384615385 380 159.384615385 380 344 380 c 0,25,26
 379 380 379 380 397.5 375 c 128,-1,27
 416 370 416 370 416 346.5 c 128,-1,28
 416 323 416 323 397.5 310.5 c 128,-1,29
 379 298 379 298 352 279.5 c 128,-1,30
 325 261 325 261 294.5 239 c 128,-1,31
 264 217 264 217 233 191 c 0,32,33
 166.926503341 135.583518931 166.926503341 135.583518931 104 56 c 1,0,1
EndSplineSet
EndChar

StartChar: A
Encoding: 65 65 26
Width: 830
Flags: W
LayerCount: 2
Fore
SplineSet
678 307 m 1,0,1
 730 307 730 307 766 298 c 1,2,-1
 761 238 l 1,3,4
 744 240 744 240 732 240 c 0,5,6
 711.25 240 711.25 240 696.125 240 c 128,-1,7
 681 240 681 240 667 239 c 1,8,9
 651.5 115 651.5 115 649 0 c 1,10,-1
 579 0 l 1,11,12
 573 24 573 24 573 66 c 128,-1,13
 573 108 573 108 574.5 131 c 128,-1,14
 576 154 576 154 578.5 175.5 c 128,-1,15
 581 197 581 197 583 215 c 2,16,-1
 586 242 l 1,17,18
 575 243 575 243 559.5 243 c 0,19,20
 521.75 243 521.75 243 492.375 243 c 128,-1,21
 463 243 463 243 448 241 c 1,22,23
 326.518987342 79.0253164557 326.518987342 79.0253164557 241.5 10 c 0,24,25
 135.573170732 -76 135.573170732 -76 38 -76 c 0,26,27
 -9 -76 -9 -76 -42 -48 c 128,-1,28
 -75 -20 -75 -20 -75 27.5 c 128,-1,29
 -75 75 -75 75 -39 117.5 c 128,-1,30
 -3 160 -3 160 62.5 195.5 c 0,31,32
 202.299773389 271.269342829 202.299773389 271.269342829 422 297 c 1,33,34
 481.066929134 382.318897638 481.066929134 382.318897638 580.5 489.5 c 0,35,36
 619 531 619 531 659 566 c 1,37,38
 687 632 687 632 705 661.5 c 128,-1,39
 723 691 723 691 740.5 691 c 128,-1,40
 758 691 758 691 769 678 c 128,-1,41
 780 665 780 665 780 644.5 c 128,-1,42
 780 624 780 624 764 596 c 128,-1,43
 748 568 748 568 735 534.5 c 128,-1,44
 722 501 722 501 711 463 c 0,45,46
 685.247058824 374.035294118 685.247058824 374.035294118 678 307 c 1,0,1
94 7 m 0,47,48
 171.95 7 171.95 7 256 89 c 128,-1,49
 340.17721519 170.962025316 340.17721519 170.962025316 381 239 c 1,50,51
 213.777777778 227.851851852 213.777777778 227.851851852 115.5 172.5 c 0,52,53
 72 148 72 148 51 119 c 128,-1,54
 30 90 30 90 30 63.5 c 128,-1,55
 30 37 30 37 47.5 22 c 128,-1,56
 65 7 65 7 94 7 c 0,47,48
496 303 m 1,57,58
 560 307 560 307 598 307 c 1,59,60
 599 315 599 315 603.5 334.5 c 128,-1,61
 608 354 608 354 613 376.5 c 128,-1,62
 618 399 618 399 622.5 420 c 128,-1,63
 627 441 627 441 630 453 c 1,64,65
 607 430 607 430 592 415.5 c 128,-1,66
 577 401 577 401 564 386.5 c 0,67,68
 539.418181818 359.081818182 539.418181818 359.081818182 496 303 c 1,57,58
EndSplineSet
EndChar

StartChar: B
Encoding: 66 66 27
Width: 707
Flags: W
LayerCount: 2
Fore
SplineSet
656 142 m 1,0,-1
 601 140 l 1,1,2
 589.106412005 70.6207366985 589.106412005 70.6207366985 568.553206003 37.3103683492 c 128,-1,3
 548 4 548 4 527 -18 c 128,-1,4
 506 -40 506 -40 475 -65 c 128,-1,5
 444 -90 444 -90 405 -112 c 128,-1,6
 366 -134 366 -134 325.5 -149.5 c 0,7,8
 237.967741935 -183 237.967741935 -183 179.983870968 -183 c 128,-1,9
 122 -183 122 -183 92.5 -159.5 c 128,-1,10
 63 -136 63 -136 63 -102 c 128,-1,11
 63 -68 63 -68 81.5 -38 c 128,-1,12
 100 -8 100 -8 132 19.5 c 128,-1,13
 164 47 164 47 206.5 71.5 c 128,-1,14
 249 96 249 96 296.5 115.5 c 0,15,16
 394.102739726 155.568493151 394.102739726 155.568493151 491 170 c 1,17,18
 477.077777778 193.866666667 477.077777778 193.866666667 454.038888889 206.433333333 c 0,19,20
 422.261682243 223.76635514 422.261682243 223.76635514 342 247 c 1,21,22
 302 257 302 257 302 283 c 0,23,24
 302 298 302 298 314 310.5 c 128,-1,25
 326 323 326 323 353.5 339 c 128,-1,26
 381 355 381 355 411.5 375.5 c 128,-1,27
 442 396 442 396 472.5 421.5 c 0,28,29
 548 484.62295082 548 484.62295082 548 521.81147541 c 128,-1,30
 548 559 548 559 513 559 c 0,31,32
 452.65 559 452.65 559 348 468 c 1,33,-1
 305 332 l 2,34,35
 259 186 259 186 204.5 108.5 c 128,-1,36
 150 31 150 31 102 31 c 0,37,38
 77 31 77 31 63.5 47.5 c 128,-1,39
 50 64 50 64 50 94.5 c 128,-1,40
 50 125 50 125 65.5 166.5 c 128,-1,41
 81 208 81 208 111 256 c 0,42,43
 174.202247191 357.123595506 174.202247191 357.123595506 284 463 c 1,44,45
 285 466 285 466 289.5 481.5 c 128,-1,46
 294 497 294 497 300 516.5 c 0,47,48
 315.411764706 566.588235294 315.411764706 566.588235294 326 586 c 1,49,-1
 375 578 l 1,50,51
 375 560.2 375 560.2 367 533 c 1,52,53
 452.878947368 599.794736842 452.878947368 599.794736842 538.5 629.5 c 0,54,55
 563 638 563 638 585 638 c 128,-1,56
 607 638 607 638 625 619.5 c 128,-1,57
 643 601 643 601 643 571.5 c 128,-1,58
 643 542 643 542 626.5 512 c 128,-1,59
 610 482 610 482 584.5 454.5 c 128,-1,60
 559 427 559 427 527.5 402 c 128,-1,61
 496 377 496 377 466 357.5 c 0,62,63
 403.741935484 317.032258065 403.741935484 317.032258065 371 303 c 1,64,65
 475.666666667 286.897435897 475.666666667 286.897435897 523 260.5 c 0,66,67
 571.669124424 233.357603687 571.669124424 233.357603687 593 181 c 1,68,-1
 657 181 l 1,69,-1
 656 142 l 1,0,-1
134 191 m 128,-1,71
 122 162 122 162 122 143 c 128,-1,72
 122 124 122 124 136.5 124 c 128,-1,73
 151 124 151 124 168.5 153 c 128,-1,74
 186 182 186 182 200.5 211 c 128,-1,75
 215 240 215 240 227 270 c 0,76,77
 252.214285714 333.035714286 252.214285714 333.035714286 264 390 c 1,78,79
 209.34841629 329.2760181 209.34841629 329.2760181 177.674208145 274.63800905 c 128,-1,70
 146 220 146 220 134 191 c 128,-1,71
232 -118 m 0,80,81
 313.206896552 -118 313.206896552 -118 403 -56 c 1,82,83
 453 -23 453 -23 481.5 18 c 128,-1,84
 510 59 510 59 510 95 c 0,85,86
 510 110.666666667 510 110.666666667 505 129 c 1,87,88
 353.797720798 110.0997151 353.797720798 110.0997151 252.5 47.5 c 0,89,90
 208 20 208 20 184.5 -10 c 128,-1,91
 161 -40 161 -40 161 -64.5 c 128,-1,92
 161 -89 161 -89 180 -103.5 c 128,-1,93
 199 -118 199 -118 232 -118 c 0,80,81
EndSplineSet
EndChar

StartChar: C
Encoding: 67 67 28
Width: 648
Flags: W
LayerCount: 2
Fore
SplineSet
302 64 m 0,0,1
 441.6 64 441.6 64 483 225 c 1,2,-1
 530 225 l 1,3,4
 518.862030495 131.441056155 518.862030495 131.441056155 448 65.5 c 0,5,6
 366.865671642 -10 366.865671642 -10 241 -10 c 0,7,8
 176.4 -10 176.4 -10 123 34.5 c 0,9,10
 61 86.1666666667 61 86.1666666667 61 174 c 0,11,12
 61 225 61 225 77 273 c 128,-1,13
 93 321 93 321 131 380 c 1,14,15
 105 395 105 395 83 416 c 128,-1,16
 61 437 61 437 50 454 c 1,17,-1
 77 484 l 1,18,19
 87 475 87 475 93.5 467 c 128,-1,20
 100 459 100 459 108 451 c 0,21,22
 128 431 128 431 158 416 c 1,23,24
 218.986757796 499.348568988 218.986757796 499.348568988 329.5 565 c 0,25,26
 442.283333333 632 442.283333333 632 520 632 c 0,27,28
 557 632 557 632 577.5 611.5 c 128,-1,29
 598 591 598 591 598 554.5 c 128,-1,30
 598 518 598 518 573.5 480.5 c 128,-1,31
 549 443 549 443 507 413 c 0,32,33
 411.8 345 411.8 345 293 345 c 0,34,35
 238.714285714 345 238.714285714 345 183 360 c 1,36,37
 145 298.777777778 145 298.777777778 145 227.388888889 c 128,-1,38
 145 156 145 156 183.5 110 c 128,-1,39
 222 64 222 64 302 64 c 0,0,1
206 399 m 1,40,41
 242.75 385 242.75 385 287.875 385 c 128,-1,42
 333 385 333 385 373 396 c 128,-1,43
 413 407 413 407 443 426 c 0,44,45
 509 467.8 509 467.8 509 522 c 0,46,47
 509 541 509 541 495.5 552.5 c 128,-1,48
 482 564 482 564 456.5 564 c 128,-1,49
 431 564 431 564 395.5 551 c 128,-1,50
 360 538 360 538 325.5 515.5 c 0,51,52
 249.172566372 465.721238938 249.172566372 465.721238938 206 399 c 1,40,41
EndSplineSet
EndChar

StartChar: D
Encoding: 68 68 29
Width: 724
Flags: W
LayerCount: 2
Fore
SplineSet
337 -2 m 1,0,-1
 267 -1 l 1,1,-1
 220 -1 l 2,2,3
 191 -1 191 -1 191 21 c 0,4,5
 191 31.0909090909 191 31.0909090909 212.5 72.0454545455 c 0,6,7
 262.648911201 167.572238884 262.648911201 167.572238884 293 291 c 1,8,9
 190.647058824 291 190.647058824 291 102.5 346.5 c 0,10,11
 62 372 62 372 36 406.5 c 128,-1,12
 10 441 10 441 10 478 c 128,-1,13
 10 515 10 515 28 544 c 128,-1,14
 46 573 46 573 78 594 c 0,15,16
 145.047619048 638 145.047619048 638 242.523809524 638 c 128,-1,17
 340 638 340 638 416.5 610.5 c 128,-1,18
 493 583 493 583 550.5 535 c 128,-1,19
 608 487 608 487 641 423 c 128,-1,20
 674 359 674 359 674 289.5 c 128,-1,21
 674 220 674 220 651.5 167 c 128,-1,22
 629 114 629 114 589 76.5 c 0,23,24
 507.475780409 0.0710441334768 507.475780409 0.0710441334768 377 -2 c 1,25,-1
 337 -2 l 1,0,-1
370 335 m 1,26,27
 398 335 398 335 463 345 c 1,28,-1
 468 312 l 1,29,30
 443 303 443 303 412.5 299 c 128,-1,31
 382 295 382 295 357 291 c 1,32,-1
 332.5 214 l 2,33,34
 315 159 315 159 276 73 c 1,35,36
 285 72 285 72 307.5 71 c 128,-1,37
 330 70 330 70 355.5 68.5 c 0,38,39
 415 65 415 65 444 65 c 0,40,41
 510 65 510 65 548.5 114 c 128,-1,42
 587 163 587 163 587 241.5 c 128,-1,43
 587 320 587 320 560.5 384 c 128,-1,44
 534 448 534 448 488 495 c 128,-1,45
 442 542 442 542 380.5 569.5 c 128,-1,46
 319 597 319 597 251 597 c 128,-1,47
 183 597 183 597 145 569.5 c 128,-1,48
 107 542 107 542 107 487 c 128,-1,49
 107 432 107 432 159.5 389.5 c 128,-1,50
 212 347 212 347 300 336 c 1,51,52
 309 374 309 374 320 417.5 c 128,-1,53
 331 461 331 461 336 505 c 1,54,-1
 396 499 l 1,55,56
 396 433.8 396 433.8 370 335 c 1,26,27
EndSplineSet
EndChar

StartChar: E
Encoding: 69 69 30
Width: 709
Flags: W
LayerCount: 2
Fore
SplineSet
55 -114 m 1,0,1
 61.4375 -88.25 61.4375 -88.25 96 -29 c 1,2,3
 50 23 50 23 50 88 c 128,-1,4
 50 153 50 153 102.5 211 c 128,-1,5
 155 269 155 269 249 307 c 1,6,7
 223 328 223 328 212.5 346.5 c 128,-1,8
 202 365 202 365 202 391.5 c 128,-1,9
 202 418 202 418 218.5 448 c 128,-1,10
 235 478 235 478 263.5 505.5 c 128,-1,11
 292 533 292 533 329 557.5 c 128,-1,12
 366 582 366 582 407 599.5 c 0,13,14
 497.2 638 497.2 638 571 638 c 0,15,16
 611 638 611 638 635 620.5 c 128,-1,17
 659 603 659 603 659 568.5 c 128,-1,18
 659 534 659 534 631 503.5 c 128,-1,19
 603 473 603 473 561.5 452 c 0,20,21
 478.5 410 478.5 410 384 410 c 2,22,-1
 372.5 410 l 2,23,24
 367 410 367 410 362 411 c 1,25,-1
 362 445 l 1,26,27
 373 448 373 448 386 450 c 128,-1,28
 399 452 399 452 412 454 c 0,29,30
 476 464 476 464 514.5 488 c 128,-1,31
 553 512 553 512 553 542 c 0,32,33
 553 578 553 578 499 578 c 0,34,35
 426.909090909 578 426.909090909 578 361 528 c 0,36,37
 332 506 332 506 314 477.5 c 128,-1,38
 296 449 296 449 296 421 c 0,39,40
 296 368 296 368 364 352 c 0,41,42
 378 348 378 348 383.5 344 c 128,-1,43
 389 340 389 340 389 330 c 128,-1,44
 389 320 389 320 379.5 313.5 c 128,-1,45
 370 307 370 307 336 295 c 0,46,47
 152 232 152 232 152 99 c 0,48,49
 152 71.3333333333 152 71.3333333333 162 53 c 1,50,51
 257.975493533 173.743362832 257.975493533 173.743362832 414 216 c 0,52,53
 462 229 462 229 508.5 229 c 128,-1,54
 555 229 555 229 582.5 208.5 c 128,-1,55
 610 188 610 188 610 148.5 c 128,-1,56
 610 109 610 109 579 66.5 c 128,-1,57
 548 24 548 24 498 -10 c 128,-1,58
 448 -44 448 -44 385.5 -65.5 c 128,-1,59
 323 -87 323 -87 250 -87 c 128,-1,60
 177 -87 177 -87 131 -57 c 1,61,62
 129 -59 129 -59 125 -67.5 c 128,-1,63
 121 -76 121 -76 115 -87 c 0,64,65
 98.2 -117.8 98.2 -117.8 88 -128 c 1,66,-1
 55 -114 l 1,0,1
184 17 m 1,67,68
 224.909090909 -28 224.909090909 -28 291 -28 c 0,69,70
 371.906976744 -28 371.906976744 -28 441.5 19.5 c 0,71,72
 473 41 473 41 492.5 68 c 128,-1,73
 512 95 512 95 512 119.5 c 128,-1,74
 512 144 512 144 495 156.5 c 128,-1,75
 478 169 478 169 448.5 169 c 128,-1,76
 419 169 419 169 383 157 c 128,-1,77
 347 145 347 145 311 124 c 0,78,79
 230.470588235 77.0245098039 230.470588235 77.0245098039 184 17 c 1,67,68
EndSplineSet
EndChar

StartChar: F
Encoding: 70 70 31
Width: 803
Flags: W
LayerCount: 2
Fore
SplineSet
514 621 m 1,0,-1
 751 614 l 2,1,2
 776 614 776 614 796.5 622.5 c 128,-1,3
 817 631 817 631 830 631 c 0,4,5
 853 631 853 631 853 612 c 0,6,7
 853 573.909090909 853 573.909090909 785.5 555.5 c 0,8,9
 739.666666667 543 739.666666667 543 681 543 c 1,10,11
 655 525 655 525 623.5 465 c 128,-1,12
 592 405 592 405 562 301 c 1,13,14
 658 301 658 301 685 298 c 1,15,-1
 683 251 l 1,16,17
 672 250 672 250 660.5 250 c 2,18,-1
 638 250 l 1,19,-1
 547 253 l 1,20,21
 492.426997245 85.3829201102 492.426997245 85.3829201102 395.5 -19 c 0,22,23
 301.714285714 -120 301.714285714 -120 195 -120 c 0,24,25
 129 -120 129 -120 89.5 -81 c 128,-1,26
 50 -42 50 -42 50 14.5 c 128,-1,27
 50 71 50 71 81.5 119.5 c 128,-1,28
 113 168 113 168 170 207 c 0,29,30
 295.973958333 293.192708333 295.973958333 293.192708333 476 299 c 1,31,32
 505 391 505 391 542.5 454.5 c 128,-1,33
 580 518 580 518 619 543 c 1,34,-1
 458 549 l 1,35,36
 353 549 353 549 305.5 522 c 128,-1,37
 258 495 258 495 258 454 c 0,38,39
 258 431 258 431 277 415.5 c 128,-1,40
 296 400 296 400 323 400 c 128,-1,41
 350 400 350 400 378 412 c 128,-1,42
 406 424 406 424 439 438 c 1,43,-1
 460 412 l 1,44,45
 429 381 429 381 385.5 358.5 c 128,-1,46
 342 336 342 336 297.5 336 c 128,-1,47
 253 336 253 336 227.5 361 c 128,-1,48
 202 386 202 386 202 425 c 128,-1,49
 202 464 202 464 223.5 500 c 128,-1,50
 245 536 245 536 285 563 c 0,51,52
 370.925925926 621 370.925925926 621 514 621 c 1,0,-1
301 -19 m 128,-1,54
 342 10 342 10 371.5 57 c 0,55,56
 430.520247083 151.032258065 430.520247083 151.032258065 460 250 c 1,57,58
 335.85730725 239.98849252 335.85730725 239.98849252 241 170.5 c 0,59,60
 198 139 198 139 172.5 100.5 c 128,-1,61
 147 62 147 62 147 27 c 128,-1,62
 147 -8 147 -8 168.5 -28 c 128,-1,63
 190 -48 190 -48 225 -48 c 128,-1,53
 260 -48 260 -48 301 -19 c 128,-1,54
EndSplineSet
EndChar

StartChar: G
Encoding: 71 71 32
Width: 719
Flags: W
LayerCount: 2
Fore
SplineSet
530 -42 m 1,0,1
 456.578947368 -28.9473684211 456.578947368 -28.9473684211 417 -24 c 1,2,3
 368.793814433 -156.567010309 368.793814433 -156.567010309 277.5 -233.5 c 0,4,5
 185.533333333 -311 185.533333333 -311 73 -311 c 0,6,7
 12.064516129 -311 12.064516129 -311 -29 -277.5 c 128,-1,8
 -70 -244.052631579 -70 -244.052631579 -70 -199.026315789 c 128,-1,9
 -70 -154 -70 -154 -39 -115 c 128,-1,10
 -8 -76 -8 -76 47 -46 c 0,11,12
 168 20 168 20 336 20 c 2,13,-1
 353 20 l 2,14,15
 362 20 362 20 371 19 c 1,16,17
 385 50.5 385 50.5 392.5 74.25 c 128,-1,18
 400 98 400 98 400 100 c 1,19,20
 335 57 335 57 263 57 c 0,21,22
 190.3125 57 190.3125 57 142.5 108 c 0,23,24
 94 159.733333333 94 159.733333333 94 233.366666667 c 128,-1,25
 94 307 94 307 127.5 378 c 128,-1,26
 161 449 161 449 216.5 507 c 128,-1,27
 272 565 272 565 343 601.5 c 128,-1,28
 414 638 414 638 488 638 c 0,29,30
 575.291666667 638 575.291666667 638 638.5 597 c 0,31,32
 657 585 657 585 669 572 c 1,33,-1
 615 507 l 1,34,35
 553.520408163 553.724489796 553.520408163 553.724489796 536.260204082 562.862244898 c 0,36,37
 503.888888889 580 503.888888889 580 457.944444444 580 c 128,-1,38
 412 580 412 580 362 552.5 c 128,-1,39
 312 525 312 525 272.5 480.5 c 128,-1,40
 233 436 233 436 208.5 379 c 128,-1,41
 184 322 184 322 184 261 c 128,-1,42
 184 200 184 200 220 163 c 128,-1,43
 256 126 256 126 314.5 126 c 128,-1,44
 373 126 373 126 420 154 c 1,45,46
 446 221 446 221 473 264 c 128,-1,47
 500 307 500 307 528.5 307 c 128,-1,48
 557 307 557 307 557 279 c 128,-1,49
 557 251 557 251 535.5 214.5 c 128,-1,50
 514 178 514 178 480 149 c 1,51,52
 467 114 467 114 459 92 c 128,-1,53
 451 70 451 70 445.5 55.5 c 0,54,55
 435.368421053 28.7894736842 435.368421053 28.7894736842 432 17 c 1,56,57
 505.109589041 8.87671232877 505.109589041 8.87671232877 545 -8 c 1,58,-1
 530 -42 l 1,0,1
58.5 -225.5 m 128,-1,60
 82 -243 82 -243 119 -243 c 128,-1,61
 156 -243 156 -243 190.5 -226.5 c 128,-1,62
 225 -210 225 -210 256.5 -180.5 c 0,63,64
 322.882236517 -118.332508659 322.882236517 -118.332508659 357 -22 c 1,65,66
 221.714285714 -22 221.714285714 -22 128.5 -67 c 0,67,68
 85 -88 85 -88 60 -116.5 c 128,-1,69
 35 -145 35 -145 35 -176.5 c 128,-1,59
 35 -208 35 -208 58.5 -225.5 c 128,-1,60
EndSplineSet
EndChar

StartChar: H
Encoding: 72 72 33
Width: 865
Flags: W
LayerCount: 2
Fore
SplineSet
557 35 m 0,0,1
 557 100 557 100 590 210 c 1,2,3
 529 210 529 210 486.5 205 c 128,-1,4
 444 200 444 200 408 196 c 1,5,6
 369.58287596 92.8803512623 369.58287596 92.8803512623 305 8 c 0,7,8
 233.355169467 -86.1617772714 233.355169467 -86.1617772714 121 -127.5 c 0,9,10
 68 -147 68 -147 25 -147 c 128,-1,11
 -18 -147 -18 -147 -44 -122 c 128,-1,12
 -70 -97 -70 -97 -70 -54 c 128,-1,13
 -70 -11 -70 -11 -41 33.5 c 128,-1,14
 -12 78 -12 78 42 116 c 0,15,16
 154.90507365 195.451718494 154.90507365 195.451718494 347 241 c 1,17,18
 421 457 421 457 555 549 c 1,19,20
 411.584605391 547.008119519 411.584605391 547.008119519 316.5 500 c 0,21,22
 222 453.280898876 222 453.280898876 222 380 c 0,23,24
 222 355.222222222 222 355.222222222 227.5 343.611111111 c 0,25,26
 239.923076923 317.384615385 239.923076923 317.384615385 262 289 c 1,27,-1
 228 257 l 1,28,29
 181 287 181 287 159.5 327 c 128,-1,30
 138 367 138 367 138 408.5 c 128,-1,31
 138 450 138 450 177 491 c 128,-1,32
 216 532 216 532 277.5 562 c 128,-1,33
 339 592 339 592 415.5 609 c 128,-1,34
 492 626 492 626 555 626 c 128,-1,35
 618 626 618 626 637.5 618.5 c 128,-1,36
 657 611 657 611 657 595.5 c 128,-1,37
 657 580 657 580 650.5 571 c 128,-1,38
 644 562 644 562 628 552 c 0,39,40
 502.555051078 472.171396141 502.555051078 472.171396141 427 256 c 1,41,42
 476.548387097 265.290322581 476.548387097 265.290322581 610 278 c 1,43,44
 671.565217391 462.695652174 671.565217391 462.695652174 722 556 c 0,45,46
 742 593 742 593 770 637 c 1,47,-1
 815 615 l 1,48,49
 745.533333333 478.171717172 745.533333333 478.171717172 676 278 c 1,50,51
 719 278 719 278 739 274 c 1,52,-1
 735 217 l 1,53,54
 715.75 210 715.75 210 653 210 c 1,55,56
 632.942857143 156.514285714 632.942857143 156.514285714 627.971428571 114.257142857 c 128,-1,57
 623 72 623 72 621.5 48 c 128,-1,58
 620 24 620 24 618 0 c 1,59,-1
 562 0 l 1,60,61
 557 20 557 20 557 35 c 0,0,1
329 184 m 1,62,63
 195.895655403 162.147047902 195.895655403 162.147047902 114 106.5 c 0,64,65
 33 51.4615384615 33 51.4615384615 33 -19 c 0,66,67
 33 -47 33 -47 49.5 -62.5 c 128,-1,68
 66 -78 66 -78 91.5 -78 c 128,-1,69
 117 -78 117 -78 141 -69.5 c 128,-1,70
 165 -61 165 -61 188 -46 c 0,71,72
 238.888730385 -12.8116975749 238.888730385 -12.8116975749 273.046774831 41.0130997339 c 128,-1,73
 307.204819277 94.8378970427 307.204819277 94.8378970427 329 184 c 1,62,63
EndSplineSet
EndChar

StartChar: I
Encoding: 73 73 34
Width: 626
Flags: W
LayerCount: 2
Fore
SplineSet
250 362 m 1,0,1
 183 409.605263158 183 409.605263158 183 471 c 0,2,3
 183 549.03539823 183 549.03539823 312.5 588 c 0,4,5
 415.529411765 619 415.529411765 619 572 619 c 0,6,7
 601.5 619 601.5 619 609 616 c 0,8,9
 626 611 626 611 626 598 c 0,10,11
 626 594.090909091 626 594.090909091 607.5 570.545454545 c 0,12,13
 568.157894737 520.473684211 568.157894737 520.473684211 553.578947368 497.736842105 c 128,-1,14
 539 475 539 475 527 448.5 c 128,-1,15
 515 422 515 422 503.5 391 c 128,-1,16
 492 360 492 360 481 327.5 c 128,-1,17
 470 295 470 295 461 268 c 128,-1,18
 452 241 452 241 446 222.5 c 0,19,20
 427.773228346 166.300787402 427.773228346 166.300787402 393.886614173 123.650393701 c 128,-1,21
 360 81 360 81 325.5 55.5 c 0,22,23
 254.470588235 3 254.470588235 3 175 3 c 0,24,25
 118 3 118 3 84 30.5 c 128,-1,26
 50 58 50 58 50 99.5 c 128,-1,27
 50 141 50 141 77 176 c 128,-1,28
 104 211 104 211 145 237.5 c 128,-1,29
 186 264 186 264 235.5 280 c 128,-1,30
 285 296 285 296 329 296 c 1,31,-1
 333 263 l 1,32,33
 259.161100196 248.642436149 259.161100196 248.642436149 207 209 c 0,34,35
 152 167.2 152 167.2 152 121 c 0,36,37
 152 91 152 91 169.5 72 c 128,-1,38
 187 53 187 53 213 53 c 128,-1,39
 239 53 239 53 260 63 c 128,-1,40
 281 73 281 73 300.5 98.5 c 0,41,42
 340.410505837 150.690661479 340.410505837 150.690661479 380 277 c 0,43,44
 416.669975186 391.084367246 416.669975186 391.084367246 440.334987593 433.542183623 c 128,-1,45
 464 476 464 476 483.5 498.5 c 128,-1,46
 503 521 503 521 527 540 c 1,47,48
 516 541 516 541 508.5 541 c 2,49,-1
 496 541 l 2,50,51
 409 541 409 541 335.5 516.5 c 0,52,53
 247 487 247 487 247 442 c 0,54,55
 247 428 247 428 250.5 417.5 c 128,-1,56
 254 407 254 407 272 389 c 1,57,-1
 250 362 l 1,0,1
EndSplineSet
EndChar

StartChar: J
Encoding: 74 74 35
Width: 742
Flags: W
LayerCount: 2
Fore
SplineSet
282 124 m 1,0,1
 119 213.451219512 119 213.451219512 119 346 c 0,2,3
 119 406 119 406 158 457 c 128,-1,4
 197 508 197 508 262.5 544.5 c 0,5,6
 401.575342466 622 401.575342466 622 594 622 c 0,7,8
 655 622 655 622 693.5 614.5 c 128,-1,9
 732 607 732 607 732 584 c 0,10,11
 732 573 732 573 725 564.5 c 128,-1,12
 718 556 718 556 689.5 538.5 c 128,-1,13
 661 521 661 521 627 484.5 c 128,-1,14
 593 448 593 448 560.5 391.5 c 0,15,16
 499.396709902 285.274280291 499.396709902 285.274280291 433 72 c 1,17,18
 492 72 492 72 522 67 c 1,19,-1
 516 27 l 1,20,21
 483.5 32 483.5 32 468.25 32 c 0,22,23
 447 32 447 32 417 27 c 1,24,25
 384.520958084 -60.2874251497 384.520958084 -60.2874251497 358.760479042 -99.6437125749 c 0,26,27
 275.461538462 -226.905982906 275.461538462 -226.905982906 142.5 -286 c 0,28,29
 75 -316 75 -316 29.5 -316 c 128,-1,30
 -16 -316 -16 -316 -43 -290.5 c 128,-1,31
 -70 -265 -70 -265 -70 -219.5 c 128,-1,32
 -70 -174 -70 -174 -34.5 -126 c 128,-1,33
 1 -78 1 -78 60 -38.5 c 0,34,35
 189.068412614 47.9102084447 189.068412614 47.9102084447 356 64 c 1,36,37
 368.777777778 99.7777777778 368.777777778 99.7777777778 389.888888889 168.388888889 c 128,-1,38
 411 237 411 237 437 296.5 c 128,-1,39
 463 356 463 356 493 401.5 c 0,40,41
 549.163723917 486.68164794 549.163723917 486.68164794 629 544 c 1,42,43
 616 546 616 546 606.5 546 c 2,44,-1
 584 546 l 2,45,46
 412.706896552 546 412.706896552 546 295.5 480 c 0,47,48
 244 451 244 451 216.5 414.5 c 128,-1,49
 189 378 189 378 189 345.5 c 128,-1,50
 189 313 189 313 198 288.5 c 128,-1,51
 207 264 207 264 222.5 241.5 c 0,52,53
 249.663366337 202.069306931 249.663366337 202.069306931 306 157 c 1,54,-1
 282 124 l 1,0,1
185.5 -216.5 m 0,55,56
 265.744225543 -166.446671196 265.744225543 -166.446671196 316 -58 c 0,57,58
 335 -17 335 -17 343 20 c 1,59,60
 214.279287723 8.11808809747 214.279287723 8.11808809747 122 -54.5 c 0,61,62
 32 -115.571428571 32 -115.571428571 32 -192 c 0,63,64
 32 -218 32 -218 47 -233 c 128,-1,65
 62 -248 62 -248 89 -248 c 0,66,67
 135 -248 135 -248 185.5 -216.5 c 0,55,56
EndSplineSet
EndChar

StartChar: K
Encoding: 75 75 36
Width: 837
Flags: W
LayerCount: 2
Fore
SplineSet
424.5 596.5 m 128,-1,1
 502 615 502 615 568 615 c 128,-1,2
 634 615 634 615 634 589 c 0,3,4
 634 579 634 579 627 570.5 c 128,-1,5
 620 562 620 562 592 540.5 c 128,-1,6
 564 519 564 519 538.5 484 c 128,-1,7
 513 449 513 449 495 409 c 0,8,9
 466.363636364 345.363636364 466.363636364 345.363636364 444 241 c 1,10,11
 614.721112076 303.597741095 614.721112076 303.597741095 764 488.5 c 0,12,13
 808 543 808 543 844 600 c 1,14,-1
 907 569 l 1,15,16
 814.854599407 415.424332344 814.854599407 415.424332344 656 304.5 c 0,17,18
 598 264 598 264 523 223 c 1,19,20
 565.275189599 1.05525460455 565.275189599 1.05525460455 635.5 -73 c 0,21,22
 663 -102 663 -102 699 -107 c 1,23,-1
 699 -153 l 1,24,25
 693 -154 693 -154 688 -154 c 128,-1,26
 683 -154 683 -154 678 -154 c 0,27,28
 612 -154 612 -154 549.5 -63 c 128,-1,29
 487 28 487 28 436 214 c 1,30,31
 393.731914894 79.5106382979 393.731914894 79.5106382979 303 -1.5 c 0,32,33
 217.32 -78 217.32 -78 122 -78 c 0,34,35
 73 -78 73 -78 41.5 -52 c 128,-1,36
 10 -26 10 -26 10 21 c 128,-1,37
 10 68 10 68 52 118 c 128,-1,38
 94 168 94 168 167 202 c 1,39,-1
 190 166 l 1,40,41
 100 101.714285714 100 101.714285714 100 46 c 0,42,43
 100 19 100 19 118 2.5 c 128,-1,44
 136 -14 136 -14 166.5 -14 c 128,-1,45
 197 -14 197 -14 225.5 -2 c 128,-1,46
 254 10 254 10 279.5 40 c 0,47,48
 333.171428571 103.142857143 333.171428571 103.142857143 371 245 c 0,49,50
 410.620689655 390.275862069 410.620689655 390.275862069 446 448 c 0,51,52
 465 479 465 479 487 498.5 c 128,-1,53
 509 518 509 518 538 539 c 1,54,55
 426.501132759 536.724512913 426.501132759 536.724512913 328 488.5 c 0,56,57
 280 465 280 465 248.5 431.5 c 128,-1,58
 217 398 217 398 217 357 c 0,59,60
 217 314.666666667 217 314.666666667 245 278.5 c 0,61,62
 257 263 257 263 278 250 c 1,63,-1
 258 219 l 1,64,65
 201 246 201 246 169.5 289.5 c 128,-1,66
 138 333 138 333 138 380 c 128,-1,67
 138 427 138 427 179 470 c 128,-1,68
 220 513 220 513 283.5 545.5 c 128,-1,0
 347 578 347 578 424.5 596.5 c 128,-1,1
EndSplineSet
EndChar

StartChar: L
Encoding: 76 76 37
Width: 621
Flags: W
LayerCount: 2
Fore
SplineSet
403 87 m 1,0,1
 448.454545455 87 448.454545455 87 488 116 c 1,2,-1
 515 80 l 1,3,4
 485.335483871 44.9419354839 485.335483871 44.9419354839 469.167741935 33.9709677419 c 0,5,6
 436.789473684 12 436.789473684 12 395 12 c 1,7,-1
 208 20 l 2,8,9
 199 20 199 20 178.5 19.5 c 128,-1,10
 158 19 158 19 137.5 18.5 c 128,-1,11
 117 18 117 18 101.5 17.5 c 2,12,-1
 86 17 l 1,13,14
 49 18 49 18 49 50 c 0,15,16
 49 63 49 63 74.5 113 c 128,-1,17
 100 163 100 163 111 196 c 128,-1,18
 122 229 122 229 141 285 c 1,19,20
 112 285 112 285 80.5 296.5 c 128,-1,21
 49 308 49 308 30 322 c 1,22,-1
 51 359 l 1,23,24
 83 338 83 338 109.5 334.5 c 128,-1,25
 136 331 136 331 156 331 c 1,26,27
 212.444444444 472.111111111 212.444444444 472.111111111 307.5 547.5 c 0,28,29
 392.608695652 615 392.608695652 615 489 615 c 256,30,31
 535 615 535 615 563 591.5 c 128,-1,32
 591 568 591 568 591 527.5 c 128,-1,33
 591 487 591 487 561 446 c 128,-1,34
 531 405 531 405 480.5 371.5 c 0,35,36
 368.118058796 296.94960336 368.118058796 296.94960336 229 289 c 1,37,38
 183 143 183 143 126 90 c 1,39,40
 154.5 93 154.5 93 195 93 c 1,41,-1
 403 87 l 1,0,1
476.5 545 m 128,-1,43
 460 561 460 561 431.5 561 c 128,-1,44
 403 561 403 561 374 544.5 c 128,-1,45
 345 528 345 528 319.5 498 c 0,46,47
 267.413114754 436.721311475 267.413114754 436.721311475 243 335 c 1,48,49
 341.970994475 342.762430939 341.970994475 342.762430939 418.5 396 c 0,50,51
 493 447.826086957 493 447.826086957 493 506 c 0,52,42
 493 529 493 529 476.5 545 c 128,-1,43
EndSplineSet
EndChar

StartChar: M
Encoding: 77 77 38
Width: 847
Flags: W
LayerCount: 2
Fore
SplineSet
443 166.5 m 128,-1,1
 442 143 442 143 442 118.25 c 128,-1,2
 442 93.5 442 93.5 448 92 c 1,3,4
 453 92 453 92 459 102 c 0,5,6
 533.148594378 222.240963855 533.148594378 222.240963855 608.5 385 c 0,7,8
 621 412 621 412 638 450 c 128,-1,9
 655 488 655 488 674 526.5 c 128,-1,10
 693 565 693 565 706 583 c 128,-1,11
 719 601 719 601 728.5 604 c 128,-1,12
 738 607 738 607 758.5 607 c 128,-1,13
 779 607 779 607 796.5 589.5 c 128,-1,14
 814 572 814 572 814 544 c 0,15,16
 814 525.666666667 814 525.666666667 798 448.833333333 c 128,-1,17
 782 372 782 372 767 290.5 c 128,-1,18
 752 209 752 209 743.5 156 c 0,19,20
 729 65.5882352941 729 65.5882352941 729 29.7941176471 c 128,-1,21
 729 -6 729 -6 735 -28.5 c 128,-1,22
 741 -51 741 -51 754 -66 c 0,23,24
 777.118918919 -92.6756756757 777.118918919 -92.6756756757 837 -103 c 1,25,-1
 825 -140 l 1,26,27
 805 -142 805 -142 780.5 -142 c 128,-1,28
 756 -142 756 -142 731 -129 c 128,-1,29
 706 -116 706 -116 688.5 -92 c 0,30,31
 651 -40.5714285714 651 -40.5714285714 651 40 c 0,32,33
 651 131.642857143 651 131.642857143 696 347 c 0,34,35
 710 414 710 414 721 457 c 128,-1,36
 732 500 732 500 732 508 c 128,-1,37
 732 516 732 516 725 516 c 128,-1,38
 718 516 718 516 688.5 457 c 128,-1,39
 659 398 659 398 637.5 353.5 c 128,-1,40
 616 309 616 309 595 265.5 c 128,-1,41
 574 222 574 222 556 184.5 c 0,42,43
 490.449567723 47.9365994236 490.449567723 47.9365994236 455.5 4 c 0,44,45
 438 -18 438 -18 424.5 -18 c 128,-1,46
 411 -18 411 -18 395.5 -11 c 128,-1,47
 380 -4 380 -4 374.5 4.5 c 0,48,49
 364 20.7272727273 364 20.7272727273 364 109.363636364 c 0,50,51
 364 291.428571429 364 291.428571429 394 465 c 0,52,53
 404 517.857142857 404 517.857142857 404 525.928571429 c 128,-1,54
 404 534 404 534 396 534 c 256,55,56
 380.185185185 534 380.185185185 534 345 434 c 2,57,-1
 316 351 l 2,58,59
 222.239097085 81.815472277 222.239097085 81.815472277 117 -16.5 c 0,60,61
 79 -52 79 -52 36 -73 c 1,62,-1
 10 -18 l 1,63,64
 104.951871658 52.1818181818 104.951871658 52.1818181818 156 124.5 c 0,65,66
 208.956521739 199.52173913 208.956521739 199.52173913 274 371 c 2,67,-1
 308 462 l 2,68,69
 341 552 341 552 367 595 c 128,-1,70
 393 638 393 638 427 638 c 0,71,72
 480 638 480 638 480 574 c 0,73,74
 480 554 480 554 474 498.5 c 128,-1,75
 468 443 468 443 463.5 396.5 c 128,-1,76
 459 350 459 350 455 311 c 128,-1,77
 451 272 451 272 449 251 c 128,-1,78
 447 230 447 230 445.5 210 c 128,-1,0
 444 190 444 190 443 166.5 c 128,-1,1
EndSplineSet
EndChar

StartChar: N
Encoding: 78 78 39
Width: 764
Flags: W
LayerCount: 2
Fore
SplineSet
754 604 m 1,0,1
 640.891304348 151.565217391 640.891304348 151.565217391 533.5 26 c 0,2,3
 501 -12 501 -12 469.5 -12 c 128,-1,4
 438 -12 438 -12 423.5 10.5 c 128,-1,5
 409 33 409 33 409 74 c 128,-1,6
 409 115 409 115 411.5 155 c 128,-1,7
 414 195 414 195 417.5 241 c 128,-1,8
 421 287 421 287 425.5 334 c 128,-1,9
 430 381 430 381 434 423 c 0,10,11
 441.076923077 497.307692308 441.076923077 497.307692308 444 547 c 0,12,13
 444 559 444 559 435.5 559 c 128,-1,14
 427 559 427 559 416.5 541.5 c 128,-1,15
 406 524 406 524 395 500.5 c 128,-1,16
 384 477 384 477 374.5 453 c 128,-1,17
 365 429 365 429 350 395.5 c 128,-1,18
 335 362 335 362 312.5 313 c 128,-1,19
 290 264 290 264 266 220 c 0,20,21
 213.96460177 124.601769912 213.96460177 124.601769912 158 56 c 0,22,23
 125.536585366 17.6341463415 125.536585366 17.6341463415 64.5 -15.5 c 0,24,25
 47 -25 47 -25 32 -31 c 1,26,-1
 10 28 l 1,27,28
 130.419785459 77.9301549464 130.419785459 77.9301549464 232 260.5 c 0,29,30
 269 327 269 327 303.5 402 c 128,-1,31
 338 477 338 477 354 510.5 c 128,-1,32
 370 544 370 544 380 562.5 c 0,33,34
 414.914992272 627.092735703 414.914992272 627.092735703 433.457496136 642.046367852 c 128,-1,35
 452 657 452 657 473.5 657 c 128,-1,36
 495 657 495 657 508 641 c 128,-1,37
 521 625 521 625 521 597 c 0,38,39
 521 585.2 521 585.2 518 551.6 c 128,-1,40
 515 518 515 518 510.5 465.5 c 128,-1,41
 506 413 506 413 500.5 356 c 128,-1,42
 495 299 495 299 493 272.5 c 128,-1,43
 491 246 491 246 489.5 221 c 0,44,45
 486 162.666666667 486 162.666666667 486 130.833333333 c 0,46,47
 486 69 486 69 506 69 c 0,48,49
 525.773584906 69 525.773584906 69 554.5 141.5 c 0,50,51
 602.254237288 262.02259887 602.254237288 262.02259887 636.627118644 389.011299435 c 128,-1,52
 671 516 671 516 696 611 c 1,53,-1
 754 604 l 1,0,1
EndSplineSet
EndChar

StartChar: O
Encoding: 79 79 40
Width: 734
Flags: W
LayerCount: 2
Fore
SplineSet
724 444 m 1,0,1
 694.218181818 426.981818182 694.218181818 426.981818182 636.109090909 403.490909091 c 128,-1,2
 578 380 578 380 558 373 c 1,3,4
 532 309 532 309 488 243.5 c 128,-1,5
 444 178 444 178 390.5 125.5 c 0,6,7
 268.723809524 6 268.723809524 6 173 6 c 0,8,9
 118 6 118 6 84 45 c 128,-1,10
 50 84 50 84 50 144 c 128,-1,11
 50 204 50 204 77.5 273.5 c 128,-1,12
 105 343 105 343 150 410.5 c 128,-1,13
 195 478 195 478 252.5 535 c 128,-1,14
 310 592 310 592 370 623 c 1,15,16
 402.454545455 644 402.454545455 644 470 644 c 0,17,18
 522.421052632 644 522.421052632 644 554 604 c 0,19,20
 586 563.466666667 586 563.466666667 586 504 c 0,21,22
 586 459.8 586 459.8 578 431 c 1,23,24
 667.491017964 461.682634731 667.491017964 461.682634731 686.245508982 471.841317365 c 128,-1,25
 705 482 705 482 724 492 c 1,26,-1
 724 444 l 1,0,1
497 460 m 0,27,28
 497 559 497 559 412 559 c 0,29,30
 373 559 373 559 327 527 c 1,31,32
 294 492.058823529 294 492.058823529 294 461.529411765 c 128,-1,33
 294 431 294 431 325 412 c 128,-1,34
 356 393 356 393 414 393 c 0,35,36
 453.2 393 453.2 393 491 402 c 1,37,38
 497 432 497 432 497 460 c 0,27,28
223 421 m 1,39,40
 139 303 139 303 139 191 c 0,41,42
 139 148 139 148 159 120 c 128,-1,43
 179 92 179 92 224 92 c 0,44,45
 276.423076923 92 276.423076923 92 340 149 c 1,46,47
 441.667565745 254.817262306 441.667565745 254.817262306 477 351 c 1,48,49
 453.25 346 453.25 346 396.125 346 c 128,-1,50
 339 346 339 346 286.5 364 c 128,-1,51
 234 382 234 382 223 421 c 1,39,40
EndSplineSet
EndChar

StartChar: P
Encoding: 80 80 41
Width: 698
Flags: W
LayerCount: 2
Fore
SplineSet
304 483 m 1,0,1
 320 545 320 545 320 579.5 c 128,-1,2
 320 614 320 614 318 626 c 1,3,-1
 390 638 l 1,4,5
 390 607 390 607 382 559 c 1,6,-1
 381 550 l 1,7,8
 462.56969697 606.909090909 462.56969697 606.909090909 489.284848485 617.454545455 c 128,-1,9
 516 628 516 628 530.5 629.5 c 128,-1,10
 545 631 545 631 564 631 c 0,11,12
 605 631 605 631 626.5 603 c 128,-1,13
 648 575 648 575 648 525 c 128,-1,14
 648 475 648 475 631.5 423 c 128,-1,15
 615 371 615 371 586.5 320.5 c 128,-1,16
 558 270 558 270 520 225 c 128,-1,17
 482 180 482 180 440 145.5 c 0,18,19
 349.304347826 71 349.304347826 71 268 71 c 2,20,-1
 250.5 71 l 2,21,22
 242 71 242 71 222 73 c 1,23,24
 172.183246073 -33.4267015707 172.183246073 -33.4267015707 144.091623037 -70.2133507853 c 128,-1,25
 116 -107 116 -107 95 -122 c 128,-1,26
 74 -137 74 -137 51 -137 c 128,-1,27
 28 -137 28 -137 14 -119 c 128,-1,28
 0 -101 0 -101 0 -59 c 128,-1,29
 0 -17 0 -17 26.5 56 c 128,-1,30
 53 129 53 129 95.5 207 c 0,31,32
 188.444991055 377.581395349 188.444991055 377.581395349 304 483 c 1,0,1
180 131 m 1,33,34
 243.659574468 254.574468085 243.659574468 254.574468085 286 407 c 1,35,36
 194.887846082 295.007977475 194.887846082 295.007977475 133.5 170 c 0,37,38
 76 52.9090909091 76 52.9090909091 76 -10 c 0,39,40
 76 -29 76 -29 88 -29 c 0,41,42
 103.5 -29 103.5 -29 141 46 c 0,43,44
 151 66 151 66 159 85 c 1,45,46
 146 91 146 91 134 103 c 1,47,-1
 152 145 l 1,48,-1
 180 131 l 1,33,34
243 117 m 1,49,-1
 262 116 l 1,50,51
 308 116 308 116 355.5 142.5 c 128,-1,52
 403 169 403 169 435.5 208 c 128,-1,53
 468 247 468 247 489 282 c 128,-1,54
 510 317 510 317 525.5 352.5 c 0,55,56
 559 429.225806452 559 429.225806452 559 482 c 0,57,58
 559 511 559 511 543.5 528 c 128,-1,59
 528 545 528 545 501.5 545 c 0,60,61
 451.068965517 545 451.068965517 545 371 491 c 1,62,63
 353.88772298 359.80587618 353.88772298 359.80587618 243 117 c 1,49,-1
EndSplineSet
EndChar

StartChar: Q
Encoding: 81 81 42
Width: 705
Flags: W
LayerCount: 2
Fore
SplineSet
376 106 m 1,0,1
 264.4375 1 264.4375 1 173 1 c 0,2,3
 118 1 118 1 84 40 c 128,-1,4
 50 79 50 79 50 133 c 128,-1,5
 50 187 50 187 67.5 241.5 c 128,-1,6
 85 296 85 296 115.5 351.5 c 128,-1,7
 146 407 146 407 187 458.5 c 128,-1,8
 228 510 228 510 274.5 550.5 c 0,9,10
 376.111111111 639 376.111111111 639 470 639 c 0,11,12
 522.421052632 639 522.421052632 639 554 599 c 0,13,14
 586 558.466666667 586 558.466666667 586 508.733333333 c 128,-1,15
 586 459 586 459 573.5 414.5 c 128,-1,16
 561 370 561 370 538.5 324.5 c 0,17,18
 492.707317073 231.89701897 492.707317073 231.89701897 419 150 c 1,19,20
 457.4 95.6 457.4 95.6 475.7 77.3 c 0,21,22
 518 35 518 35 550 35 c 0,23,24
 579 35 579 35 610.5 59.5 c 0,25,26
 638.657142857 81.4 638.657142857 81.4 645 111 c 1,27,-1
 705 77 l 1,28,29
 633.842105263 -27 633.842105263 -27 551 -27 c 0,30,31
 497.222222222 -27 497.222222222 -27 455 11 c 0,32,33
 425.693069307 37.3762376238 425.693069307 37.3762376238 376 106 c 1,0,1
469 532 m 128,-1,35
 447 567 447 567 403.944444444 567 c 128,-1,36
 360.888888889 567 360.888888889 567 334 545 c 1,37,38
 264.199821588 496.52765388 264.199821588 496.52765388 208 387.5 c 0,39,40
 154 282.74 154 282.74 154 197 c 0,41,42
 154 139 154 139 180 110 c 1,43,44
 200 177 200 177 234 212 c 128,-1,45
 268 247 268 247 308 247 c 0,46,47
 330.727272727 247 330.727272727 247 341.363636364 240.5 c 0,48,49
 358.95049505 229.752475248 358.95049505 229.752475248 390 189 c 1,50,51
 458.37527115 283.422993492 458.37527115 283.422993492 483 385 c 0,52,53
 491 418 491 418 491 457.5 c 128,-1,34
 491 497 491 497 469 532 c 128,-1,35
240 81 m 1,54,55
 275.20754717 85.4009433962 275.20754717 85.4009433962 300.103773585 101.200471698 c 128,-1,56
 325 117 325 117 348 144 c 1,57,58
 337 157 337 157 325.5 167.5 c 128,-1,59
 314 178 314 178 300 178 c 128,-1,60
 286 178 286 178 278 176.5 c 128,-1,61
 270 175 270 175 260 166.5 c 0,62,63
 237.338709677 147.237903226 237.338709677 147.237903226 216 85 c 1,64,65
 226 81 226 81 240 81 c 1,54,55
EndSplineSet
EndChar

StartChar: R
Encoding: 82 82 43
Width: 675
Flags: W
LayerCount: 2
Fore
SplineSet
364 534 m 1,0,1
 497.518518519 637 497.518518519 637 586 637 c 0,2,3
 628 637 628 637 651.5 614.5 c 128,-1,4
 675 592 675 592 675 549 c 128,-1,5
 675 506 675 506 648 455.5 c 128,-1,6
 621 405 621 405 578.5 362 c 128,-1,7
 536 319 536 319 482 288.5 c 128,-1,8
 428 258 428 258 374 249 c 1,9,10
 381.436416185 105.848988439 381.436416185 105.848988439 427 17 c 0,11,12
 447 -22 447 -22 471.5 -42.5 c 128,-1,13
 496 -63 496 -63 520 -65 c 1,14,-1
 525 -112 l 1,15,16
 497 -117 497 -117 476 -117 c 0,17,18
 438 -117 438 -117 405.5 -80 c 128,-1,19
 373 -43 373 -43 348.5 12.5 c 0,20,21
 296.900869565 129.387826087 296.900869565 129.387826087 288 254 c 1,22,23
 238 124 238 124 193.5 65.5 c 128,-1,24
 149 7 149 7 102 7 c 0,25,26
 78 7 78 7 64 26.5 c 128,-1,27
 50 46 50 46 50 80 c 128,-1,28
 50 114 50 114 68 163 c 128,-1,29
 86 212 86 212 117.5 264 c 0,30,31
 189.135705905 382.255768479 189.135705905 382.255768479 279 453 c 1,32,33
 281 459 281 459 286 481.5 c 128,-1,34
 291 504 291 504 297 528.5 c 128,-1,35
 303 553 303 553 308 574 c 128,-1,36
 313 595 313 595 315 600 c 1,37,-1
 373 605 l 1,38,39
 373 588 373 588 364 534 c 1,0,1
202.5 203 m 0,40,41
 215 234 215 234 229.5 272 c 0,42,43
 256.813953488 343.581395349 256.813953488 343.581395349 266 384 c 1,44,45
 211.448501873 333.210674157 211.448501873 333.210674157 163.5 245.5 c 0,46,47
 118 162.268292683 118 162.268292683 118 122 c 0,48,49
 118 101 118 101 135 101 c 0,50,51
 161.370967742 101 161.370967742 101 202.5 203 c 0,40,41
297 283 m 1,52,53
 403.136363636 283 403.136363636 283 489.5 359 c 0,54,55
 527 392 527 392 549 431 c 128,-1,56
 571 470 571 470 571 500.5 c 0,57,58
 571 561 571 561 520 561 c 0,59,60
 470.428571429 561 470.428571429 561 378.5 495 c 0,61,62
 359 481 359 481 352 475 c 1,63,64
 318 343 318 343 297 283 c 1,52,53
EndSplineSet
EndChar

StartChar: S
Encoding: 83 83 44
Width: 667
Flags: W
LayerCount: 2
Fore
SplineSet
546 181 m 1,0,-1
 617 182 l 1,1,-1
 617 141 l 1,2,3
 607 143 607 143 588 143 c 128,-1,4
 569 143 569 143 553 141 c 1,5,6
 553 63.9710144928 553 63.9710144928 477.5 -17 c 0,7,8
 409.170403587 -90.2810164425 409.170403587 -90.2810164425 302.5 -142 c 0,9,10
 197.3125 -193 197.3125 -193 106 -193 c 0,11,12
 58 -193 58 -193 29 -169 c 128,-1,13
 0 -145 0 -145 0 -110 c 128,-1,14
 0 -75 0 -75 21.5 -43.5 c 128,-1,15
 43 -12 43 -12 78.5 17 c 128,-1,16
 114 46 114 46 160 72 c 128,-1,17
 206 98 206 98 255.5 118 c 0,18,19
 355.693729904 158.482315113 355.693729904 158.482315113 443 167 c 1,20,21
 432.223300971 182.087378641 432.223300971 182.087378641 416.611650485 190.54368932 c 0,22,23
 391.322580645 204.241935484 391.322580645 204.241935484 344.661290323 220.620967742 c 128,-1,24
 298 237 298 237 273 250.5 c 128,-1,25
 248 264 248 264 233.5 280 c 0,26,27
 207 309.24137931 207 309.24137931 207 347.620689655 c 128,-1,28
 207 386 207 386 222.5 418 c 128,-1,29
 238 450 238 450 264.5 481 c 128,-1,30
 291 512 291 512 324.5 540 c 128,-1,31
 358 568 358 568 394 589.5 c 0,32,33
 473.534883721 637 473.534883721 637 530 637 c 0,34,35
 556 637 556 637 573 618.5 c 128,-1,36
 590 600 590 600 590 575.5 c 128,-1,37
 590 551 590 551 575.5 522 c 128,-1,38
 561 493 561 493 537.5 463 c 0,39,40
 486.396825397 397.761904762 486.396825397 397.761904762 419 361 c 1,41,-1
 395 395 l 1,42,43
 432.529411765 413.764705882 432.529411765 413.764705882 463.5 458.5 c 0,44,45
 493 501.111111111 493 501.111111111 493 531.555555556 c 128,-1,46
 493 562 493 562 460 562 c 0,47,48
 413.32 562 413.32 562 353 504 c 0,49,50
 292 445.346153846 292 445.346153846 292 394 c 0,51,52
 292 360.05 292 360.05 305.5 344.525 c 128,-1,53
 319 329 319 329 338 318.5 c 128,-1,54
 357 308 357 308 394.5 292.5 c 128,-1,55
 432 277 432 277 460 263.5 c 128,-1,56
 488 250 488 250 505.5 237 c 0,57,58
 536.247311828 214.159139785 536.247311828 214.159139785 546 181 c 1,0,-1
117.5 -115 m 128,-1,60
 135 -128 135 -128 164 -128 c 128,-1,61
 193 -128 193 -128 225.5 -119.5 c 128,-1,62
 258 -111 258 -111 291 -95 c 128,-1,63
 324 -79 324 -79 355 -57.5 c 128,-1,64
 386 -36 386 -36 410 -10 c 0,65,66
 463 47.4166666667 463 47.4166666667 463 107 c 0,67,68
 463 114 463 114 460 128 c 1,69,70
 325.169611307 116.275618375 325.169611307 116.275618375 211.5 51 c 0,71,72
 161 22 161 22 130.5 -12.5 c 128,-1,73
 100 -47 100 -47 100 -74.5 c 128,-1,59
 100 -102 100 -102 117.5 -115 c 128,-1,60
EndSplineSet
EndChar

StartChar: T
Encoding: 84 84 45
Width: 610
Flags: W
LayerCount: 2
Fore
SplineSet
511 624 m 1,0,-1
 561 623 l 1,1,2
 614.875 623 614.875 623 649 636 c 0,3,4
 659 640 659 640 665.5 640 c 0,5,6
 680 640 680 640 680 624.5 c 128,-1,7
 680 609 680 609 668 597 c 128,-1,8
 656 585 656 585 635 575.5 c 0,9,10
 587.473684211 554 587.473684211 554 530 554 c 1,11,12
 462.801470588 490.338235294 462.801470588 490.338235294 414.400735294 332.169117647 c 128,-1,13
 366 174 366 174 298 89 c 128,-1,14
 230 4 230 4 134 4 c 0,15,16
 97.6 4 97.6 4 64 28 c 1,17,-1
 87 66 l 1,18,19
 95 62 95 62 103.5 59 c 128,-1,20
 112 56 112 56 114 55 c 2,21,-1
 128 53 l 2,22,23
 133 52 133 52 149.5 52 c 128,-1,24
 166 52 166 52 187.5 61.5 c 128,-1,25
 209 71 209 71 229.5 96.5 c 0,26,27
 273.189298044 150.845224396 273.189298044 150.845224396 316 283 c 0,28,29
 357.799761621 412.380214541 357.799761621 412.380214541 377.89988081 448.690107271 c 128,-1,30
 398 485 398 485 418 506.5 c 128,-1,31
 438 528 438 528 469 555 c 1,32,-1
 326 558 l 1,33,34
 107 558 107 558 107 462 c 0,35,36
 107 437 107 437 125.5 421.5 c 128,-1,37
 144 406 144 406 174 406 c 0,38,39
 208.714285714 406 208.714285714 406 233.357142857 417.5 c 128,-1,40
 258 429 258 429 278 440 c 1,41,-1
 293 414 l 1,42,43
 261 380 261 380 222.5 361.5 c 128,-1,44
 184 343 184 343 145 343 c 128,-1,45
 106 343 106 343 78 369 c 128,-1,46
 50 395 50 395 50 433 c 128,-1,47
 50 471 50 471 71 506.5 c 128,-1,48
 92 542 92 542 132 569.5 c 0,49,50
 221.454545455 631 221.454545455 631 367 631 c 2,51,-1
 380.5 631 l 2,52,53
 413 631 413 631 511 624 c 1,0,-1
EndSplineSet
EndChar

StartChar: U
Encoding: 85 85 46
Width: 741
Flags: W
LayerCount: 2
Fore
SplineSet
529 36 m 0,0,1
 553.782608696 36 553.782608696 36 583 78 c 1,2,-1
 615 52 l 1,3,4
 604 19 604 19 583.5 -1.5 c 0,5,6
 546 -39 546 -39 505.5 -39 c 128,-1,7
 465 -39 465 -39 436 6 c 128,-1,8
 407 51 407 51 398 136 c 1,9,10
 314.225235849 47.8160377358 314.225235849 47.8160377358 223.5 11 c 0,11,12
 189 -3 189 -3 159 -3 c 0,13,14
 110 -3 110 -3 80 32 c 128,-1,15
 50 67 50 67 50 116 c 128,-1,16
 50 165 50 165 66.5 216 c 128,-1,17
 83 267 83 267 110.5 319.5 c 128,-1,18
 138 372 138 372 175 424 c 128,-1,19
 212 476 212 476 253 521.5 c 0,20,21
 340.984036488 619.140820981 340.984036488 619.140820981 419 664 c 1,22,-1
 446 626 l 1,23,24
 328.625264644 535.453775582 328.625264644 535.453775582 240.5 407 c 0,25,26
 142 263.423728814 142 263.423728814 142 158 c 0,27,28
 142 119 142 119 160.5 97.5 c 128,-1,29
 179 76 179 76 205 76 c 128,-1,30
 231 76 231 76 256.5 88 c 128,-1,31
 282 100 282 100 309 117 c 0,32,33
 365.054347826 152.293478261 365.054347826 152.293478261 396 188 c 1,34,35
 405.058562555 338.976042591 405.058562555 338.976042591 488 475 c 0,36,37
 538.905797101 558.485507246 538.905797101 558.485507246 595.5 594.5 c 0,38,39
 623 612 623 612 646 612 c 0,40,41
 691 612 691 612 691 564 c 0,42,43
 691 509.2 691 509.2 614.5 388.5 c 0,44,45
 535.403361345 263.703081232 535.403361345 263.703081232 467 201 c 1,46,47
 465 189 465 189 465 173 c 128,-1,48
 465 157 465 157 469 133.5 c 128,-1,49
 473 110 473 110 481 88 c 0,50,51
 499.909090909 36 499.909090909 36 529 36 c 0,0,1
598 518 m 0,52,53
 565.434782609 518 565.434782609 518 525 440.5 c 0,54,55
 486.323076923 366.369230769 486.323076923 366.369230769 474 276 c 1,56,57
 568.395543175 388.094707521 568.395543175 388.094707521 601.5 466.5 c 0,58,59
 611 489 611 489 611 503.5 c 128,-1,60
 611 518 611 518 598 518 c 0,52,53
EndSplineSet
EndChar

StartChar: V
Encoding: 86 86 47
Width: 608
Flags: W
LayerCount: 2
Fore
SplineSet
123 643 m 1,0,1
 180 542.411764706 180 542.411764706 180 286 c 0,2,3
 180 189.5 180 189.5 177 152 c 1,4,5
 265 332 265 332 367.5 444 c 128,-1,6
 470 556 470 556 569 612 c 1,7,-1
 598 569 l 1,8,9
 494.752684873 501.573181958 494.752684873 501.573181958 380.5 358.5 c 0,10,11
 256.07175713 202.684452622 256.07175713 202.684452622 190 46 c 0,12,13
 176 13 176 13 166 2 c 128,-1,14
 156 -9 156 -9 136 -9 c 128,-1,15
 116 -9 116 -9 100.5 4 c 128,-1,16
 85 17 85 17 85 40.5 c 128,-1,17
 85 64 85 64 87.5 93 c 128,-1,18
 90 122 90 122 92.5 151 c 128,-1,19
 95 180 95 180 97.5 208 c 128,-1,20
 100 236 100 236 100 260 c 0,21,22
 100 485.5 100 485.5 50 623 c 1,23,-1
 123 643 l 1,0,1
EndSplineSet
EndChar

StartChar: W
Encoding: 87 87 48
Width: 829
Flags: W
LayerCount: 2
Fore
SplineSet
569 596 m 0,0,1
 569 583 569 583 563.5 567 c 128,-1,2
 558 551 558 551 547 517.5 c 128,-1,3
 536 484 536 484 521 426.5 c 128,-1,4
 506 369 506 369 495.5 316 c 0,5,6
 473 202.428571429 473 202.428571429 473 144.714285714 c 128,-1,7
 473 87 473 87 503 87 c 0,8,9
 523.125 87 523.125 87 557.0625 119.5 c 128,-1,10
 591 152 591 152 624.5 202.5 c 128,-1,11
 658 253 658 253 683.5 314.5 c 0,12,13
 740 450.764705882 740 450.764705882 740 587 c 2,14,-1
 740 603.5 l 2,15,16
 740 612 740 612 739 620 c 1,17,-1
 813 630 l 1,18,19
 819 603 819 603 819 559 c 128,-1,20
 819 515 819 515 801.5 451.5 c 128,-1,21
 784 388 784 388 755.5 325 c 128,-1,22
 727 262 727 262 690.5 204 c 128,-1,23
 654 146 654 146 616 102 c 0,24,25
 532.227272727 5 532.227272727 5 477 5 c 0,26,27
 432 5 432 5 410.5 38 c 128,-1,28
 389 71 389 71 389 143 c 0,29,30
 389 192.631578947 389 192.631578947 404.5 269.315789474 c 128,-1,31
 420 346 420 346 436 417 c 1,32,33
 334.091152815 271.975871314 334.091152815 271.975871314 258.045576408 175.487935657 c 0,34,35
 124.466101695 6 124.466101695 6 103.733050847 6 c 128,-1,36
 83 6 83 6 66.5 22 c 128,-1,37
 50 38 50 38 50 55 c 128,-1,38
 50 72 50 72 65 116 c 128,-1,39
 80 160 80 160 93.5 224.5 c 128,-1,40
 107 289 107 289 114.5 349 c 0,41,42
 126 441 126 441 126 581 c 2,43,-1
 126 612.5 l 2,44,45
 126 628 126 628 125 644 c 1,46,-1
 203 644 l 1,47,48
 209 614 209 614 209 565 c 128,-1,49
 209 516 209 516 204.5 464 c 128,-1,50
 200 412 200 412 192.5 355.5 c 0,51,52
 177.157360406 239.918781726 177.157360406 239.918781726 152 133 c 1,53,54
 170 156 170 156 184.5 174.5 c 128,-1,55
 199 193 199 193 214.5 214 c 128,-1,56
 230 235 230 235 249.5 261.5 c 128,-1,57
 269 288 269 288 297.5 327 c 128,-1,58
 326 366 326 366 365.5 421 c 128,-1,59
 405 476 405 476 440.5 525 c 128,-1,60
 476 574 476 574 486.5 586.5 c 128,-1,61
 497 599 497 599 506 606.5 c 0,62,63
 521 619 521 619 545 619 c 128,-1,64
 569 619 569 619 569 596 c 0,0,1
EndSplineSet
EndChar

StartChar: X
Encoding: 88 88 49
Width: 684
Flags: W
LayerCount: 2
Fore
SplineSet
472 -24 m 1,0,1
 395.317073171 54.7008985879 395.317073171 54.7008985879 313 228 c 1,2,3
 266 183 266 183 230 148 c 128,-1,4
 194 113 194 113 163.5 84 c 0,5,6
 101.326923077 24.8846153846 101.326923077 24.8846153846 43 -14 c 1,7,-1
 10 31 l 1,8,9
 24 46 24 46 51.5 68 c 128,-1,10
 79 90 79 90 116 121.5 c 0,11,12
 208.896279594 200.587373168 208.896279594 200.587373168 287 287 c 1,13,14
 221.304635762 461.092715232 221.304635762 461.092715232 195 597 c 1,15,-1
 271 611 l 1,16,17
 311.68 427.94 311.68 427.94 346 345 c 1,18,19
 424 422 424 422 494.5 496.5 c 128,-1,20
 565 571 565 571 632 640 c 1,21,-1
 674 596 l 1,22,23
 638.401315789 547.6875 638.401315789 547.6875 452 364.5 c 0,24,25
 423 336 423 336 401.5 314.5 c 2,26,-1
 371 284 l 1,27,28
 411.67027027 194.097297297 411.67027027 194.097297297 526 27 c 1,29,-1
 472 -24 l 1,0,1
EndSplineSet
EndChar

StartChar: Y
Encoding: 89 89 50
Width: 700
Flags: W
LayerCount: 2
Fore
SplineSet
405 609 m 1,0,1
 183 369.24 183 369.24 183 210 c 0,2,3
 183 165 183 165 202 141 c 128,-1,4
 221 117 221 117 257 117 c 0,5,6
 329 117 329 117 398 197 c 128,-1,7
 467 277 467 277 541 445 c 1,8,9
 581.961538462 540.576923077 581.961538462 540.576923077 603.5 553.5 c 0,10,11
 611 558 611 558 622 558 c 128,-1,12
 633 558 633 558 641.5 549 c 128,-1,13
 650 540 650 540 650 519.5 c 128,-1,14
 650 499 650 499 627.5 449 c 128,-1,15
 605 399 605 399 558 335 c 1,16,17
 494.333333333 207.666666667 494.333333333 207.666666667 429 7 c 1,18,19
 480.04 2.36 480.04 2.36 529 -16 c 1,20,-1
 519 -50 l 1,21,-1
 413 -35 l 1,22,23
 355 -177 355 -177 272.5 -249.5 c 128,-1,24
 190 -322 190 -322 71 -322 c 0,25,26
 9.29032258065 -322 9.29032258065 -322 -29.5 -289.5 c 0,27,28
 -70 -255.567567568 -70 -255.567567568 -70 -209.283783784 c 128,-1,29
 -70 -163 -70 -163 -37 -123 c 128,-1,30
 -4 -83 -4 -83 52 -54 c 0,31,32
 173.655172414 9 173.655172414 9 340 9 c 1,33,-1
 370 8 l 1,34,35
 384.526315789 56.4210526316 384.526315789 56.4210526316 403.763157895 106.210526316 c 128,-1,36
 423 156 423 156 428 166 c 1,37,38
 362.666666667 103.777777778 362.666666667 103.777777778 331.333333333 82.8888888889 c 0,39,40
 262.5 37 262.5 37 206.75 37 c 128,-1,41
 151 37 151 37 122 72 c 128,-1,42
 93 107 93 107 93 160 c 128,-1,43
 93 213 93 213 114.5 276 c 128,-1,44
 136 339 136 339 173.5 406.5 c 0,45,46
 261.281690141 564.507042254 261.281690141 564.507042254 365 646 c 1,47,-1
 405 609 l 1,0,1
58.5 -235.5 m 128,-1,49
 81 -253 81 -253 120.5 -253 c 128,-1,50
 160 -253 160 -253 197.5 -233 c 128,-1,51
 235 -213 235 -213 265 -181.5 c 0,52,53
 322.022587269 -121.626283368 322.022587269 -121.626283368 352 -34 c 1,54,55
 217.571428571 -34 217.571428571 -34 126.5 -79 c 0,56,57
 36 -123.717647059 36 -123.717647059 36 -190 c 0,58,48
 36 -218 36 -218 58.5 -235.5 c 128,-1,49
EndSplineSet
EndChar

StartChar: Z
Encoding: 90 90 51
Width: 698
Flags: W
LayerCount: 2
Fore
SplineSet
243 479 m 1,0,-1
 248 434 l 2,1,2
 248 426 248 426 242.5 419.5 c 128,-1,3
 237 413 237 413 228.5 413 c 128,-1,4
 220 413 220 413 209.5 422.5 c 128,-1,5
 199 432 199 432 190.5 446 c 0,6,7
 171 478.117647059 171 478.117647059 171 510.058823529 c 128,-1,8
 171 542 171 542 192 563 c 128,-1,9
 213 584 213 584 252 595.5 c 0,10,11
 318.130434783 615 318.130434783 615 474 615 c 0,12,13
 587.909090909 615 587.909090909 615 610.954545455 608.5 c 128,-1,14
 634 602 634 602 641 590.5 c 128,-1,15
 648 579 648 579 648 560.5 c 128,-1,16
 648 542 648 542 630.5 520 c 128,-1,17
 613 498 613 498 566.5 454.5 c 128,-1,18
 520 411 520 411 476 375 c 128,-1,19
 432 339 432 339 390 303.5 c 0,20,21
 273.545454545 205.068181818 273.545454545 205.068181818 230.772727273 160.534090909 c 128,-1,22
 188 116 188 116 173 99.5 c 128,-1,23
 158 83 158 83 146 65 c 1,24,25
 178 63 178 63 200 63 c 0,26,27
 332 63 332 63 393.5 77.5 c 128,-1,28
 455 92 455 92 455 130 c 1,29,-1
 450 175 l 2,30,31
 450 183 450 183 455.5 189.5 c 128,-1,32
 461 196 461 196 469.5 196 c 128,-1,33
 478 196 478 196 488.5 186.5 c 128,-1,34
 499 177 499 177 507.5 162.5 c 0,35,36
 527 129.235294118 527 129.235294118 527 98.1176470588 c 128,-1,37
 527 67 527 67 506 46 c 128,-1,38
 485 25 485 25 446 13.5 c 0,39,40
 379.869565217 -6 379.869565217 -6 224 -6 c 0,41,42
 110.090909091 -6 110.090909091 -6 87.0454545455 0.5 c 128,-1,43
 64 7 64 7 57 18.5 c 128,-1,44
 50 30 50 30 50 47.5 c 128,-1,45
 50 65 50 65 73.5 93.5 c 128,-1,46
 97 122 97 122 135 158 c 128,-1,47
 173 194 173 194 220.5 235.5 c 128,-1,48
 268 277 268 277 316.5 318 c 0,49,50
 481.716304348 457.667391304 481.716304348 457.667391304 525.5 509 c 0,51,52
 540 526 540 526 552 544 c 1,53,54
 520 546 520 546 498 546 c 0,55,56
 366 546 366 546 304.5 531.5 c 128,-1,57
 243 517 243 517 243 479 c 1,0,-1
EndSplineSet
EndChar

StartChar: a
Encoding: 97 97 52
Width: 509
Flags: W
LayerCount: 2
Fore
SplineSet
434 260 m 1,0,1
 372 136 372 136 372 101 c 256,2,3
 372 88 372 88 381 78 c 128,-1,4
 390 68 390 68 403 68 c 128,-1,5
 416 68 416 68 426 76 c 128,-1,6
 436 84 436 84 459 101 c 1,7,-1
 482 84 l 1,8,9
 467.385964912 52.6842105263 467.385964912 52.6842105263 431 27 c 0,10,11
 392.75 -1.7763568394e-15 392.75 -1.7763568394e-15 362 0 c 0,12,13
 303 0 303 0 303 62 c 0,14,15
 303 92.4285714286 303 92.4285714286 318 131 c 1,16,-1
 281 93 l 2,17,18
 205.89415656 15.3042998897 205.89415656 15.3042998897 143.5 3.5 c 0,19,20
 125 0 125 0 108 0 c 0,21,22
 72 0 72 0 52.5 21.5 c 128,-1,23
 33 43 33 43 33 89 c 128,-1,24
 33 135 33 135 65 187.5 c 128,-1,25
 97 240 97 240 148.5 281 c 128,-1,26
 200 322 200 322 264 348 c 128,-1,27
 328 374 328 374 393 375 c 1,28,-1
 395 342 l 1,29,-1
 353 333 l 2,30,31
 261.970027248 312.771117166 261.970027248 312.771117166 193 253.5 c 0,32,33
 123 193.34375 123 193.34375 123 131 c 0,34,35
 123 102 123 102 136.5 88 c 128,-1,36
 150 74 150 74 171.5 74 c 128,-1,37
 193 74 193 74 222 91 c 128,-1,38
 251 108 251 108 281.5 136.5 c 0,39,40
 347.646457268 198.30898466 347.646457268 198.30898466 392 285 c 1,41,-1
 434 260 l 1,0,1
EndSplineSet
EndChar

StartChar: c
Encoding: 99 99 53
Width: 405
Flags: W
LayerCount: 2
Fore
SplineSet
183 74 m 0,0,1
 227.769230769 74 227.769230769 74 301 142 c 1,2,-1
 325 122 l 1,3,4
 289.078947368 39.1052631579 289.078947368 39.1052631579 195 9 c 0,5,6
 170 1 170 1 150 1 c 0,7,8
 94 1 94 1 62.5 32.5 c 128,-1,9
 31 64 31 64 31 110 c 256,10,11
 31 156 31 156 59.5 204 c 128,-1,12
 88 252 88 252 133 291 c 128,-1,13
 178 330 178 330 234 354.5 c 128,-1,14
 290 379 290 379 346 379 c 0,15,16
 360 379 360 379 376 377 c 1,17,-1
 373 338 l 1,18,19
 262.47310789 332.283091787 262.47310789 332.283091787 187.5 268.5 c 0,20,21
 118 209.373134328 118 209.373134328 118 139 c 0,22,23
 118 110 118 110 136 92 c 128,-1,24
 154 74 154 74 183 74 c 0,0,1
EndSplineSet
EndChar

StartChar: zero
Encoding: 48 48 54
Width: 492
Flags: W
LayerCount: 2
Fore
SplineSet
137 4 m 128,-1,1
 67 4 67 4 39 42 c 128,-1,2
 11 80 11 80 11 129.5 c 128,-1,3
 11 179 11 179 25 221 c 128,-1,4
 39 263 39 263 63 302 c 128,-1,5
 87 341 87 341 120 375.5 c 128,-1,6
 153 410 153 410 190 436 c 0,7,8
 269.692307692 492 269.692307692 492 348 492 c 0,9,10
 405 492 405 492 438 460 c 128,-1,11
 471 428 471 428 471 367.24 c 128,-1,12
 471 306.48 471 306.48 417.930232558 218.384186047 c 128,-1,13
 364.860465116 130.288372093 364.860465116 130.288372093 285.930232558 67.1441860465 c 128,-1,0
 207 4 207 4 137 4 c 128,-1,1
372.5 257.5 m 128,-1,15
 391 307 391 307 391 351 c 128,-1,16
 391 395 391 395 368 421.5 c 128,-1,17
 345 448 345 448 307.5 448 c 128,-1,18
 270 448 270 448 233 422.5 c 128,-1,19
 196 397 196 397 165.5 357.5 c 128,-1,20
 135 318 135 318 115.5 270 c 128,-1,21
 96 222 96 222 96 175.5 c 128,-1,22
 96 129 96 129 118.5 96.5 c 128,-1,23
 141 64 141 64 181 64 c 128,-1,24
 221 64 221 64 258 93 c 128,-1,25
 295 122 295 122 324.5 165 c 128,-1,14
 354 208 354 208 372.5 257.5 c 128,-1,15
EndSplineSet
EndChar

StartChar: one
Encoding: 49 49 55
Width: 258
Flags: W
LayerCount: 2
Fore
SplineSet
129 386 m 1,0,1
 89.625 371 89.625 371 66.3125 371 c 128,-1,2
 43 371 43 371 22 379 c 1,3,-1
 44 430 l 1,4,5
 56 427 56 427 68 427 c 0,6,7
 101 427 101 427 133.5 447 c 128,-1,8
 166 467 166 467 184 492 c 128,-1,9
 202 517 202 517 214 517 c 128,-1,10
 226 517 226 517 239.5 508.5 c 128,-1,11
 253 500 253 500 253 488.5 c 128,-1,12
 253 477 253 477 251.5 473 c 128,-1,13
 250 469 250 469 248.5 463.5 c 128,-1,14
 247 458 247 458 242.5 449 c 2,15,-1
 230.5 425 l 2,16,17
 223 410 223 410 209 384 c 128,-1,18
 195 358 195 358 174 317.5 c 128,-1,19
 153 277 153 277 133.5 228.5 c 0,20,21
 88.4727272727 116.509090909 88.4727272727 116.509090909 83 18 c 1,22,-1
 19 8 l 1,23,24
 13 26 13 26 13 48.5 c 128,-1,25
 13 71 13 71 15 90 c 128,-1,26
 17 109 17 109 28 145.5 c 0,27,28
 54.5810473815 233.70074813 54.5810473815 233.70074813 129 386 c 1,0,1
EndSplineSet
EndChar

StartChar: two
Encoding: 50 50 56
Width: 453
Flags: W
LayerCount: 2
Fore
SplineSet
306 419 m 0,0,1
 242.384615385 419 242.384615385 419 139 335 c 1,2,-1
 122 368 l 1,3,4
 163.219512195 417.070847851 163.219512195 417.070847851 233.5 455 c 0,5,6
 302.058823529 492 302.058823529 492 349.029411765 492 c 128,-1,7
 396 492 396 492 422.5 467 c 128,-1,8
 449 442 449 442 449 400 c 0,9,10
 449 350.425 449 350.425 412 312.5 c 0,11,12
 373.904761905 273.452380952 373.904761905 273.452380952 285.452380952 228.726190476 c 128,-1,13
 197 184 197 184 146.5 148 c 128,-1,14
 96 112 96 112 58 80 c 1,15,16
 187.5 101 187.5 101 313 101 c 2,17,-1
 333.5 101 l 2,18,19
 344 101 344 101 356 99 c 1,20,-1
 356 36 l 1,21,22
 338 33 338 33 331 33 c 0,23,24
 252.4 33 252.4 33 161.2 23.5 c 128,-1,25
 70 14 70 14 59.5 12.5 c 128,-1,26
 49 11 49 11 41.5 11 c 128,-1,27
 34 11 34 11 27 17 c 128,-1,28
 20 23 20 23 14.5 32 c 0,29,30
 3 50.8181818182 3 50.8181818182 3 71 c 1,31,32
 10.7894736842 102.157894737 10.7894736842 102.157894737 76 156.5 c 0,33,34
 155.5 222.75 155.5 222.75 266 278 c 1,35,36
 355 329.916666667 355 329.916666667 355 379 c 0,37,38
 355 397 355 397 342 408 c 128,-1,39
 329 419 329 419 306 419 c 0,0,1
EndSplineSet
EndChar

StartChar: three
Encoding: 51 51 57
Width: 447
Flags: W
LayerCount: 2
Fore
SplineSet
447 398.318181818 m 0,0,1
 447 375.636363636 447 375.636363636 427.5 350.818181818 c 128,-1,2
 408 326 408 326 385 309 c 0,3,4
 343.535211268 278.352112676 343.535211268 278.352112676 289 261 c 1,5,6
 324 241 324 241 348.5 219 c 128,-1,7
 373 197 373 197 373 165.5 c 128,-1,8
 373 134 373 134 352 104 c 128,-1,9
 331 74 331 74 297.5 51.5 c 0,10,11
 225.288888889 3 225.288888889 3 140 3 c 0,12,13
 73.4375 3 73.4375 3 24.5 30 c 0,14,15
 10 38 10 38 2 47 c 1,16,-1
 47 89 l 1,17,18
 61 75 61 75 84.5 64 c 128,-1,19
 108 53 108 53 130.5 53 c 128,-1,20
 153 53 153 53 181 61 c 128,-1,21
 209 69 209 69 231.5 82.5 c 0,22,23
 281 112.2 281 112.2 281 157 c 0,24,25
 281 183 281 183 256.5 203 c 128,-1,26
 232 223 232 223 207.5 229.5 c 128,-1,27
 183 236 183 236 176.5 241.5 c 128,-1,28
 170 247 170 247 170 257 c 256,29,30
 170 267 170 267 183.5 274 c 128,-1,31
 197 281 197 281 216.5 287.5 c 128,-1,32
 236 294 236 294 259.5 300.5 c 128,-1,33
 283 307 283 307 302.5 316 c 0,34,35
 349 337.461538462 349 337.461538462 349 371 c 0,36,37
 349 390 349 390 333.5 402.5 c 128,-1,38
 318 415 318 415 295 415 c 128,-1,39
 272 415 272 415 224.5 390.5 c 128,-1,40
 177 366 177 366 126 327 c 1,41,-1
 110 360 l 1,42,43
 151.678688525 409.617486339 151.678688525 409.617486339 225 448.5 c 0,44,45
 295.714285714 486 295.714285714 486 345 486 c 0,46,47
 383.863636364 486 383.863636364 486 415.5 462 c 128,-1,48
 447 438.103448276 447 438.103448276 447 398.318181818 c 0,0,1
EndSplineSet
EndChar

StartChar: four
Encoding: 52 52 58
Width: 426
Flags: W
LayerCount: 2
Fore
SplineSet
312 244 m 1,0,1
 338 246 338 246 367 246 c 128,-1,2
 396 246 396 246 408 244 c 1,3,4
 408 229.5 408 229.5 400.5 203.25 c 128,-1,5
 393 177 393 177 391 176 c 2,6,-1
 326 175 l 1,7,-1
 283 174 l 1,8,9
 276 162 276 162 263 121 c 128,-1,10
 250 80 250 80 241 17 c 1,11,-1
 183 8 l 1,12,13
 179 21 179 21 179 41 c 128,-1,14
 179 61 179 61 183.5 83 c 128,-1,15
 188 105 188 105 193 123.5 c 128,-1,16
 198 142 198 142 203 154 c 128,-1,17
 208 166 208 166 208 168 c 1,18,19
 139 162 139 162 105 154.5 c 128,-1,20
 71 147 71 147 63 147 c 0,21,22
 38 147 38 147 26.5 165 c 128,-1,23
 15 183 15 183 15 196.5 c 128,-1,24
 15 210 15 210 16 214 c 0,25,26
 21.5375494071 245.37944664 21.5375494071 245.37944664 102.5 319.5 c 0,27,28
 175.808722265 386.613618975 175.808722265 386.613618975 237.904361132 428.806809487 c 0,29,30
 350.037735849 505 350.037735849 505 377 505 c 0,31,32
 394 505 394 505 404.5 494 c 128,-1,33
 415 483 415 483 415 471 c 128,-1,34
 415 459 415 459 412 448 c 128,-1,35
 409 437 409 437 390.5 408 c 128,-1,36
 372 379 372 379 357.5 349 c 128,-1,37
 343 319 343 319 332.5 295.5 c 128,-1,38
 322 272 322 272 317 258 c 2,39,-1
 312 244 l 1,0,1
78 214 m 1,40,41
 186.263157895 233.105263158 186.263157895 233.105263158 233 237 c 1,42,43
 256.518518519 302.851851852 256.518518519 302.851851852 327 431 c 1,44,45
 265.077306733 399.039900249 265.077306733 399.039900249 186 329 c 0,46,47
 106.208333333 258.327380952 106.208333333 258.327380952 78 214 c 1,40,41
EndSplineSet
EndChar

StartChar: five
Encoding: 53 53 59
Width: 424
Flags: W
LayerCount: 2
Fore
SplineSet
160 282 m 1,0,1
 181 285 181 285 211.5 285 c 128,-1,2
 242 285 242 285 271.5 276.5 c 128,-1,3
 301 268 301 268 323.5 252.5 c 0,4,5
 372 219.088888889 372 219.088888889 372 170 c 0,6,7
 372 101.954545455 372 101.954545455 298 51.5 c 0,8,9
 226.866666667 3 226.866666667 3 138 3 c 0,10,11
 43.5652173913 3 43.5652173913 3 6 51 c 1,12,-1
 48 89 l 1,13,14
 66.8235294118 67.0392156863 66.8235294118 67.0392156863 116.5 56 c 0,15,16
 130 53 130 53 149.5 53 c 128,-1,17
 169 53 169 53 194.5 61.5 c 128,-1,18
 220 70 220 70 239.5 85 c 0,19,20
 282 117.692307692 282 117.692307692 282 163 c 0,21,22
 282 195 282 195 245.5 216 c 128,-1,23
 209 237 209 237 161.5 237 c 128,-1,24
 114 237 114 237 102 248 c 128,-1,25
 90 259 90 259 90 270.5 c 128,-1,26
 90 282 90 282 97 297.5 c 128,-1,27
 104 313 104 313 114 331 c 128,-1,28
 124 349 124 349 134.5 366.5 c 128,-1,29
 145 384 145 384 152.5 396.5 c 128,-1,30
 160 409 160 409 167 419.5 c 128,-1,31
 174 430 174 430 182 438.5 c 0,32,33
 223.882352941 483 223.882352941 483 410 483 c 2,34,-1
 457 483 l 1,35,-1
 453 422 l 1,36,37
 443 423 443 423 433.5 423 c 2,38,-1
 407 423 l 2,39,40
 294 423 294 423 255 409.5 c 0,41,42
 242 405 242 405 231 402 c 1,43,44
 207.576923077 370.769230769 207.576923077 370.769230769 185.288461538 330.884615385 c 128,-1,45
 163 291 163 291 160 282 c 1,0,1
EndSplineSet
EndChar

StartChar: six
Encoding: 54 54 60
Width: 441
Flags: W
LayerCount: 2
Fore
SplineSet
228.5 314 m 128,-1,1
 278 328 278 328 318 328 c 128,-1,2
 358 328 358 328 383.5 304.5 c 128,-1,3
 409 281 409 281 409 241 c 128,-1,4
 409 201 409 201 382 158.5 c 128,-1,5
 355 116 355 116 315.5 82 c 128,-1,6
 276 48 276 48 230 26.5 c 128,-1,7
 184 5 184 5 147 5 c 0,8,9
 87 5 87 5 52.5 36 c 128,-1,10
 18 67 18 67 18 139.5 c 128,-1,11
 18 212 18 212 53.5 280 c 128,-1,12
 89 348 89 348 143 397 c 128,-1,13
 197 446 197 446 261 473.5 c 128,-1,14
 325 501 325 501 381 501 c 1,15,-1
 386 461 l 1,16,17
 350 453 350 453 313.5 442.5 c 128,-1,18
 277 432 277 432 242.5 410.5 c 0,19,20
 166.233267717 362.971456693 166.233267717 362.971456693 118 254 c 1,21,0
 179 300 179 300 228.5 314 c 128,-1,1
128.5 88 m 128,-1,23
 153 60 153 60 183 60 c 128,-1,24
 213 60 213 60 238.5 72.5 c 128,-1,25
 264 85 264 85 284.5 104.5 c 0,26,27
 330 147.780487805 330 147.780487805 330 199 c 0,28,29
 330 228 330 228 309.5 243.5 c 128,-1,30
 289 259 289 259 267 259 c 128,-1,31
 245 259 245 259 221.5 254 c 128,-1,32
 198 249 198 249 173 239.5 c 0,33,34
 112.502164502 216.510822511 112.502164502 216.510822511 107 189 c 256,35,36
 104 174 104 174 104 161 c 0,37,22
 104 116 104 116 128.5 88 c 128,-1,23
EndSplineSet
EndChar

StartChar: seven
Encoding: 55 55 61
Width: 351
Flags: W
LayerCount: 2
Fore
SplineSet
345.166666667 496 m 0,0,1
 410 496 410 496 410 453 c 0,2,3
 410 441 410 441 403.5 432 c 128,-1,4
 397 423 397 423 369 401.5 c 128,-1,5
 341 380 341 380 294 337.5 c 128,-1,6
 247 295 247 295 205 243 c 0,7,8
 106.08121411 120.529122231 106.08121411 120.529122231 99 9 c 1,9,-1
 26 2 l 1,10,11
 27 35 27 35 42 88 c 128,-1,12
 57 141 57 141 89.5 201 c 0,13,14
 167.37167382 344.763090129 167.37167382 344.763090129 300 429 c 1,15,16
 229.857142857 429 229.857142857 429 104.5 402 c 0,17,18
 72 395 72 395 46 388 c 1,19,-1
 34 452 l 1,20,21
 67.2362204724 466.244094488 67.2362204724 466.244094488 225.5 487 c 0,22,23
 294.125 496 294.125 496 345.166666667 496 c 0,0,1
EndSplineSet
EndChar

StartChar: eight
Encoding: 56 56 62
Width: 476
Flags: W
LayerCount: 2
Fore
SplineSet
354 294 m 1,0,1
 411 271.2 411 271.2 411 222.6 c 128,-1,2
 411 174 411 174 385 136 c 128,-1,3
 359 98 359 98 320 70 c 128,-1,4
 281 42 281 42 235 25.5 c 128,-1,5
 189 9 189 9 149 9 c 0,6,7
 86 9 86 9 50 41.5 c 128,-1,8
 14 74 14 74 14 125 c 0,9,10
 14 180.843137255 14 180.843137255 67.5 227 c 0,11,12
 120.382054993 272.623733719 120.382054993 272.623733719 208 293 c 1,13,14
 179.140350877 317.736842105 179.140350877 317.736842105 171.070175439 332.868421053 c 128,-1,15
 163 348 163 348 163 370.5 c 128,-1,16
 163 393 163 393 177 415.5 c 128,-1,17
 191 438 191 438 215 454.5 c 0,18,19
 268.090909091 491 268.090909091 491 333.545454545 491 c 128,-1,20
 399 491 399 491 435 465.5 c 128,-1,21
 471 440 471 440 471 399 c 0,22,23
 471 330 471 330 354 294 c 1,0,1
303 322 m 1,24,25
 338 332 338 332 359 354.5 c 128,-1,26
 380 377 380 377 380 401 c 0,27,28
 380 446 380 446 327 446 c 0,29,30
 295 446 295 446 274 429.5 c 128,-1,31
 253 413 253 413 253 390.5 c 0,32,33
 253 344.916666667 253 344.916666667 303 322 c 1,24,25
250 266 m 1,34,35
 187.576564581 252.344873502 187.576564581 252.344873502 144.5 217 c 0,36,37
 102 182.128205128 102 182.128205128 102 145.564102564 c 128,-1,38
 102 109 102 109 129 85 c 128,-1,39
 156 61 156 61 188 61 c 128,-1,40
 220 61 220 61 243 72.5 c 128,-1,41
 266 84 266 84 284 102 c 0,42,43
 325 143 325 143 325 187 c 0,44,45
 325 211 325 211 308.5 234.5 c 128,-1,46
 292 258 292 258 250 266 c 1,34,35
EndSplineSet
EndChar

StartChar: nine
Encoding: 57 57 63
Width: 405
Flags: W
LayerCount: 2
Fore
SplineSet
223.5 198 m 128,-1,1
 174 184 174 184 134 184 c 128,-1,2
 94 184 94 184 68.5 207.5 c 128,-1,3
 43 231 43 231 43 271 c 128,-1,4
 43 311 43 311 69.5 352.5 c 128,-1,5
 96 394 96 394 135 426 c 128,-1,6
 174 458 174 458 219 478 c 128,-1,7
 264 498 264 498 313 498 c 128,-1,8
 362 498 362 498 398 471.5 c 128,-1,9
 434 445 434 445 434 373 c 128,-1,10
 434 301 434 301 396 232 c 128,-1,11
 358 163 358 163 299.5 112.5 c 128,-1,12
 241 62 241 62 171.5 33.5 c 128,-1,13
 102 5 102 5 39 5 c 2,14,-1
 30 5 l 1,15,-1
 25 45 l 1,16,17
 65 54 65 54 108.5 66 c 128,-1,18
 152 78 152 78 193 101 c 0,19,20
 289.400644468 155.078410311 289.400644468 155.078410311 334 258 c 1,21,0
 273 212 273 212 223.5 198 c 128,-1,1
332 431 m 128,-1,23
 311 450 311 450 283.5 450 c 128,-1,24
 256 450 256 450 228 438 c 128,-1,25
 200 426 200 426 176.5 406.5 c 0,26,27
 122 361.276595745 122 361.276595745 122 313 c 0,28,29
 122 284 122 284 142.5 268.5 c 128,-1,30
 163 253 163 253 191.5 253 c 128,-1,31
 220 253 220 253 247.5 262 c 128,-1,32
 275 271 275 271 298.5 288 c 0,33,34
 353 327.425531915 353 327.425531915 353 380 c 0,35,22
 353 412 353 412 332 431 c 128,-1,23
EndSplineSet
EndChar

StartChar: question
Encoding: 63 63 64
Width: 461
Flags: W
LayerCount: 2
Fore
SplineSet
287 616.5 m 128,-1,1
 334 634 334 634 377.5 634 c 128,-1,2
 421 634 421 634 451.5 607.5 c 128,-1,3
 482 581 482 581 482 540.5 c 128,-1,4
 482 500 482 500 461 465.5 c 128,-1,5
 440 431 440 431 392 391 c 2,6,-1
 327 336 l 2,7,8
 287 302 287 302 251.5 265.5 c 128,-1,9
 216 229 216 229 193 182 c 0,10,11
 185.5 168.5 185.5 168.5 178 156 c 1,12,-1
 140 173 l 1,13,14
 160 244 160 244 303 390 c 0,15,16
 351.666666667 438.666666667 351.666666667 438.666666667 362.333333333 455.333333333 c 0,17,18
 379 481.375 379 481.375 379 503.1875 c 128,-1,19
 379 525 379 525 366.5 537 c 128,-1,20
 354 549 354 549 328.5 549 c 128,-1,21
 303 549 303 549 274 540 c 128,-1,22
 245 531 245 531 219 511.5 c 0,23,24
 161 468 161 468 139 391 c 1,25,-1
 101 396 l 1,26,27
 101 448 101 448 129.5 492 c 128,-1,28
 158 536 158 536 199 567.5 c 128,-1,0
 240 599 240 599 287 616.5 c 128,-1,1
93.5 76 m 128,-1,30
 107 88 107 88 126.5 88 c 128,-1,31
 146 88 146 88 157 78.5 c 128,-1,32
 168 69 168 69 168 51.5 c 128,-1,33
 168 34 168 34 154.5 21 c 128,-1,34
 141 8 141 8 121 8 c 0,35,36
 80 8 80 8 80 45 c 0,37,29
 80 64 80 64 93.5 76 c 128,-1,30
EndSplineSet
EndChar

StartChar: uni0410
Encoding: 1040 1040 65
Width: 955
Flags: W
LayerCount: 2
Fore
SplineSet
803 307 m 1,0,1
 855 307 855 307 891 298 c 1,2,-1
 886 238 l 1,3,4
 869 240 869 240 857 240 c 0,5,6
 836.25 240 836.25 240 821.125 240 c 128,-1,7
 806 240 806 240 792 239 c 1,8,9
 776.5 115 776.5 115 774 0 c 1,10,-1
 704 0 l 1,11,12
 698 24 698 24 698 66 c 128,-1,13
 698 108 698 108 699.5 131 c 128,-1,14
 701 154 701 154 703.5 175.5 c 128,-1,15
 706 197 706 197 708 215 c 2,16,-1
 711 242 l 1,17,18
 700 243 700 243 684.5 243 c 0,19,20
 646.75 243 646.75 243 617.375 243 c 128,-1,21
 588 243 588 243 573 241 c 1,22,23
 451.518987342 79.0253164557 451.518987342 79.0253164557 366.5 10 c 0,24,25
 260.573170732 -76 260.573170732 -76 163 -76 c 0,26,27
 116 -76 116 -76 83 -48 c 128,-1,28
 50 -20 50 -20 50 27.5 c 128,-1,29
 50 75 50 75 86 117.5 c 128,-1,30
 122 160 122 160 187.5 195.5 c 0,31,32
 327.299773389 271.269342829 327.299773389 271.269342829 547 297 c 1,33,34
 606.066929134 382.318897638 606.066929134 382.318897638 705.5 489.5 c 0,35,36
 744 531 744 531 784 566 c 1,37,38
 812 632 812 632 830 661.5 c 128,-1,39
 848 691 848 691 865.5 691 c 128,-1,40
 883 691 883 691 894 678 c 128,-1,41
 905 665 905 665 905 644.5 c 128,-1,42
 905 624 905 624 889 596 c 128,-1,43
 873 568 873 568 860 534.5 c 128,-1,44
 847 501 847 501 836 463 c 0,45,46
 810.247058824 374.035294118 810.247058824 374.035294118 803 307 c 1,0,1
219 7 m 0,47,48
 296.95 7 296.95 7 381 89 c 128,-1,49
 465.17721519 170.962025316 465.17721519 170.962025316 506 239 c 1,50,51
 338.777777778 227.851851852 338.777777778 227.851851852 240.5 172.5 c 0,52,53
 197 148 197 148 176 119 c 128,-1,54
 155 90 155 90 155 63.5 c 128,-1,55
 155 37 155 37 172.5 22 c 128,-1,56
 190 7 190 7 219 7 c 0,47,48
621 303 m 1,57,58
 685 307 685 307 723 307 c 1,59,60
 724 315 724 315 728.5 334.5 c 128,-1,61
 733 354 733 354 738 376.5 c 128,-1,62
 743 399 743 399 747.5 420 c 128,-1,63
 752 441 752 441 755 453 c 1,64,65
 732 430 732 430 717 415.5 c 128,-1,66
 702 401 702 401 689 386.5 c 0,67,68
 664.418181818 359.081818182 664.418181818 359.081818182 621 303 c 1,57,58
EndSplineSet
EndChar

StartChar: uni0412
Encoding: 1042 1042 66
Width: 707
Flags: W
LayerCount: 2
Fore
SplineSet
656 142 m 1,0,-1
 601 140 l 1,1,2
 589.106412005 70.6207366985 589.106412005 70.6207366985 568.553206003 37.3103683492 c 128,-1,3
 548 4 548 4 527 -18 c 128,-1,4
 506 -40 506 -40 475 -65 c 128,-1,5
 444 -90 444 -90 405 -112 c 128,-1,6
 366 -134 366 -134 325.5 -149.5 c 0,7,8
 237.967741935 -183 237.967741935 -183 179.983870968 -183 c 128,-1,9
 122 -183 122 -183 92.5 -159.5 c 128,-1,10
 63 -136 63 -136 63 -102 c 128,-1,11
 63 -68 63 -68 81.5 -38 c 128,-1,12
 100 -8 100 -8 132 19.5 c 128,-1,13
 164 47 164 47 206.5 71.5 c 128,-1,14
 249 96 249 96 296.5 115.5 c 0,15,16
 394.102739726 155.568493151 394.102739726 155.568493151 491 170 c 1,17,18
 477.077777778 193.866666667 477.077777778 193.866666667 454.038888889 206.433333333 c 0,19,20
 422.261682243 223.76635514 422.261682243 223.76635514 342 247 c 1,21,22
 302 257 302 257 302 283 c 0,23,24
 302 298 302 298 314 310.5 c 128,-1,25
 326 323 326 323 353.5 339 c 128,-1,26
 381 355 381 355 411.5 375.5 c 128,-1,27
 442 396 442 396 472.5 421.5 c 0,28,29
 548 484.62295082 548 484.62295082 548 521.81147541 c 128,-1,30
 548 559 548 559 513 559 c 0,31,32
 452.65 559 452.65 559 348 468 c 1,33,-1
 305 332 l 2,34,35
 259 186 259 186 204.5 108.5 c 128,-1,36
 150 31 150 31 102 31 c 0,37,38
 77 31 77 31 63.5 47.5 c 128,-1,39
 50 64 50 64 50 94.5 c 128,-1,40
 50 125 50 125 65.5 166.5 c 128,-1,41
 81 208 81 208 111 256 c 0,42,43
 174.202247191 357.123595506 174.202247191 357.123595506 284 463 c 1,44,45
 285 466 285 466 289.5 481.5 c 128,-1,46
 294 497 294 497 300 516.5 c 0,47,48
 315.411764706 566.588235294 315.411764706 566.588235294 326 586 c 1,49,-1
 375 578 l 1,50,51
 375 560.2 375 560.2 367 533 c 1,52,53
 452.878947368 599.794736842 452.878947368 599.794736842 538.5 629.5 c 0,54,55
 563 638 563 638 585 638 c 128,-1,56
 607 638 607 638 625 619.5 c 128,-1,57
 643 601 643 601 643 571.5 c 128,-1,58
 643 542 643 542 626.5 512 c 128,-1,59
 610 482 610 482 584.5 454.5 c 128,-1,60
 559 427 559 427 527.5 402 c 128,-1,61
 496 377 496 377 466 357.5 c 0,62,63
 403.741935484 317.032258065 403.741935484 317.032258065 371 303 c 1,64,65
 475.666666667 286.897435897 475.666666667 286.897435897 523 260.5 c 0,66,67
 571.669124424 233.357603687 571.669124424 233.357603687 593 181 c 1,68,-1
 657 181 l 1,69,-1
 656 142 l 1,0,-1
137 124 m 0,70,71
 170.142857143 124 170.142857143 124 237 304 c 0,72,73
 264 376.692307692 264 376.692307692 264 390 c 1,74,75
 209.34841629 329.2760181 209.34841629 329.2760181 177.674208145 274.63800905 c 0,76,77
 122 178.6 122 178.6 122 145 c 0,78,79
 122 124 122 124 137 124 c 0,70,71
232 -118 m 0,80,81
 313.206896552 -118 313.206896552 -118 403 -56 c 1,82,83
 453 -23 453 -23 481.5 18 c 128,-1,84
 510 59 510 59 510 95 c 0,85,86
 510 110.666666667 510 110.666666667 505 129 c 1,87,88
 353.797720798 110.0997151 353.797720798 110.0997151 252.5 47.5 c 0,89,90
 208 20 208 20 184.5 -10 c 128,-1,91
 161 -40 161 -40 161 -64.5 c 128,-1,92
 161 -89 161 -89 180 -103.5 c 128,-1,93
 199 -118 199 -118 232 -118 c 0,80,81
EndSplineSet
EndChar

StartChar: uni0414
Encoding: 1044 1044 67
Width: 764
Flags: W
LayerCount: 2
Fore
SplineSet
377 -2 m 1,0,-1
 307 -1 l 1,1,-1
 260 -1 l 2,2,3
 231 -1 231 -1 231 21 c 0,4,5
 231 31.0909090909 231 31.0909090909 252.5 72.0454545455 c 0,6,7
 302.648911201 167.572238884 302.648911201 167.572238884 333 291 c 1,8,9
 230.647058824 291 230.647058824 291 142.5 346.5 c 0,10,11
 102 372 102 372 76 406.5 c 128,-1,12
 50 441 50 441 50 478 c 128,-1,13
 50 515 50 515 68 544 c 128,-1,14
 86 573 86 573 118 594 c 0,15,16
 185.047619048 638 185.047619048 638 282.523809524 638 c 128,-1,17
 380 638 380 638 456.5 610.5 c 128,-1,18
 533 583 533 583 590.5 535 c 128,-1,19
 648 487 648 487 681 423 c 128,-1,20
 714 359 714 359 714 289.5 c 128,-1,21
 714 220 714 220 691.5 167 c 128,-1,22
 669 114 669 114 629 76.5 c 0,23,24
 547.475780409 0.0710441334768 547.475780409 0.0710441334768 417 -2 c 1,25,-1
 377 -2 l 1,0,-1
410 335 m 1,26,27
 438 335 438 335 503 345 c 1,28,-1
 508 312 l 1,29,30
 483 303 483 303 452.5 299 c 128,-1,31
 422 295 422 295 397 291 c 1,32,-1
 372.5 214 l 2,33,34
 355 159 355 159 316 73 c 1,35,36
 325 72 325 72 347.5 71 c 128,-1,37
 370 70 370 70 395.5 68.5 c 0,38,39
 455 65 455 65 484 65 c 0,40,41
 550 65 550 65 588.5 114 c 128,-1,42
 627 163 627 163 627 241.5 c 128,-1,43
 627 320 627 320 600.5 384 c 128,-1,44
 574 448 574 448 528 495 c 128,-1,45
 482 542 482 542 420.5 569.5 c 128,-1,46
 359 597 359 597 291 597 c 128,-1,47
 223 597 223 597 185 569.5 c 128,-1,48
 147 542 147 542 147 487 c 128,-1,49
 147 432 147 432 199.5 389.5 c 128,-1,50
 252 347 252 347 340 336 c 1,51,52
 349 374 349 374 360 417.5 c 128,-1,53
 371 461 371 461 376 505 c 1,54,-1
 436 499 l 1,55,56
 436 433.8 436 433.8 410 335 c 1,26,27
EndSplineSet
EndChar

StartChar: uni0415
Encoding: 1045 1045 68
Width: 709
Flags: W
LayerCount: 2
Fore
SplineSet
55 -114 m 1,0,1
 61.4375 -88.25 61.4375 -88.25 96 -29 c 1,2,3
 50 23 50 23 50 88 c 128,-1,4
 50 153 50 153 102.5 211 c 128,-1,5
 155 269 155 269 249 307 c 1,6,7
 223 328 223 328 212.5 346.5 c 128,-1,8
 202 365 202 365 202 391.5 c 128,-1,9
 202 418 202 418 218.5 448 c 128,-1,10
 235 478 235 478 263.5 505.5 c 128,-1,11
 292 533 292 533 329 557.5 c 128,-1,12
 366 582 366 582 407 599.5 c 0,13,14
 497.2 638 497.2 638 571 638 c 0,15,16
 611 638 611 638 635 620.5 c 128,-1,17
 659 603 659 603 659 568.5 c 128,-1,18
 659 534 659 534 631 503.5 c 128,-1,19
 603 473 603 473 561.5 452 c 0,20,21
 478.5 410 478.5 410 384 410 c 2,22,-1
 372.5 410 l 2,23,24
 367 410 367 410 362 411 c 1,25,-1
 362 445 l 1,26,27
 373 448 373 448 386 450 c 128,-1,28
 399 452 399 452 412 454 c 0,29,30
 476 464 476 464 514.5 488 c 128,-1,31
 553 512 553 512 553 542 c 0,32,33
 553 578 553 578 499 578 c 0,34,35
 426.909090909 578 426.909090909 578 361 528 c 0,36,37
 332 506 332 506 314 477.5 c 128,-1,38
 296 449 296 449 296 421 c 0,39,40
 296 368 296 368 364 352 c 0,41,42
 378 348 378 348 383.5 344 c 128,-1,43
 389 340 389 340 389 330 c 128,-1,44
 389 320 389 320 379.5 313.5 c 128,-1,45
 370 307 370 307 336 295 c 0,46,47
 152 232 152 232 152 99 c 0,48,49
 152 71.3333333333 152 71.3333333333 162 53 c 1,50,51
 257.975493533 173.743362832 257.975493533 173.743362832 414 216 c 0,52,53
 462 229 462 229 508.5 229 c 128,-1,54
 555 229 555 229 582.5 208.5 c 128,-1,55
 610 188 610 188 610 148.5 c 128,-1,56
 610 109 610 109 579 66.5 c 128,-1,57
 548 24 548 24 498 -10 c 128,-1,58
 448 -44 448 -44 385.5 -65.5 c 128,-1,59
 323 -87 323 -87 250 -87 c 128,-1,60
 177 -87 177 -87 131 -57 c 1,61,62
 129 -59 129 -59 125 -67.5 c 128,-1,63
 121 -76 121 -76 115 -87 c 0,64,65
 98.2 -117.8 98.2 -117.8 88 -128 c 1,66,-1
 55 -114 l 1,0,1
184 17 m 1,67,68
 224.909090909 -28 224.909090909 -28 291 -28 c 0,69,70
 371.906976744 -28 371.906976744 -28 441.5 19.5 c 0,71,72
 473 41 473 41 492.5 68 c 128,-1,73
 512 95 512 95 512 119.5 c 128,-1,74
 512 144 512 144 495 156.5 c 128,-1,75
 478 169 478 169 448.5 169 c 128,-1,76
 419 169 419 169 383 157 c 128,-1,77
 347 145 347 145 311 124 c 0,78,79
 230.470588235 77.0245098039 230.470588235 77.0245098039 184 17 c 1,67,68
EndSplineSet
EndChar

StartChar: uni041A
Encoding: 1050 1050 69
Width: 857
Flags: W
LayerCount: 2
Fore
SplineSet
424.5 596.5 m 128,-1,1
 502 615 502 615 568 615 c 128,-1,2
 634 615 634 615 634 589 c 0,3,4
 634 579 634 579 627 570.5 c 128,-1,5
 620 562 620 562 592 540.5 c 128,-1,6
 564 519 564 519 538.5 484 c 128,-1,7
 513 449 513 449 495 409 c 0,8,9
 466.363636364 345.363636364 466.363636364 345.363636364 444 241 c 1,10,11
 614.721112076 303.597741095 614.721112076 303.597741095 764 488.5 c 0,12,13
 808 543 808 543 844 600 c 1,14,-1
 907 569 l 1,15,16
 814.854599407 415.424332344 814.854599407 415.424332344 656 304.5 c 0,17,18
 598 264 598 264 523 223 c 1,19,20
 565.275189599 1.05525460455 565.275189599 1.05525460455 635.5 -73 c 0,21,22
 663 -102 663 -102 699 -107 c 1,23,-1
 699 -153 l 1,24,25
 693 -154 693 -154 688 -154 c 128,-1,26
 683 -154 683 -154 678 -154 c 0,27,28
 612 -154 612 -154 549.5 -63 c 128,-1,29
 487 28 487 28 436 214 c 1,30,31
 393.731914894 79.5106382979 393.731914894 79.5106382979 303 -1.5 c 0,32,33
 217.32 -78 217.32 -78 122 -78 c 0,34,35
 73 -78 73 -78 41.5 -52 c 128,-1,36
 10 -26 10 -26 10 21 c 128,-1,37
 10 68 10 68 52 118 c 128,-1,38
 94 168 94 168 167 202 c 1,39,-1
 190 166 l 1,40,41
 100 101.714285714 100 101.714285714 100 46 c 0,42,43
 100 19 100 19 118 2.5 c 128,-1,44
 136 -14 136 -14 166.5 -14 c 128,-1,45
 197 -14 197 -14 225.5 -2 c 128,-1,46
 254 10 254 10 279.5 40 c 0,47,48
 333.171428571 103.142857143 333.171428571 103.142857143 371 245 c 0,49,50
 410.620689655 390.275862069 410.620689655 390.275862069 446 448 c 0,51,52
 465 479 465 479 487 498.5 c 128,-1,53
 509 518 509 518 538 539 c 1,54,55
 426.501132759 536.724512913 426.501132759 536.724512913 328 488.5 c 0,56,57
 280 465 280 465 248.5 431.5 c 128,-1,58
 217 398 217 398 217 357 c 0,59,60
 217 314.666666667 217 314.666666667 245 278.5 c 0,61,62
 257 263 257 263 278 250 c 1,63,-1
 258 219 l 1,64,65
 201 246 201 246 169.5 289.5 c 128,-1,66
 138 333 138 333 138 380 c 128,-1,67
 138 427 138 427 179 470 c 128,-1,68
 220 513 220 513 283.5 545.5 c 128,-1,0
 347 578 347 578 424.5 596.5 c 128,-1,1
EndSplineSet
EndChar

StartChar: uni041C
Encoding: 1052 1052 70
Width: 903
Flags: W
LayerCount: 2
Fore
SplineSet
443 166.5 m 128,-1,1
 442 143 442 143 442 118.25 c 128,-1,2
 442 93.5 442 93.5 448 92 c 1,3,4
 453 92 453 92 459 102 c 0,5,6
 533.148594378 222.240963855 533.148594378 222.240963855 608.5 385 c 0,7,8
 621 412 621 412 638 450 c 128,-1,9
 655 488 655 488 674 526.5 c 128,-1,10
 693 565 693 565 706 583 c 128,-1,11
 719 601 719 601 728.5 604 c 128,-1,12
 738 607 738 607 758.5 607 c 128,-1,13
 779 607 779 607 796.5 589.5 c 128,-1,14
 814 572 814 572 814 544 c 0,15,16
 814 525.666666667 814 525.666666667 798 448.833333333 c 128,-1,17
 782 372 782 372 767 290.5 c 128,-1,18
 752 209 752 209 743.5 156 c 0,19,20
 729 65.5882352941 729 65.5882352941 729 29.7941176471 c 128,-1,21
 729 -6 729 -6 735 -28.5 c 128,-1,22
 741 -51 741 -51 754 -66 c 0,23,24
 777.118918919 -92.6756756757 777.118918919 -92.6756756757 837 -103 c 1,25,-1
 825 -140 l 1,26,27
 805 -142 805 -142 780.5 -142 c 128,-1,28
 756 -142 756 -142 731 -129 c 128,-1,29
 706 -116 706 -116 688.5 -92 c 0,30,31
 651 -40.5714285714 651 -40.5714285714 651 40 c 0,32,33
 651 131.642857143 651 131.642857143 696 347 c 0,34,35
 710 414 710 414 721 457 c 128,-1,36
 732 500 732 500 732 508 c 128,-1,37
 732 516 732 516 725 516 c 128,-1,38
 718 516 718 516 688.5 457 c 128,-1,39
 659 398 659 398 637.5 353.5 c 128,-1,40
 616 309 616 309 595 265.5 c 128,-1,41
 574 222 574 222 556 184.5 c 0,42,43
 490.449567723 47.9365994236 490.449567723 47.9365994236 455.5 4 c 0,44,45
 438 -18 438 -18 424.5 -18 c 128,-1,46
 411 -18 411 -18 395.5 -11 c 128,-1,47
 380 -4 380 -4 374.5 4.5 c 0,48,49
 364 20.7272727273 364 20.7272727273 364 109.363636364 c 0,50,51
 364 291.428571429 364 291.428571429 394 465 c 0,52,53
 404 517.857142857 404 517.857142857 404 525.928571429 c 128,-1,54
 404 534 404 534 396 534 c 256,55,56
 380.185185185 534 380.185185185 534 345 434 c 2,57,-1
 316 351 l 2,58,59
 222.239097085 81.815472277 222.239097085 81.815472277 117 -16.5 c 0,60,61
 79 -52 79 -52 36 -73 c 1,62,-1
 10 -18 l 1,63,64
 104.951871658 52.1818181818 104.951871658 52.1818181818 156 124.5 c 0,65,66
 208.956521739 199.52173913 208.956521739 199.52173913 274 371 c 2,67,-1
 308 462 l 2,68,69
 341 552 341 552 367 595 c 128,-1,70
 393 638 393 638 427 638 c 0,71,72
 480 638 480 638 480 574 c 0,73,74
 480 554 480 554 474 498.5 c 128,-1,75
 468 443 468 443 463.5 396.5 c 128,-1,76
 459 350 459 350 455 311 c 128,-1,77
 451 272 451 272 449 251 c 128,-1,78
 447 230 447 230 445.5 210 c 128,-1,0
 444 190 444 190 443 166.5 c 128,-1,1
EndSplineSet
EndChar

StartChar: uni0418
Encoding: 1048 1048 71
Width: 741
Flags: W
LayerCount: 2
Fore
SplineSet
529 36 m 0,0,1
 553.782608696 36 553.782608696 36 583 78 c 1,2,-1
 615 52 l 1,3,4
 604 19 604 19 583.5 -1.5 c 0,5,6
 546 -39 546 -39 505.5 -39 c 128,-1,7
 465 -39 465 -39 436 6 c 128,-1,8
 407 51 407 51 398 136 c 1,9,10
 314.225235849 47.8160377358 314.225235849 47.8160377358 223.5 11 c 0,11,12
 189 -3 189 -3 159 -3 c 0,13,14
 110 -3 110 -3 80 32 c 128,-1,15
 50 67 50 67 50 116 c 128,-1,16
 50 165 50 165 66.5 216 c 128,-1,17
 83 267 83 267 110.5 319.5 c 128,-1,18
 138 372 138 372 175 424 c 128,-1,19
 212 476 212 476 253 521.5 c 0,20,21
 340.984036488 619.140820981 340.984036488 619.140820981 419 664 c 1,22,-1
 446 626 l 1,23,24
 328.625264644 535.453775582 328.625264644 535.453775582 240.5 407 c 0,25,26
 142 263.423728814 142 263.423728814 142 158 c 0,27,28
 142 119 142 119 160.5 97.5 c 128,-1,29
 179 76 179 76 205 76 c 128,-1,30
 231 76 231 76 256.5 88 c 128,-1,31
 282 100 282 100 309 117 c 0,32,33
 365.054347826 152.293478261 365.054347826 152.293478261 396 188 c 1,34,35
 405.058562555 338.976042591 405.058562555 338.976042591 488 475 c 0,36,37
 538.905797101 558.485507246 538.905797101 558.485507246 595.5 594.5 c 0,38,39
 623 612 623 612 646 612 c 0,40,41
 691 612 691 612 691 564 c 0,42,43
 691 509.2 691 509.2 614.5 388.5 c 0,44,45
 535.403361345 263.703081232 535.403361345 263.703081232 467 201 c 1,46,47
 465 189 465 189 465 173 c 128,-1,48
 465 157 465 157 469 133.5 c 128,-1,49
 473 110 473 110 481 88 c 0,50,51
 499.909090909 36 499.909090909 36 529 36 c 0,0,1
598 518 m 0,52,53
 565.434782609 518 565.434782609 518 525 440.5 c 0,54,55
 486.323076923 366.369230769 486.323076923 366.369230769 474 276 c 1,56,57
 568.395543175 388.094707521 568.395543175 388.094707521 601.5 466.5 c 0,58,59
 611 489 611 489 611 503.5 c 128,-1,60
 611 518 611 518 598 518 c 0,52,53
EndSplineSet
EndChar

StartChar: uni0419
Encoding: 1049 1049 72
Width: 741
Flags: W
LayerCount: 2
Fore
SplineSet
529 36 m 0,0,1
 553.782608696 36 553.782608696 36 583 78 c 1,2,-1
 615 52 l 1,3,4
 604 19 604 19 583.5 -1.5 c 0,5,6
 546 -39 546 -39 505.5 -39 c 128,-1,7
 465 -39 465 -39 436 6 c 128,-1,8
 407 51 407 51 398 136 c 1,9,10
 314.225235849 47.8160377358 314.225235849 47.8160377358 223.5 11 c 0,11,12
 189 -3 189 -3 159 -3 c 0,13,14
 110 -3 110 -3 80 32 c 128,-1,15
 50 67 50 67 50 116 c 128,-1,16
 50 165 50 165 66.5 216 c 128,-1,17
 83 267 83 267 110.5 319.5 c 128,-1,18
 138 372 138 372 175 424 c 128,-1,19
 212 476 212 476 253 521.5 c 0,20,21
 340.984036488 619.140820981 340.984036488 619.140820981 419 664 c 1,22,-1
 446 626 l 1,23,24
 328.625264644 535.453775582 328.625264644 535.453775582 240.5 407 c 0,25,26
 142 263.423728814 142 263.423728814 142 158 c 0,27,28
 142 119 142 119 160.5 97.5 c 128,-1,29
 179 76 179 76 205 76 c 128,-1,30
 231 76 231 76 256.5 88 c 128,-1,31
 282 100 282 100 309 117 c 0,32,33
 365.054347826 152.293478261 365.054347826 152.293478261 396 188 c 1,34,35
 405.058562555 338.976042591 405.058562555 338.976042591 488 475 c 0,36,37
 538.905797101 558.485507246 538.905797101 558.485507246 595.5 594.5 c 0,38,39
 623 612 623 612 646 612 c 0,40,41
 691 612 691 612 691 564 c 0,42,43
 691 509.2 691 509.2 614.5 388.5 c 0,44,45
 535.403361345 263.703081232 535.403361345 263.703081232 467 201 c 1,46,47
 465 189 465 189 465 173 c 128,-1,48
 465 157 465 157 469 133.5 c 128,-1,49
 473 110 473 110 481 88 c 0,50,51
 499.909090909 36 499.909090909 36 529 36 c 0,0,1
598 518 m 0,52,53
 565.434782609 518 565.434782609 518 525 440.5 c 0,54,55
 486.323076923 366.369230769 486.323076923 366.369230769 474 276 c 1,56,57
 568.395543175 388.094707521 568.395543175 388.094707521 601.5 466.5 c 0,58,59
 611 489 611 489 611 503.5 c 128,-1,60
 611 518 611 518 598 518 c 0,52,53
590 702 m 0,61,62
 641.631578947 702 641.631578947 702 677 750 c 1,63,-1
 707 734 l 1,64,65
 674.549295775 683.521126761 674.549295775 683.521126761 625.5 662.5 c 0,66,67
 608 655 608 655 591.5 655 c 128,-1,68
 575 655 575 655 557.5 662.5 c 128,-1,69
 540 670 540 670 524 681 c 0,70,71
 490.666666667 703.916666667 490.666666667 703.916666667 473 726 c 1,72,-1
 505 753 l 1,73,74
 556 702 556 702 590 702 c 0,61,62
EndSplineSet
EndChar

StartChar: uni0420
Encoding: 1056 1056 73
Width: 698
Flags: W
LayerCount: 2
Fore
SplineSet
304 483 m 1,0,1
 320 545 320 545 320 579.5 c 128,-1,2
 320 614 320 614 318 626 c 1,3,-1
 390 638 l 1,4,5
 390 607 390 607 382 559 c 1,6,-1
 381 550 l 1,7,8
 462.56969697 606.909090909 462.56969697 606.909090909 489.284848485 617.454545455 c 128,-1,9
 516 628 516 628 530.5 629.5 c 128,-1,10
 545 631 545 631 564 631 c 0,11,12
 605 631 605 631 626.5 603 c 128,-1,13
 648 575 648 575 648 525 c 128,-1,14
 648 475 648 475 631.5 423 c 128,-1,15
 615 371 615 371 586.5 320.5 c 128,-1,16
 558 270 558 270 520 225 c 128,-1,17
 482 180 482 180 440 145.5 c 0,18,19
 349.304347826 71 349.304347826 71 268 71 c 2,20,-1
 250.5 71 l 2,21,22
 242 71 242 71 222 73 c 1,23,24
 172.183246073 -33.4267015707 172.183246073 -33.4267015707 144.091623037 -70.2133507853 c 128,-1,25
 116 -107 116 -107 95 -122 c 128,-1,26
 74 -137 74 -137 51 -137 c 128,-1,27
 28 -137 28 -137 14 -119 c 128,-1,28
 0 -101 0 -101 0 -59 c 128,-1,29
 0 -17 0 -17 26.5 56 c 128,-1,30
 53 129 53 129 95.5 207 c 0,31,32
 188.444991055 377.581395349 188.444991055 377.581395349 304 483 c 1,0,1
180 131 m 1,33,34
 243.659574468 254.574468085 243.659574468 254.574468085 286 407 c 1,35,36
 194.887846082 295.007977475 194.887846082 295.007977475 133.5 170 c 0,37,38
 76 52.9090909091 76 52.9090909091 76 -10 c 0,39,40
 76 -29 76 -29 88 -29 c 0,41,42
 103.5 -29 103.5 -29 141 46 c 0,43,44
 151 66 151 66 159 85 c 1,45,46
 146 91 146 91 134 103 c 1,47,-1
 152 145 l 1,48,-1
 180 131 l 1,33,34
243 117 m 1,49,-1
 262 116 l 1,50,51
 308 116 308 116 355.5 142.5 c 128,-1,52
 403 169 403 169 435.5 208 c 128,-1,53
 468 247 468 247 489 282 c 128,-1,54
 510 317 510 317 525.5 352.5 c 0,55,56
 559 429.225806452 559 429.225806452 559 482 c 0,57,58
 559 511 559 511 543.5 528 c 128,-1,59
 528 545 528 545 501.5 545 c 0,60,61
 451.068965517 545 451.068965517 545 371 491 c 1,62,63
 353.88772298 359.80587618 353.88772298 359.80587618 243 117 c 1,49,-1
EndSplineSet
EndChar

StartChar: uni0421
Encoding: 1057 1057 74
Width: 648
Flags: W
LayerCount: 2
Fore
SplineSet
302 64 m 0,0,1
 441.6 64 441.6 64 483 225 c 1,2,-1
 530 225 l 1,3,4
 518.862030495 131.441056155 518.862030495 131.441056155 448 65.5 c 0,5,6
 366.865671642 -10 366.865671642 -10 241 -10 c 0,7,8
 176.4 -10 176.4 -10 123 34.5 c 0,9,10
 61 86.1666666667 61 86.1666666667 61 174 c 0,11,12
 61 225 61 225 77 273 c 128,-1,13
 93 321 93 321 131 380 c 1,14,15
 105 395 105 395 83 416 c 128,-1,16
 61 437 61 437 50 454 c 1,17,-1
 77 484 l 1,18,19
 87 475 87 475 93.5 467 c 128,-1,20
 100 459 100 459 108 451 c 0,21,22
 128 431 128 431 158 416 c 1,23,24
 218.986757796 499.348568988 218.986757796 499.348568988 329.5 565 c 0,25,26
 442.283333333 632 442.283333333 632 520 632 c 0,27,28
 557 632 557 632 577.5 611.5 c 128,-1,29
 598 591 598 591 598 554.5 c 128,-1,30
 598 518 598 518 573.5 480.5 c 128,-1,31
 549 443 549 443 507 413 c 0,32,33
 411.8 345 411.8 345 293 345 c 0,34,35
 238.714285714 345 238.714285714 345 183 360 c 1,36,37
 145 298.777777778 145 298.777777778 145 227.388888889 c 128,-1,38
 145 156 145 156 183.5 110 c 128,-1,39
 222 64 222 64 302 64 c 0,0,1
206 399 m 1,40,41
 242.75 385 242.75 385 287.875 385 c 128,-1,42
 333 385 333 385 373 396 c 128,-1,43
 413 407 413 407 443 426 c 0,44,45
 509 467.8 509 467.8 509 522 c 0,46,47
 509 541 509 541 495.5 552.5 c 128,-1,48
 482 564 482 564 456.5 564 c 128,-1,49
 431 564 431 564 395.5 551 c 128,-1,50
 360 538 360 538 325.5 515.5 c 0,51,52
 249.172566372 465.721238938 249.172566372 465.721238938 206 399 c 1,40,41
EndSplineSet
EndChar

StartChar: uni0423
Encoding: 1059 1059 75
Width: 720
Flags: W
LayerCount: 2
Fore
SplineSet
425 609 m 1,0,1
 203 369.24 203 369.24 203 210 c 0,2,3
 203 165 203 165 222 141 c 128,-1,4
 241 117 241 117 277 117 c 0,5,6
 349 117 349 117 418 197 c 128,-1,7
 487 277 487 277 561 445 c 1,8,9
 601.961538462 540.576923077 601.961538462 540.576923077 623.5 553.5 c 0,10,11
 631 558 631 558 642 558 c 128,-1,12
 653 558 653 558 661.5 549 c 128,-1,13
 670 540 670 540 670 519.5 c 128,-1,14
 670 499 670 499 647.5 449 c 128,-1,15
 625 399 625 399 578 335 c 1,16,17
 514.333333333 207.666666667 514.333333333 207.666666667 449 7 c 1,18,19
 500.04 2.36 500.04 2.36 549 -16 c 1,20,-1
 539 -50 l 1,21,-1
 433 -35 l 1,22,23
 375 -177 375 -177 292.5 -249.5 c 128,-1,24
 210 -322 210 -322 91 -322 c 0,25,26
 29.2903225806 -322 29.2903225806 -322 -9.5 -289.5 c 0,27,28
 -50 -255.567567568 -50 -255.567567568 -50 -209.283783784 c 128,-1,29
 -50 -163 -50 -163 -17 -123 c 128,-1,30
 16 -83 16 -83 72 -54 c 0,31,32
 193.655172414 9 193.655172414 9 360 9 c 1,33,-1
 390 8 l 1,34,35
 404.526315789 56.4210526316 404.526315789 56.4210526316 423.763157895 106.210526316 c 128,-1,36
 443 156 443 156 448 166 c 1,37,38
 382.666666667 103.777777778 382.666666667 103.777777778 351.333333333 82.8888888889 c 0,39,40
 282.5 37 282.5 37 226.75 37 c 128,-1,41
 171 37 171 37 142 72 c 128,-1,42
 113 107 113 107 113 160 c 128,-1,43
 113 213 113 213 134.5 276 c 128,-1,44
 156 339 156 339 193.5 406.5 c 0,45,46
 281.281690141 564.507042254 281.281690141 564.507042254 385 646 c 1,47,-1
 425 609 l 1,0,1
78.5 -235.5 m 128,-1,49
 101 -253 101 -253 140.5 -253 c 128,-1,50
 180 -253 180 -253 217.5 -233 c 128,-1,51
 255 -213 255 -213 285 -181.5 c 0,52,53
 342.022587269 -121.626283368 342.022587269 -121.626283368 372 -34 c 1,54,55
 237.571428571 -34 237.571428571 -34 146.5 -79 c 0,56,57
 56 -123.717647059 56 -123.717647059 56 -190 c 0,58,48
 56 -218 56 -218 78.5 -235.5 c 128,-1,49
EndSplineSet
EndChar

StartChar: uni0425
Encoding: 1061 1061 76
Width: 764
Flags: W
LayerCount: 2
Fore
SplineSet
512 -24 m 1,0,1
 435.317073171 54.7008985879 435.317073171 54.7008985879 353 228 c 1,2,3
 306 183 306 183 270 148 c 128,-1,4
 234 113 234 113 203.5 84 c 0,5,6
 141.326923077 24.8846153846 141.326923077 24.8846153846 83 -14 c 1,7,-1
 50 31 l 1,8,9
 64 46 64 46 91.5 68 c 128,-1,10
 119 90 119 90 156 121.5 c 0,11,12
 248.896279594 200.587373168 248.896279594 200.587373168 327 287 c 1,13,14
 261.304635762 461.092715232 261.304635762 461.092715232 235 597 c 1,15,-1
 311 611 l 1,16,17
 351.68 427.94 351.68 427.94 386 345 c 1,18,19
 464 422 464 422 534.5 496.5 c 128,-1,20
 605 571 605 571 672 640 c 1,21,-1
 714 596 l 1,22,23
 667.056680162 536.538461538 667.056680162 536.538461538 492 364.5 c 0,24,25
 463 336 463 336 441.5 314.5 c 2,26,-1
 411 284 l 1,27,28
 451.67027027 194.097297297 451.67027027 194.097297297 566 27 c 1,29,-1
 512 -24 l 1,0,1
EndSplineSet
EndChar

StartChar: uni0426
Encoding: 1062 1062 77
Width: 741
Flags: W
LayerCount: 2
Fore
SplineSet
622.5 22 m 128,-1,1
 632 50 632 50 632 72.5 c 128,-1,2
 632 95 632 95 614 95 c 0,3,4
 604 95 604 95 593.5 80 c 128,-1,5
 583 65 583 65 568.5 46.5 c 0,6,7
 530.486486486 -2 530.486486486 -2 483 -2 c 0,8,9
 435.173913043 -2 435.173913043 -2 407 52 c 0,10,11
 382 99.9166666667 382 99.9166666667 382 148 c 1,12,-1
 370 137 l 1,13,14
 286.225235849 48.8160377358 286.225235849 48.8160377358 195.5 12 c 0,15,16
 161 -2 161 -2 131 -2 c 0,17,18
 82 -2 82 -2 52 33 c 128,-1,19
 22 68 22 68 22 117 c 128,-1,20
 22 166 22 166 38.5 217 c 128,-1,21
 55 268 55 268 82.5 320.5 c 128,-1,22
 110 373 110 373 147 425 c 128,-1,23
 184 477 184 477 225 522.5 c 0,24,25
 312.984036488 620.140820981 312.984036488 620.140820981 391 665 c 1,26,-1
 418 627 l 1,27,28
 300.625264644 536.453775582 300.625264644 536.453775582 212.5 408 c 0,29,30
 114 264.423728814 114 264.423728814 114 159 c 0,31,32
 114 120 114 120 132.5 98.5 c 128,-1,33
 151 77 151 77 177 77 c 128,-1,34
 203 77 203 77 228.5 89 c 128,-1,35
 254 101 254 101 281 118 c 0,36,37
 337.054347826 153.293478261 337.054347826 153.293478261 368 189 c 1,38,39
 377.058562555 339.976042591 377.058562555 339.976042591 460 476 c 0,40,41
 510.905797101 559.485507246 510.905797101 559.485507246 567.5 595.5 c 0,42,43
 595 613 595 613 618 613 c 0,44,45
 663 613 663 613 663 565 c 0,46,47
 663 509.727272727 663 509.727272727 589 392 c 0,48,49
 516.149700599 276.101796407 516.149700599 276.101796407 443 206 c 1,50,51
 443 133.88 443 133.88 473.5 98.5 c 0,52,53
 512.851851852 52.8518518519 512.851851852 52.8518518519 549 89 c 0,54,55
 565 105 565 105 583 123.5 c 128,-1,56
 601 142 601 142 621 158 c 128,-1,57
 641 174 641 174 662 174 c 128,-1,58
 683 174 683 174 695 160 c 128,-1,59
 707 146 707 146 707 125 c 0,60,61
 707 67.9555555556 707 67.9555555556 619 -110 c 1,62,-1
 569 -107 l 1,63,64
 569 -102 569 -102 579 -81 c 128,-1,65
 589 -60 589 -60 601 -33 c 128,-1,0
 613 -6 613 -6 622.5 22 c 128,-1,1
570 519 m 0,66,67
 537.434782609 519 537.434782609 519 497 441.5 c 0,68,69
 458.323076923 367.369230769 458.323076923 367.369230769 446 277 c 1,70,71
 540.395543175 389.094707521 540.395543175 389.094707521 573.5 467.5 c 0,72,73
 583 490 583 490 583 504.5 c 128,-1,74
 583 519 583 519 570 519 c 0,66,67
EndSplineSet
EndChar

StartChar: uni0438
Encoding: 1080 1080 78
Width: 520
Flags: W
LayerCount: 2
Fore
SplineSet
467 100 m 1,0,1
 450.140594059 58.7881188119 450.140594059 58.7881188119 412 28.5 c 0,2,3
 376.111111111 2.6645352591e-14 376.111111111 2.6645352591e-14 346.555555556 1.33226762955e-14 c 128,-1,4
 317 0 317 0 300.5 20.5 c 128,-1,5
 284 41 284 41 284 76 c 0,6,7
 284 105.833333333 284 105.833333333 295 159 c 1,8,9
 245 81 245 81 191.5 41 c 128,-1,10
 138 1 138 1 103 1 c 0,11,12
 47 1 47 1 47 72 c 0,13,14
 47 157.04 47 157.04 121.5 312 c 0,15,16
 149 369.2 149 369.2 160 378 c 1,17,-1
 208 357 l 1,18,19
 167.740368509 290.484087102 167.740368509 290.484087102 150.370184255 239.242043551 c 0,20,21
 125 164.4 125 164.4 125 142.2 c 128,-1,22
 125 120 125 120 138.5 107 c 128,-1,23
 152 94 152 94 170 94 c 256,24,25
 210.128571429 94 210.128571429 94 265.5 162 c 0,26,27
 328.584269663 239.471910112 328.584269663 239.471910112 391 387 c 1,28,-1
 442 364 l 1,29,30
 433.692913386 337.417322835 433.692913386 337.417322835 405.346456693 269.208661417 c 0,31,32
 353 143.25 353 143.25 353 120.125 c 128,-1,33
 353 97 353 97 362.5 86 c 128,-1,34
 372 75 372 75 389 75 c 128,-1,35
 406 75 406 75 419 88.5 c 128,-1,36
 432 102 432 102 446 117 c 1,37,-1
 467 100 l 1,0,1
EndSplineSet
EndChar

StartChar: uni0439
Encoding: 1081 1081 79
Width: 520
Flags: W
LayerCount: 2
Fore
SplineSet
458 100 m 1,0,1
 441.140594059 58.7881188119 441.140594059 58.7881188119 403 28.5 c 0,2,3
 367.111111111 -1.95399252334e-14 367.111111111 -1.95399252334e-14 337.555555556 -9.7699626167e-15 c 128,-1,4
 308 0 308 0 291.5 20.5 c 128,-1,5
 275 41 275 41 275 76 c 0,6,7
 275 105.833333333 275 105.833333333 286 159 c 1,8,9
 236 81 236 81 182.5 41 c 128,-1,10
 129 1 129 1 94 1 c 0,11,12
 38 1 38 1 38 72 c 0,13,14
 38 157.04 38 157.04 112.5 312 c 0,15,16
 140 369.2 140 369.2 151 378 c 1,17,-1
 199 357 l 1,18,19
 158.740368509 290.484087102 158.740368509 290.484087102 141.370184255 239.242043551 c 0,20,21
 116 164.4 116 164.4 116 142.2 c 128,-1,22
 116 120 116 120 129.5 107 c 128,-1,23
 143 94 143 94 161 94 c 256,24,25
 201.128571429 94 201.128571429 94 256.5 162 c 0,26,27
 319.584269663 239.471910112 319.584269663 239.471910112 382 387 c 1,28,-1
 433 364 l 1,29,30
 424.692913386 337.417322835 424.692913386 337.417322835 396.346456693 269.208661417 c 0,31,32
 344 143.25 344 143.25 344 120.125 c 128,-1,33
 344 97 344 97 353.5 86 c 128,-1,34
 363 75 363 75 380 75 c 128,-1,35
 397 75 397 75 410 88.5 c 128,-1,36
 423 102 423 102 437 117 c 1,37,-1
 458 100 l 1,0,1
292 450 m 0,38,39
 343.631578947 450 343.631578947 450 379 498 c 1,40,-1
 409 482 l 1,41,42
 376.549295775 431.521126761 376.549295775 431.521126761 327.5 410.5 c 0,43,44
 310 403 310 403 293.5 403 c 128,-1,45
 277 403 277 403 259.5 410.5 c 128,-1,46
 242 418 242 418 226 429 c 0,47,48
 192.666666667 451.916666667 192.666666667 451.916666667 175 474 c 1,49,-1
 207 501 l 1,50,51
 258 450 258 450 292 450 c 0,38,39
EndSplineSet
EndChar

StartChar: uni041D
Encoding: 1053 1053 80
Width: 885
Flags: W
LayerCount: 2
Fore
SplineSet
577 35 m 0,0,1
 577 100 577 100 610 210 c 1,2,3
 549 210 549 210 506.5 205 c 128,-1,4
 464 200 464 200 428 196 c 1,5,6
 389.58287596 92.8803512623 389.58287596 92.8803512623 325 8 c 0,7,8
 253.355169467 -86.1617772714 253.355169467 -86.1617772714 141 -127.5 c 0,9,10
 88 -147 88 -147 45 -147 c 128,-1,11
 2 -147 2 -147 -24 -122 c 128,-1,12
 -50 -97 -50 -97 -50 -54 c 128,-1,13
 -50 -11 -50 -11 -21 33.5 c 128,-1,14
 8 78 8 78 62 116 c 0,15,16
 174.90507365 195.451718494 174.90507365 195.451718494 367 241 c 1,17,18
 441 457 441 457 575 549 c 1,19,20
 431.584605391 547.008119519 431.584605391 547.008119519 336.5 500 c 0,21,22
 242 453.280898876 242 453.280898876 242 380 c 0,23,24
 242 355.222222222 242 355.222222222 247.5 343.611111111 c 0,25,26
 259.923076923 317.384615385 259.923076923 317.384615385 282 289 c 1,27,-1
 248 257 l 1,28,29
 201 287 201 287 179.5 327 c 128,-1,30
 158 367 158 367 158 408.5 c 128,-1,31
 158 450 158 450 197 491 c 128,-1,32
 236 532 236 532 297.5 562 c 128,-1,33
 359 592 359 592 435.5 609 c 128,-1,34
 512 626 512 626 575 626 c 128,-1,35
 638 626 638 626 657.5 618.5 c 128,-1,36
 677 611 677 611 677 595.5 c 128,-1,37
 677 580 677 580 670.5 571 c 128,-1,38
 664 562 664 562 648 552 c 0,39,40
 522.555051078 472.171396141 522.555051078 472.171396141 447 256 c 1,41,42
 496.548387097 265.290322581 496.548387097 265.290322581 630 278 c 1,43,44
 691.565217391 462.695652174 691.565217391 462.695652174 742 556 c 0,45,46
 762 593 762 593 790 637 c 1,47,-1
 835 615 l 1,48,49
 765.533333333 478.171717172 765.533333333 478.171717172 696 278 c 1,50,51
 739 278 739 278 759 274 c 1,52,-1
 755 217 l 1,53,54
 735.75 210 735.75 210 673 210 c 1,55,56
 652.942857143 156.514285714 652.942857143 156.514285714 647.971428571 114.257142857 c 128,-1,57
 643 72 643 72 641.5 48 c 128,-1,58
 640 24 640 24 638 0 c 1,59,-1
 582 0 l 1,60,61
 577 20 577 20 577 35 c 0,0,1
349 184 m 1,62,63
 215.895655403 162.147047902 215.895655403 162.147047902 134 106.5 c 0,64,65
 53 51.4615384615 53 51.4615384615 53 -19 c 0,66,67
 53 -47 53 -47 69.5 -62.5 c 128,-1,68
 86 -78 86 -78 111.5 -78 c 128,-1,69
 137 -78 137 -78 161 -69.5 c 128,-1,70
 185 -61 185 -61 208 -46 c 0,71,72
 258.888730385 -12.8116975749 258.888730385 -12.8116975749 293.046774831 41.0130997339 c 128,-1,73
 327.204819277 94.8378970427 327.204819277 94.8378970427 349 184 c 1,62,63
EndSplineSet
EndChar

StartChar: uni041B
Encoding: 1051 1051 81
Width: 730
Flags: W
LayerCount: 2
Fore
SplineSet
497 245 m 128,-1,1
 491 162 491 162 491 103 c 128,-1,2
 491 44 491 44 497 21.5 c 128,-1,3
 503 -1 503 -1 516 -16 c 0,4,5
 539.118918919 -42.6756756757 539.118918919 -42.6756756757 599 -53 c 1,6,-1
 587 -90 l 1,7,8
 567 -92 567 -92 542.5 -92 c 128,-1,9
 518 -92 518 -92 493 -79 c 128,-1,10
 468 -66 468 -66 450.5 -42 c 0,11,12
 413 9.42857142857 413 9.42857142857 413 102.214285714 c 0,13,14
 413 293.428571429 413 293.428571429 443 467 c 0,15,16
 453 519.857142857 453 519.857142857 453 527.928571429 c 128,-1,17
 453 536 453 536 445 536 c 256,18,19
 429.185185185 536 429.185185185 536 394 436 c 2,20,-1
 365 353 l 2,21,22
 271.239097085 83.815472277 271.239097085 83.815472277 166 -14.5 c 0,23,24
 128 -50 128 -50 85 -71 c 1,25,-1
 59 -16 l 1,26,27
 153.951871658 54.1818181818 153.951871658 54.1818181818 205 126.5 c 0,28,29
 257.956521739 201.52173913 257.956521739 201.52173913 323 373 c 2,30,-1
 357 464 l 2,31,32
 390 554 390 554 416 597 c 128,-1,33
 442 640 442 640 476 640 c 0,34,35
 529 640 529 640 529 576 c 0,36,37
 529 562 529 562 523 514 c 128,-1,38
 517 466 517 466 510 397 c 128,-1,0
 503 328 503 328 497 245 c 128,-1,1
EndSplineSet
EndChar

StartChar: uni041F
Encoding: 1055 1055 82
Width: 768
Flags: W
LayerCount: 2
Fore
SplineSet
600 615 m 1,0,-1
 641 616 l 2,1,2
 672.333333333 616 672.333333333 616 720.166666667 623 c 128,-1,3
 768 630 768 630 776 633 c 0,4,5
 789.333333333 638 789.333333333 638 795.666666667 638 c 0,6,7
 810 638 810 638 810 622.5 c 128,-1,8
 810 607 810 607 798 595 c 128,-1,9
 786 583 786 583 765 573.5 c 0,10,11
 717.473684211 552 717.473684211 552 660 552 c 1,12,13
 631 533 631 533 596 473 c 128,-1,14
 561 413 561 413 542 344.5 c 128,-1,15
 523 276 523 276 515.5 244 c 128,-1,16
 508 212 508 212 503.5 189 c 0,17,18
 496 150.666666667 496 150.666666667 496 117.333333333 c 128,-1,19
 496 84 496 84 519.5 66.5 c 128,-1,20
 543 49 543 49 588 41 c 1,21,-1
 567 4 l 1,22,23
 547 2 547 2 528 2 c 0,24,25
 480 2 480 2 453.5 34.5 c 128,-1,26
 427 67 427 67 427 122 c 0,27,28
 427 156.8 427 156.8 443.5 220.9 c 128,-1,29
 460 285 460 285 478.5 346.5 c 128,-1,30
 497 408 497 408 514.5 446 c 128,-1,31
 532 484 532 484 551.5 506.5 c 128,-1,32
 571 529 571 529 598 553 c 1,33,-1
 504 551 l 1,34,35
 436.801470588 487.338235294 436.801470588 487.338235294 388.400735294 329.169117647 c 128,-1,36
 340 171 340 171 272 86 c 128,-1,37
 204 1 204 1 108 1 c 0,38,39
 71.6 1 71.6 1 38 25 c 1,40,-1
 61 63 l 1,41,42
 69 59 69 59 77.5 56 c 128,-1,43
 86 53 86 53 88 52 c 2,44,-1
 102 50 l 2,45,46
 107 49 107 49 123.5 49 c 128,-1,47
 140 49 140 49 161.5 58.5 c 128,-1,48
 183 68 183 68 203.5 93.5 c 0,49,50
 247.189298044 147.845224396 247.189298044 147.845224396 290 280 c 0,51,52
 331.799761621 409.380214541 331.799761621 409.380214541 351.89988081 445.690107271 c 128,-1,53
 372 482 372 482 392 503.5 c 128,-1,54
 412 525 412 525 443 552 c 1,55,-1
 300 555 l 1,56,57
 81 555 81 555 81 459 c 0,58,59
 81 434 81 434 99.5 418.5 c 128,-1,60
 118 403 118 403 148 403 c 0,61,62
 182.714285714 403 182.714285714 403 207.357142857 414.5 c 128,-1,63
 232 426 232 426 252 437 c 1,64,-1
 267 411 l 1,65,66
 235 377 235 377 196.5 358.5 c 128,-1,67
 158 340 158 340 119 340 c 128,-1,68
 80 340 80 340 52 366 c 128,-1,69
 24 392 24 392 24 430 c 128,-1,70
 24 468 24 468 45 503.5 c 128,-1,71
 66 539 66 539 106 566.5 c 0,72,73
 195.454545455 628 195.454545455 628 341 628 c 0,74,75
 346 628 346 628 373 626 c 128,-1,76
 400 624 400 624 438 621.5 c 0,77,78
 536.8 615 536.8 615 600 615 c 1,0,-1
EndSplineSet
EndChar

StartChar: uni0428
Encoding: 1064 1064 83
Width: 920
Flags: W
LayerCount: 2
Fore
SplineSet
780.5 95 m 128,-1,1
 791 83 791 83 810.394736842 83 c 128,-1,2
 829.789473684 83 829.789473684 83 862 117 c 1,3,-1
 889 87 l 1,4,5
 862.893081761 38.5157232704 862.893081761 38.5157232704 816 18 c 0,6,7
 800 11 800 11 783 11 c 0,8,9
 740 11 740 11 713 52.5 c 128,-1,10
 686 94 686 94 686 169 c 2,11,-1
 686 170 l 2,12,13
 686 171 686 171 686.5 171 c 128,-1,14
 687 171 687 171 687 172 c 1,15,16
 622.90504451 104.700296736 622.90504451 104.700296736 591.952522255 81.350148368 c 0,17,18
 523.88372093 30 523.88372093 30 469.941860465 30 c 0,19,20
 363.350877193 30 363.350877193 30 353 148 c 1,21,22
 273.449257426 64.2623762376 273.449257426 64.2623762376 179.5 25 c 0,23,24
 146 11 146 11 116 11 c 0,25,26
 67 11 67 11 37 46 c 128,-1,27
 7 81 7 81 7 130 c 128,-1,28
 7 179 7 179 23.5 230 c 128,-1,29
 40 281 40 281 67.5 333.5 c 128,-1,30
 95 386 95 386 132 438 c 128,-1,31
 169 490 169 490 210 535.5 c 0,32,33
 297.984036488 633.140820981 297.984036488 633.140820981 376 678 c 1,34,-1
 403 640 l 1,35,36
 285.625264644 549.453775582 285.625264644 549.453775582 197.5 421 c 0,37,38
 99 277.423728814 99 277.423728814 99 172 c 0,39,40
 99 133 99 133 117.5 111.5 c 128,-1,41
 136 90 136 90 162 90 c 128,-1,42
 188 90 188 90 213.5 102 c 128,-1,43
 239 114 239 114 266 131 c 0,44,45
 322.054347826 166.293478261 322.054347826 166.293478261 353 202 c 1,46,47
 362.058562555 352.976042591 362.058562555 352.976042591 445 489 c 0,48,49
 495.905797101 572.485507246 495.905797101 572.485507246 552.5 608.5 c 0,50,51
 580 626 580 626 603 626 c 0,52,53
 648 626 648 626 648 578 c 0,54,55
 648 526.573770492 648 526.573770492 577.5 411 c 0,56,57
 512.851226994 305.018404908 512.851226994 305.018404908 437 227 c 1,58,59
 446.301204819 161.891566265 446.301204819 161.891566265 455.65060241 144.945783133 c 0,60,61
 473.275862069 113 473.275862069 113 515 113 c 0,62,63
 588 113 588 113 653.5 198.5 c 128,-1,64
 719 284 719 284 784 457 c 0,65,66
 811.568093385 531.221789883 811.568093385 531.221789883 822.284046693 547.610894942 c 128,-1,67
 833 564 833 564 840 569 c 128,-1,68
 847 574 847 574 857.5 574 c 128,-1,69
 868 574 868 574 878 566.5 c 128,-1,70
 888 559 888 559 888 537.5 c 128,-1,71
 888 516 888 516 869.5 466 c 128,-1,72
 851 416 851 416 807 348 c 1,73,74
 800 333 800 333 790 317.5 c 128,-1,75
 780 302 780 302 771 285 c 0,76,77
 749 243.444444444 749 243.444444444 749 215.222222222 c 128,-1,78
 749 187 749 187 752.5 165.5 c 128,-1,79
 756 144 756 144 763 125.5 c 128,-1,0
 770 107 770 107 780.5 95 c 128,-1,1
555 532 m 0,80,81
 522.434782609 532 522.434782609 532 482 454.5 c 0,82,83
 443.323076923 380.369230769 443.323076923 380.369230769 431 290 c 1,84,85
 525.395543175 402.094707521 525.395543175 402.094707521 558.5 480.5 c 0,86,87
 568 503 568 503 568 517.5 c 128,-1,88
 568 532 568 532 555 532 c 0,80,81
EndSplineSet
EndChar

StartChar: uni0417
Encoding: 1047 1047 84
Width: 676
Flags: W
LayerCount: 2
Fore
SplineSet
182 520 m 1,0,1
 342.714285714 645 342.714285714 645 435.357142857 645 c 128,-1,2
 528 645 528 645 528 577 c 0,3,4
 528 498.666666667 528 498.666666667 412.5 407 c 0,5,6
 359.302904564 364.780082988 359.302904564 364.780082988 314.651452282 339.390041494 c 128,-1,7
 270 314 270 314 256 308 c 1,8,9
 360.666666667 291.897435897 360.666666667 291.897435897 408 265.5 c 0,10,11
 456.669124424 238.357603687 456.669124424 238.357603687 478 186 c 1,12,-1
 541 186 l 1,13,-1
 541 147 l 1,14,-1
 486 145 l 1,15,16
 474.106412005 75.6207366985 474.106412005 75.6207366985 453.553206003 42.3103683492 c 128,-1,17
 433 9 433 9 412 -13 c 128,-1,18
 391 -35 391 -35 360 -60 c 128,-1,19
 329 -85 329 -85 290 -107 c 128,-1,20
 251 -129 251 -129 210.5 -144.5 c 0,21,22
 122.967741935 -178 122.967741935 -178 64.9838709677 -178 c 128,-1,23
 7 -178 7 -178 -22.5 -154.5 c 128,-1,24
 -52 -131 -52 -131 -52 -97 c 128,-1,25
 -52 -63 -52 -63 -33.5 -33 c 128,-1,26
 -15 -3 -15 -3 17 24.5 c 128,-1,27
 49 52 49 52 91.5 76.5 c 128,-1,28
 134 101 134 101 181.5 120.5 c 0,29,30
 279.102739726 160.568493151 279.102739726 160.568493151 376 175 c 1,31,32
 362.077777778 198.866666667 362.077777778 198.866666667 339.038888889 211.433333333 c 0,33,34
 307.261682243 228.76635514 307.261682243 228.76635514 256.630841121 242.88317757 c 128,-1,35
 206 257 206 257 196.5 265 c 128,-1,36
 187 273 187 273 187 288 c 256,37,38
 187 303 187 303 199 315.5 c 128,-1,39
 211 328 211 328 236 342.5 c 128,-1,40
 261 357 261 357 279 368.5 c 128,-1,41
 297 380 297 380 318 395 c 128,-1,42
 339 410 339 410 361 428 c 128,-1,43
 383 446 383 446 400.5 464 c 0,44,45
 440 504.628571429 440 504.628571429 440 532 c 0,46,47
 440 549 440 549 433 563.5 c 128,-1,48
 426 578 426 578 403 578 c 128,-1,49
 380 578 380 578 354 571 c 128,-1,50
 328 564 328 564 301 552 c 0,51,52
 248.367088608 528.607594937 248.367088608 528.607594937 198 487 c 1,53,-1
 182 520 l 1,0,1
117 -113 m 0,54,55
 198.206896552 -113 198.206896552 -113 288 -51 c 1,56,57
 338 -18 338 -18 366.5 23 c 128,-1,58
 395 64 395 64 395 100 c 0,59,60
 395 115.666666667 395 115.666666667 390 134 c 1,61,62
 238.797720798 115.0997151 238.797720798 115.0997151 137.5 52.5 c 0,63,64
 93 25 93 25 69.5 -5 c 128,-1,65
 46 -35 46 -35 46 -59.5 c 128,-1,66
 46 -84 46 -84 65 -98.5 c 128,-1,67
 84 -113 84 -113 117 -113 c 0,54,55
EndSplineSet
EndChar

StartChar: uni0448
Encoding: 1096 1096 85
Width: 659
Flags: W
LayerCount: 2
Fore
SplineSet
67 2 m 0,0,1
 13 2 13 2 13 71 c 0,2,3
 13 138.102564103 13 138.102564103 61.5 255 c 0,4,5
 81 302 81 302 99.5 337 c 128,-1,6
 118 372 118 372 126 379 c 1,7,-1
 174 358 l 1,8,9
 122.234347048 273.540250447 122.234347048 273.540250447 97 170.5 c 0,10,11
 91 146 91 146 91 133 c 128,-1,12
 91 120 91 120 102 106 c 128,-1,13
 113 92 113 92 126 92 c 256,14,15
 162.857142857 92 162.857142857 92 242.5 203.5 c 0,16,17
 319.915254237 311.881355932 319.915254237 311.881355932 345 384 c 1,18,-1
 405 358 l 1,19,20
 384.260869565 330.347826087 384.260869565 330.347826087 361.130434783 274.173913043 c 0,21,22
 317 167 317 167 317 143.5 c 128,-1,23
 317 120 317 120 331.5 108 c 128,-1,24
 346 96 346 96 361.5 96 c 128,-1,25
 377 96 377 96 405.5 121 c 128,-1,26
 434 146 434 146 465 186.5 c 0,27,28
 534.480192077 277.272509004 534.480192077 277.272509004 574 382 c 1,29,-1
 633 356 l 1,30,31
 625 336 625 336 608.5 305.5 c 128,-1,32
 592 275 592 275 575.5 241.5 c 0,33,34
 535 159.272727273 535 159.272727273 535 119 c 0,35,36
 535 99 535 99 544.5 88 c 128,-1,37
 554 77 554 77 571 77 c 128,-1,38
 588 77 588 77 602 91 c 128,-1,39
 616 105 616 105 628 119 c 1,40,-1
 649 102 l 1,41,42
 632.140594059 60.7881188119 632.140594059 60.7881188119 594 30.5 c 0,43,44
 558.111111111 2 558.111111111 2 529.055555556 2 c 128,-1,45
 500 2 500 2 483 22.5 c 128,-1,46
 466 43 466 43 466 78 c 0,47,48
 466 107.833333333 466 107.833333333 477 161 c 1,49,50
 428 84 428 84 379.5 43.5 c 128,-1,51
 331 3 331 3 293 3 c 0,52,53
 239 3 239 3 239 72 c 0,54,55
 239 92 239 92 243.5 113.5 c 128,-1,56
 248 135 248 135 253 160 c 1,57,58
 204 83 204 83 154.5 42.5 c 128,-1,59
 105 2 105 2 67 2 c 0,0,1
EndSplineSet
EndChar

StartChar: uni043C
Encoding: 1084 1084 86
Width: 717
Flags: W
LayerCount: 2
Fore
SplineSet
663 99 m 1,0,1
 646.140594059 57.7881188119 646.140594059 57.7881188119 608 27.5 c 0,2,3
 572.111111111 -1 572.111111111 -1 542.555555556 -1 c 128,-1,4
 513 -1 513 -1 496.5 19.5 c 128,-1,5
 480 40 480 40 480 75 c 0,6,7
 480 104.833333333 480 104.833333333 491 158 c 1,8,9
 441 80 441 80 387.5 40 c 128,-1,10
 334 0 334 0 299 0 c 0,11,12
 243 0 243 0 243 71 c 0,13,14
 243 89 243 89 247.5 110 c 128,-1,15
 252 131 252 131 257 157 c 1,16,17
 207 79 207 79 159.5 45 c 128,-1,18
 112 11 112 11 77 11 c 0,19,20
 21 11 21 11 21 82 c 1,21,-1
 59 118 l 1,22,23
 59 100 59 100 72.5 87 c 128,-1,24
 86 74 86 74 102.5 74 c 128,-1,25
 119 74 119 74 141 87.5 c 128,-1,26
 163 101 163 101 188.5 127 c 0,27,28
 245.068965517 184.67816092 245.068965517 184.67816092 297 277 c 1,29,30
 328 346 328 346 345.5 379 c 128,-1,31
 363 412 363 412 379 412 c 128,-1,32
 395 412 395 412 404 401 c 128,-1,33
 413 390 413 390 413 370.5 c 128,-1,34
 413 351 413 351 392 318 c 128,-1,35
 371 285 371 285 347 237 c 1,36,37
 321 166.428571429 321 166.428571429 321 142.714285714 c 128,-1,38
 321 119 321 119 334.5 106 c 128,-1,39
 348 93 348 93 366 93 c 0,40,41
 397 93 397 93 444.5 142 c 128,-1,42
 492 191 492 191 546 302 c 0,43,44
 573 358 573 358 586 385 c 128,-1,45
 599 412 599 412 614.5 412 c 128,-1,46
 630 412 630 412 639 401 c 128,-1,47
 648 390 648 390 648 378.5 c 128,-1,48
 648 367 648 367 640.5 348 c 128,-1,49
 633 329 633 329 622 304.5 c 128,-1,50
 611 280 611 280 598.5 252 c 128,-1,51
 586 224 586 224 575 197.5 c 0,52,53
 549 134.863636364 549 134.863636364 549 115.431818182 c 128,-1,54
 549 96 549 96 558.5 85 c 128,-1,55
 568 74 568 74 585 74 c 128,-1,56
 602 74 602 74 615 87.5 c 128,-1,57
 628 101 628 101 642 116 c 1,58,-1
 663 99 l 1,0,1
EndSplineSet
EndChar

StartChar: uni0413
Encoding: 1043 1043 87
Width: 630
Flags: W
LayerCount: 2
Fore
SplineSet
511 624 m 1,0,-1
 561 623 l 1,1,2
 614.875 623 614.875 623 649 636 c 0,3,4
 659 640 659 640 665.5 640 c 0,5,6
 680 640 680 640 680 624.5 c 128,-1,7
 680 609 680 609 668 597 c 128,-1,8
 656 585 656 585 635 575.5 c 0,9,10
 587.473684211 554 587.473684211 554 530 554 c 1,11,12
 462.801470588 490.338235294 462.801470588 490.338235294 414.400735294 332.169117647 c 128,-1,13
 366 174 366 174 298 89 c 128,-1,14
 230 4 230 4 134 4 c 0,15,16
 97.6 4 97.6 4 64 28 c 1,17,-1
 87 66 l 1,18,19
 95 62 95 62 103.5 59 c 128,-1,20
 112 56 112 56 114 55 c 2,21,-1
 128 53 l 2,22,23
 133 52 133 52 149.5 52 c 128,-1,24
 166 52 166 52 187.5 61.5 c 128,-1,25
 209 71 209 71 229.5 96.5 c 0,26,27
 273.189298044 150.845224396 273.189298044 150.845224396 316 283 c 0,28,29
 357.799761621 412.380214541 357.799761621 412.380214541 377.89988081 448.690107271 c 128,-1,30
 398 485 398 485 418 506.5 c 128,-1,31
 438 528 438 528 469 555 c 1,32,-1
 326 558 l 1,33,34
 107 558 107 558 107 462 c 0,35,36
 107 437 107 437 125.5 421.5 c 128,-1,37
 144 406 144 406 174 406 c 0,38,39
 208.714285714 406 208.714285714 406 233.357142857 417.5 c 128,-1,40
 258 429 258 429 278 440 c 1,41,-1
 293 414 l 1,42,43
 261 380 261 380 222.5 361.5 c 128,-1,44
 184 343 184 343 145 343 c 128,-1,45
 106 343 106 343 78 369 c 128,-1,46
 50 395 50 395 50 433 c 128,-1,47
 50 471 50 471 71 506.5 c 128,-1,48
 92 542 92 542 132 569.5 c 0,49,50
 221.454545455 631 221.454545455 631 367 631 c 2,51,-1
 380.5 631 l 2,52,53
 413 631 413 631 511 624 c 1,0,-1
EndSplineSet
EndChar

StartChar: uni042A
Encoding: 1066 1066 88
Width: 818
Flags: W
LayerCount: 2
Fore
SplineSet
86 390 m 1,0,1
 19 437.605263158 19 437.605263158 19 499 c 0,2,3
 19 577.03539823 19 577.03539823 148.5 616 c 0,4,5
 251.529411765 647 251.529411765 647 408 647 c 0,6,7
 442 647 442 647 452 642 c 128,-1,8
 462 637 462 637 462 630 c 128,-1,9
 462 623 462 623 454.5 613 c 128,-1,10
 447 603 447 603 436 589 c 0,11,12
 349.137931034 478.448275862 349.137931034 478.448275862 323 393.5 c 0,13,14
 304 331.75 304 331.75 304 234 c 0,15,16
 304 174 304 174 318 139 c 1,17,18
 413.975493533 259.743362832 413.975493533 259.743362832 570 302 c 0,19,20
 618 315 618 315 664.5 315 c 128,-1,21
 711 315 711 315 738.5 294.5 c 128,-1,22
 766 274 766 274 766 234.5 c 128,-1,23
 766 195 766 195 735 152.5 c 128,-1,24
 704 110 704 110 654 76 c 128,-1,25
 604 42 604 42 541.5 20.5 c 128,-1,26
 479 -1 479 -1 406 -1 c 128,-1,27
 333 -1 333 -1 287 29 c 1,28,29
 285 27 285 27 281 18.5 c 128,-1,30
 277 10 277 10 271 -1 c 0,31,32
 254.2 -31.8 254.2 -31.8 244 -42 c 1,33,-1
 211 -28 l 1,34,35
 217.4375 -2.25 217.4375 -2.25 252 57 c 1,36,37
 229 91 229 91 224 132 c 128,-1,38
 219 173 219 173 219 233 c 128,-1,39
 219 293 219 293 232 352.5 c 128,-1,40
 245 412 245 412 265.5 456 c 0,41,42
 306.555797496 544.119760479 306.555797496 544.119760479 363 568 c 1,43,44
 352 569 352 569 344.5 569 c 2,45,-1
 332 569 l 2,46,47
 245 569 245 569 171.5 544.5 c 0,48,49
 83 515 83 515 83 470 c 0,50,51
 83 456 83 456 86.5 445.5 c 128,-1,52
 90 435 90 435 108 417 c 1,53,-1
 86 390 l 1,0,1
340 103 m 1,54,55
 380.909090909 58 380.909090909 58 447 58 c 0,56,57
 527.906976744 58 527.906976744 58 597.5 105.5 c 0,58,59
 629 127 629 127 648.5 154 c 128,-1,60
 668 181 668 181 668 205.5 c 128,-1,61
 668 230 668 230 651 242.5 c 128,-1,62
 634 255 634 255 604.5 255 c 128,-1,63
 575 255 575 255 539 243 c 128,-1,64
 503 231 503 231 467 210 c 0,65,66
 386.470588235 163.024509804 386.470588235 163.024509804 340 103 c 1,54,55
EndSplineSet
EndChar

StartChar: uni0422
Encoding: 1058 1058 89
Width: 797
Flags: W
LayerCount: 2
Fore
SplineSet
303 556 m 1,0,1
 84 556 84 556 84 460 c 0,2,3
 84 435 84 435 102.5 419.5 c 128,-1,4
 121 404 121 404 151 404 c 0,5,6
 185.714285714 404 185.714285714 404 210.357142857 415.5 c 128,-1,7
 235 427 235 427 255 438 c 1,8,-1
 270 412 l 1,9,10
 238 378 238 378 199.5 359.5 c 128,-1,11
 161 341 161 341 122 341 c 128,-1,12
 83 341 83 341 55 367 c 128,-1,13
 27 393 27 393 27 431 c 128,-1,14
 27 469 27 469 48 504.5 c 128,-1,15
 69 540 69 540 109 567.5 c 0,16,17
 198.454545455 629 198.454545455 629 344 629 c 0,18,19
 349 629 349 629 386.5 627 c 128,-1,20
 424 625 424 625 475.5 622.5 c 0,21,22
 609.4 616 609.4 616 653.7 616 c 2,23,-1
 709 616 l 2,24,25
 747 616 747 616 787 621 c 128,-1,26
 827 626 827 626 835 629 c 0,27,28
 848.333333333 634 848.333333333 634 854.666666667 634 c 0,29,30
 869 634 869 634 869 612 c 128,-1,31
 869 590 869 590 839 571.5 c 128,-1,32
 809 553 809 553 749 553 c 1,33,34
 720 534 720 534 685 474 c 128,-1,35
 650 414 650 414 625.5 325 c 0,36,37
 584 174.244897959 584 174.244897959 584 130.12244898 c 128,-1,38
 584 86 584 86 608 68 c 128,-1,39
 632 50 632 50 677 42 c 1,40,-1
 656 5 l 1,41,42
 636 3 636 3 617 3 c 0,43,44
 569 3 569 3 544 35 c 128,-1,45
 519 67 519 67 519 120 c 128,-1,46
 519 173 519 173 534 237.5 c 128,-1,47
 549 302 549 302 573 363.5 c 0,48,49
 625.872180451 498.984962406 625.872180451 498.984962406 687 554 c 1,50,-1
 625 554 l 1,51,52
 590.5 519.5 590.5 519.5 571.75 481.25 c 0,53,54
 539.446469248 415.350797267 539.446469248 415.350797267 517.223234624 336.675398633 c 128,-1,55
 495 258 495 258 475 194 c 128,-1,56
 455 130 455 130 432 87 c 128,-1,57
 409 44 409 44 379.5 22 c 128,-1,58
 350 0 350 0 308 0 c 1,59,-1
 312 51 l 1,60,61
 335 55 335 55 350 64 c 128,-1,62
 365 73 365 73 378.5 99.5 c 0,63,64
 397.083333333 135.978395062 397.083333333 135.978395062 432.541666667 252.989197531 c 128,-1,65
 468 370 468 370 479 404.5 c 128,-1,66
 490 439 490 439 502.5 463.5 c 0,67,68
 524.036144578 505.710843373 524.036144578 505.710843373 577 553 c 1,69,-1
 507 552 l 1,70,71
 439.801470588 488.338235294 439.801470588 488.338235294 391.400735294 330.169117647 c 128,-1,72
 343 172 343 172 275 87 c 128,-1,73
 207 2 207 2 111 2 c 0,74,75
 74.6 2 74.6 2 41 26 c 1,76,-1
 64 64 l 1,77,78
 93 50 93 50 104.5 50 c 2,79,-1
 120 50 l 2,80,81
 170.725490196 50 170.725490196 50 206.5 94.5 c 0,82,83
 250.189298044 148.845224396 250.189298044 148.845224396 293 281 c 0,84,85
 334.799761621 410.380214541 334.799761621 410.380214541 354.89988081 446.690107271 c 128,-1,86
 375 483 375 483 395 504.5 c 128,-1,87
 415 526 415 526 446 553 c 1,88,-1
 303 556 l 1,0,1
EndSplineSet
EndChar

StartChar: uni042E
Encoding: 1070 1070 90
Width: 1149
Flags: W
LayerCount: 2
Fore
SplineSet
480 334 m 1,0,1
 567.5 339 567.5 339 602 339 c 1,2,3
 668.936372916 466.395032324 668.936372916 466.395032324 763.5 552 c 0,4,5
 868.441860465 647 868.441860465 647 968 647 c 0,6,7
 1027.6744186 647 1027.6744186 647 1057.5 599.5 c 0,8,9
 1083 558.888888889 1083 558.888888889 1083 495 c 0,10,11
 1083 466.666666667 1083 466.666666667 1076 434 c 1,12,13
 1172 470 1172 470 1218 493 c 1,14,-1
 1222 448 l 1,15,16
 1159.22580645 412.129032258 1159.22580645 412.129032258 1056 376 c 1,17,18
 1030 312 1030 312 986 246.5 c 128,-1,19
 942 181 942 181 888.5 128.5 c 0,20,21
 766.723809524 9 766.723809524 9 671 9 c 0,22,23
 616 9 616 9 582 48 c 128,-1,24
 548 87 548 87 548 148.75 c 128,-1,25
 548 210.5 548 210.5 575 278 c 1,26,-1
 461 278 l 1,27,28
 424.636679403 161.254602292 424.636679403 161.254602292 347.5 83 c 0,29,30
 275.542857143 10 275.542857143 10 207 10 c 0,31,32
 167 10 167 10 143 33 c 128,-1,33
 119 56 119 56 119 94.5 c 128,-1,34
 119 133 119 133 144 174.5 c 128,-1,35
 169 216 169 216 209 250 c 128,-1,36
 249 284 249 284 298 306 c 128,-1,37
 347 328 347 328 394 328 c 1,38,39
 426.85 424.496875 426.85 424.496875 448.925 461.7484375 c 128,-1,40
 471 499 471 499 489 519 c 128,-1,41
 507 539 507 539 530 557 c 1,42,43
 519 558 519 558 511.5 558 c 2,44,-1
 499 558 l 2,45,46
 412 558 412 558 338.5 533.5 c 0,47,48
 250 504 250 504 250 459 c 0,49,50
 250 445 250 445 253.5 434.5 c 128,-1,51
 257 424 257 424 275 406 c 1,52,-1
 253 379 l 1,53,54
 186 426.605263158 186 426.605263158 186 488 c 0,55,56
 186 566.03539823 186 566.03539823 315.5 605 c 0,57,58
 418.529411765 636 418.529411765 636 575 636 c 0,59,60
 609 636 609 636 619 631 c 128,-1,61
 629 626 629 626 629 619 c 128,-1,62
 629 612 629 612 621.5 602 c 128,-1,63
 614 592 614 592 603 578 c 0,64,65
 552.298850575 513.471264368 552.298850575 513.471264368 538.649425287 484.735632184 c 128,-1,66
 525 456 525 456 516 433 c 0,67,68
 495.75 381.25 495.75 381.25 480 334 c 1,0,1
202.5 67 m 128,-1,70
 215 51 215 51 232.5 51 c 128,-1,71
 250 51 250 51 267 63 c 128,-1,72
 284 75 284 75 301.5 102 c 0,73,74
 339.502369668 160.632227488 339.502369668 160.632227488 377 275 c 1,75,76
 314.47826087 275 314.47826087 275 253.5 224 c 0,77,78
 190 170.890909091 190 170.890909091 190 108 c 0,79,69
 190 83 190 83 202.5 67 c 128,-1,70
721 424 m 1,80,81
 637 306 637 306 637 194 c 0,82,83
 637 151 637 151 657 123 c 128,-1,84
 677 95 677 95 719.5 95 c 128,-1,85
 762 95 762 95 801.5 123 c 128,-1,86
 841 151 841 151 875 191 c 0,87,88
 938.77852349 266.033557047 938.77852349 266.033557047 975 354 c 1,89,90
 951.25 349 951.25 349 911 349 c 0,91,92
 746 349 746 349 721 424 c 1,80,81
823 415 m 128,-1,94
 854 396 854 396 902.6 396 c 128,-1,95
 951.2 396 951.2 396 989 405 c 1,96,97
 994 435 994 435 994 455.5 c 128,-1,98
 994 476 994 476 990 495 c 128,-1,99
 986 514 986 514 976.5 529 c 0,100,101
 955.6 562 955.6 562 910 562 c 0,102,103
 870.740740741 562 870.740740741 562 832.5 532.5 c 0,104,105
 792 501.257142857 792 501.257142857 792 467.628571429 c 128,-1,93
 792 434 792 434 823 415 c 128,-1,94
EndSplineSet
EndChar

StartChar: uni0411
Encoding: 1041 1041 91
Width: 833
Flags: W
LayerCount: 2
Fore
SplineSet
498 410 m 1,0,1
 573.428571429 454 573.428571429 454 641 454 c 0,2,3
 730.209302326 454 730.209302326 454 761.5 395.5 c 0,4,5
 773 374 773 374 773 341 c 0,6,7
 773 276 773 276 736 213.5 c 128,-1,8
 699 151 699 151 639.5 101.5 c 128,-1,9
 580 52 580 52 505.5 21.5 c 128,-1,10
 431 -9 431 -9 370 -9 c 128,-1,11
 309 -9 309 -9 262 5 c 1,12,13
 221 -27 221 -27 187.5 -27 c 128,-1,14
 154 -27 154 -27 137 -7.5 c 128,-1,15
 120 12 120 12 120 40 c 256,16,17
 120 99.2432432432 120 99.2432432432 198 192 c 0,18,19
 280.412687099 290.00427655 280.412687099 290.00427655 403 362 c 1,20,21
 471.576787808 509.86869871 471.576787808 509.86869871 533 546 c 1,22,-1
 373 566 l 1,23,24
 265 566 265 566 215 538 c 128,-1,25
 165 510 165 510 165 466 c 0,26,27
 165 446 165 446 182.5 431.5 c 128,-1,28
 200 417 200 417 226 417 c 256,29,30
 252 417 252 417 281 429 c 128,-1,31
 310 441 310 441 344 455 c 1,32,-1
 363 429 l 1,33,34
 329 398 329 398 284.5 376 c 128,-1,35
 240 354 240 354 192 354 c 0,36,37
 127.103448276 354 127.103448276 354 102 399.5 c 0,38,39
 94 414 94 414 94 445.5 c 128,-1,40
 94 477 94 477 113 513.5 c 128,-1,41
 132 550 132 550 170.5 577 c 0,42,43
 251.777777778 634 251.777777778 634 404 634 c 0,44,45
 426.428571429 634 426.428571429 634 478.714285714 628 c 0,46,47
 574.571428571 617 574.571428571 617 611.785714286 617 c 128,-1,48
 649 617 649 617 670 620.5 c 128,-1,49
 691 624 691 624 710.5 628 c 0,50,51
 764.125 639 764.125 639 775.0625 639 c 0,52,53
 795 639 795 639 795 619 c 128,-1,54
 795 599 795 599 770.5 584.5 c 128,-1,55
 746 570 746 570 713 561.5 c 0,56,57
 652.823529412 546 652.823529412 546 595 546 c 1,58,59
 564.926829268 525.951219512 564.926829268 525.951219512 551.463414634 508.975609756 c 0,60,61
 525.709923664 476.503816794 525.709923664 476.503816794 498 410 c 1,0,1
199 72 m 0,62,63
 199 54 199 54 214.5 54 c 0,64,65
 250.254545455 54 250.254545455 54 325.5 187.5 c 0,66,67
 341 215 341 215 351.5 237.5 c 128,-1,68
 362 260 362 260 364.5 264.5 c 0,69,70
 375 283.4 375 283.4 375 288 c 1,71,72
 313.215962441 245.523474178 313.215962441 245.523474178 255 174.5 c 0,73,74
 199 106.18 199 106.18 199 72 c 0,62,63
636.5 204 m 128,-1,76
 664 251 664 251 664 285.5 c 128,-1,77
 664 320 664 320 658.5 335 c 128,-1,78
 653 350 653 350 642.5 358 c 0,79,80
 625.4375 371 625.4375 371 590.71875 371 c 0,81,82
 522.176470588 371 522.176470588 371 462 340 c 1,83,84
 445 305 445 305 429 268.5 c 128,-1,85
 413 232 413 232 389.5 182 c 0,86,87
 347.407470289 92.441426146 347.407470289 92.441426146 299 40 c 1,88,89
 330 29 330 29 372 29 c 128,-1,90
 414 29 414 29 468 54 c 128,-1,91
 522 79 522 79 565.5 118 c 128,-1,75
 609 157 609 157 636.5 204 c 128,-1,76
EndSplineSet
EndChar

StartChar: uni0437
Encoding: 1079 1079 92
Width: 422
Flags: W
LayerCount: 2
Fore
SplineSet
263 220 m 1,0,1
 292 202 292 202 313 184 c 128,-1,2
 334 166 334 166 334 139 c 128,-1,3
 334 112 334 112 316 86.5 c 128,-1,4
 298 61 298 61 269.5 41.5 c 0,5,6
 208.846153846 -3.5527136788e-15 208.846153846 -3.5527136788e-15 136 0 c 0,7,8
 79.7142857143 0 79.7142857143 0 37 23 c 0,9,10
 24 30 24 30 18 38 c 1,11,-1
 56 73 l 1,12,13
 68 61 68 61 88.5 52 c 128,-1,14
 109 43 109 43 128 43 c 128,-1,15
 147 43 147 43 171 49.5 c 128,-1,16
 195 56 195 56 213.5 68 c 0,17,18
 256 95.5675675676 256 95.5675675676 256 131 c 0,19,20
 256 153 256 153 241 164.5 c 128,-1,21
 226 176 226 176 208.5 183.5 c 128,-1,22
 191 191 191 191 176 198 c 128,-1,23
 161 205 161 205 161 215.5 c 128,-1,24
 161 226 161 226 172.5 232 c 128,-1,25
 184 238 184 238 200.5 243 c 128,-1,26
 217 248 217 248 237 253.5 c 128,-1,27
 257 259 257 259 273.5 267 c 0,28,29
 313 286.151515152 313 286.151515152 313 314 c 0,30,31
 313 329 313 329 300 340 c 128,-1,32
 287 351 287 351 273 351 c 128,-1,33
 259 351 259 351 243 345.5 c 128,-1,34
 227 340 227 340 207.5 330.5 c 0,35,36
 166.875 310.708333333 166.875 310.708333333 124 276 c 1,37,-1
 110 304 l 1,38,39
 145.660377358 345.603773585 145.660377358 345.603773585 208 379 c 0,40,41
 267.733333333 411 267.733333333 411 311 411 c 0,42,43
 344.105263158 411 344.105263158 411 370 390.5 c 0,44,45
 397 369.125 397 369.125 397 343.5625 c 0,46,47
 397 299.5 397 299.5 355.2 268.15 c 128,-1,48
 313.4 236.8 313.4 236.8 263 220 c 1,0,1
EndSplineSet
EndChar

StartChar: uni0433
Encoding: 1075 1075 93
Width: 344
Flags: W
LayerCount: 2
Fore
SplineSet
283 102 m 1,0,1
 252.111111111 60.8148148148 252.111111111 60.8148148148 201 31 c 0,2,3
 147.857142857 0 147.857142857 0 115.928571429 0 c 128,-1,4
 84 0 84 0 68 14 c 128,-1,5
 52 28 52 28 52 44.5 c 128,-1,6
 52 61 52 61 63.5 79.5 c 128,-1,7
 75 98 75 98 92 118 c 128,-1,8
 109 138 109 138 128.5 158.5 c 128,-1,9
 148 179 148 179 165 199 c 0,10,11
 205 246.058823529 205 246.058823529 205 271 c 0,12,13
 205 284 205 284 195.5 298.5 c 128,-1,14
 186 313 186 313 164 313 c 256,15,16
 142 313 142 313 117.5 299 c 128,-1,17
 93 285 93 285 73 272 c 1,18,-1
 64 307 l 1,19,20
 134.234592445 361.966202783 134.234592445 361.966202783 205 380.5 c 0,21,22
 226 386 226 386 245.5 386 c 128,-1,23
 265 386 265 386 281 373 c 128,-1,24
 297 360 297 360 297 338.5 c 128,-1,25
 297 317 297 317 282.5 290 c 128,-1,26
 268 263 268 263 241.5 224.5 c 128,-1,27
 215 186 215 186 201.5 167.5 c 128,-1,28
 188 149 188 149 180 137 c 0,29,30
 164 113 164 113 164 104.5 c 128,-1,31
 164 96 164 96 172.5 88 c 128,-1,32
 181 80 181 80 194 80 c 0,33,34
 212.538461538 80 212.538461538 80 257 114 c 1,35,-1
 263 118 l 1,36,-1
 283 102 l 1,0,1
EndSplineSet
EndChar

StartChar: uni043B
Encoding: 1083 1083 94
Width: 596
Flags: W
LayerCount: 2
Fore
SplineSet
125 113 m 1,0,1
 125 95 125 95 138.5 82 c 128,-1,2
 152 69 152 69 170 69 c 0,3,4
 215 69 215 69 262.5 125 c 128,-1,5
 310 181 310 181 364 293 c 0,6,7
 391 349 391 349 404 376 c 128,-1,8
 417 403 417 403 432.5 403 c 128,-1,9
 448 403 448 403 457 392 c 128,-1,10
 466 381 466 381 466 369.5 c 128,-1,11
 466 358 466 358 460.5 339 c 128,-1,12
 455 320 455 320 446.5 295.5 c 128,-1,13
 438 271 438 271 428.5 243 c 128,-1,14
 419 215 419 215 410.5 188.5 c 0,15,16
 391 127.705882353 391 127.705882353 391 107.352941176 c 128,-1,17
 391 87 391 87 400.5 76 c 128,-1,18
 410 65 410 65 427 65 c 128,-1,19
 444 65 444 65 457 78.5 c 128,-1,20
 470 92 470 92 484 107 c 1,21,-1
 505 90 l 1,22,23
 488.140594059 48.7881188119 488.140594059 48.7881188119 450 18.5 c 0,24,25
 414.111111111 -10 414.111111111 -10 384.555555556 -10 c 128,-1,26
 355 -10 355 -10 338.5 10.5 c 128,-1,27
 322 31 322 31 322 66 c 0,28,29
 322 95.8333333333 322 95.8333333333 333 149 c 1,30,31
 264.356534091 41.9161931818 264.356534091 41.9161931818 177.5 10.5 c 0,32,33
 154 2 154 2 131 2 c 128,-1,34
 108 2 108 2 91.5 27.5 c 128,-1,35
 75 53 75 53 75 88 c 1,36,-1
 125 113 l 1,0,1
EndSplineSet
EndChar

StartChar: uni043D
Encoding: 1085 1085 95
Width: 507
Flags: W
LayerCount: 2
Fore
SplineSet
337 202 m 1,0,1
 407 363 407 363 433 389 c 1,2,-1
 472 380 l 1,3,4
 471 369 471 369 454 337 c 128,-1,5
 437 305 437 305 415 256.5 c 0,6,7
 356.420068676 127.357878672 356.420068676 127.357878672 345 5 c 1,8,-1
 281 10 l 1,9,10
 281 50.3571428571 281 50.3571428571 292.5 85.6785714286 c 128,-1,11
 304 121 304 121 316 152 c 1,12,13
 309 153 309 153 302.5 153 c 2,14,-1
 289 153 l 2,15,16
 244 153 244 153 179 140 c 1,17,18
 128 26.4838709677 128 26.4838709677 128 -55 c 1,19,-1
 61 -46 l 1,20,21
 61 25.9444444444 61 25.9444444444 114 129 c 1,22,23
 68.0869565217 121.826086957 68.0869565217 121.826086957 12 105 c 1,24,-1
 2 144 l 2,25,26
 2 147.659574468 2 147.659574468 57.5 161.829787234 c 128,-1,27
 113 176 113 176 135 179 c 1,28,29
 215.452830189 363.452830189 215.452830189 363.452830189 244 392 c 1,30,-1
 287 375 l 1,31,32
 281 361 281 361 270 340.5 c 128,-1,33
 259 320 259 320 247 296 c 0,34,35
 221 244 221 244 203 194 c 1,36,37
 225 196 225 196 254.5 199.5 c 128,-1,38
 284 203 284 203 297.5 203 c 2,39,-1
 319.5 203 l 2,40,41
 328 203 328 203 337 202 c 1,0,1
EndSplineSet
EndChar

StartChar: uni0431
Encoding: 1073 1073 96
Width: 391
Flags: W
LayerCount: 2
Fore
SplineSet
186 309 m 1,0,1
 109 260.6 109 260.6 109 173 c 0,2,3
 109 130 109 130 130 103.5 c 128,-1,4
 151 77 151 77 186 77 c 0,5,6
 225 77 225 77 252.5 110 c 128,-1,7
 280 143 280 143 280 190 c 0,8,9
 280 239.230769231 280 239.230769231 261 286 c 1,10,11
 252 305 252 305 229 344 c 128,-1,12
 206 383 206 383 182.5 426 c 0,13,14
 122 536.70212766 122 536.70212766 122 560 c 0,15,16
 122 614 122 614 162.5 643 c 128,-1,17
 203 672 203 672 275 673 c 0,18,19
 345 673 345 673 375 661 c 1,20,-1
 366 619 l 1,21,22
 361 620 361 620 352.5 620.5 c 128,-1,23
 344 621 344 621 334.5 622 c 0,24,25
 315.5 624 315.5 624 302 624 c 0,26,27
 246 624 246 624 224 606 c 128,-1,28
 202 588 202 588 202 551 c 0,29,30
 202 532.105263158 202 532.105263158 290 370 c 0,31,32
 318.827586207 316.896551724 318.827586207 316.896551724 324.413793103 295.948275862 c 128,-1,33
 330 275 330 275 333 260.5 c 0,34,35
 339 231.5 339 231.5 339 200.75 c 128,-1,36
 339 170 339 170 324.5 131 c 128,-1,37
 310 92 310 92 284.5 63 c 0,38,39
 228.224137931 -1 228.224137931 -1 151 -1 c 0,40,41
 92 -1 92 -1 60 32 c 128,-1,42
 28 65 28 65 28 125 c 0,43,44
 28 192.717948718 28 192.717948718 69.5 255.5 c 0,45,46
 110.725884244 317.867363344 110.725884244 317.867363344 173 348 c 1,47,-1
 186 309 l 1,0,1
EndSplineSet
EndChar

StartChar: uni044F
Encoding: 1103 1103 97
Width: 496
Flags: W
LayerCount: 2
Fore
SplineSet
264 -7 m 1,0,1
 294 68 294 68 294 167 c 0,2,3
 294 244.333333333 294 244.333333333 287 271.166666667 c 128,-1,4
 280 298 280 298 267.5 312 c 128,-1,5
 255 326 255 326 235 326 c 128,-1,6
 215 326 215 326 198 320 c 128,-1,7
 181 314 181 314 166.5 303.5 c 0,8,9
 133.888679245 279.88490566 133.888679245 279.88490566 132 244 c 1,10,11
 132 209.705882353 132 209.705882353 171 192.5 c 0,12,13
 193.333333333 182.647058824 193.333333333 182.647058824 226.666666667 173.823529412 c 128,-1,14
 260 165 260 165 271 158.5 c 128,-1,15
 282 152 282 152 282 140 c 128,-1,16
 282 128 282 128 259.5 99.5 c 128,-1,17
 237 71 237 71 205 42.5 c 0,18,19
 125.842105263 -28 125.842105263 -28 82 -28 c 256,20,21
 59 -28 59 -28 47 -4 c 128,-1,22
 35 20 35 20 35 39 c 0,23,24
 35 63 35 63 37 75 c 1,25,-1
 74 95 l 1,26,27
 78 90 78 90 80.5 81.5 c 128,-1,28
 83 73 83 73 86.5 65 c 0,29,30
 100.797979798 32.3189033189 100.797979798 32.3189033189 143.5 55.5 c 0,31,32
 177.837837838 74.1405405405 177.837837838 74.1405405405 199 108 c 0,33,34
 209 124 209 124 212 140 c 1,35,36
 200 138 200 138 188 136 c 128,-1,37
 176 134 176 134 160 134 c 128,-1,38
 144 134 144 134 124.5 136 c 128,-1,39
 105 138 105 138 89 146 c 0,40,41
 54 163.5 54 163.5 54 211 c 0,42,43
 54 240 54 240 69 272.5 c 128,-1,44
 84 305 84 305 110.5 332 c 0,45,46
 172.333333333 395 172.333333333 395 251 395 c 0,47,48
 314.846153846 395 314.846153846 395 331 325 c 0,49,50
 337 299 337 299 337 271 c 0,51,52
 337 234.666666667 337 234.666666667 330 181 c 1,53,54
 374.213114754 284.672131148 374.213114754 284.672131148 377 385 c 1,55,-1
 439 374 l 1,56,57
 439 279.72 439 279.72 368.5 79.5 c 0,58,59
 342.261261261 4.98198198198 342.261261261 4.98198198198 327 -19 c 1,60,-1
 264 -7 l 1,0,1
EndSplineSet
EndChar

StartChar: uni043A
Encoding: 1082 1082 98
Width: 474
Flags: W
LayerCount: 2
Fore
SplineSet
326 69 m 0,0,1
 341 69 341 69 390 111 c 1,2,-1
 415 89 l 1,3,4
 356.19047619 -6 356.19047619 -6 292 -6 c 0,5,6
 254.139534884 -6 254.139534884 -6 215 43.5 c 0,7,8
 178.67896679 89.4354243542 178.67896679 89.4354243542 170 135 c 1,9,10
 154 104 154 104 133 71.5 c 128,-1,11
 112 39 112 39 96 0 c 1,12,-1
 36 21 l 1,13,14
 67.6504854369 214.067961165 67.6504854369 214.067961165 116 343 c 0,15,16
 131 383 131 383 145 406 c 1,17,-1
 186 393 l 1,18,19
 160.615384615 321.076923077 160.615384615 321.076923077 126 148 c 1,20,21
 204.995131086 311.438202247 204.995131086 311.438202247 300.5 360 c 0,22,23
 330 375 330 375 360 383 c 1,24,-1
 360 317 l 1,25,26
 287.255164034 313.171324423 287.255164034 313.171324423 221 220 c 1,27,28
 224.66633565 155.839126117 224.66633565 155.839126117 261.5 109.5 c 0,29,30
 293.692307692 69 293.692307692 69 326 69 c 0,0,1
EndSplineSet
EndChar

StartChar: uni042D
Encoding: 1069 1069 99
Width: 707
Flags: W
LayerCount: 2
Fore
SplineSet
515 359 m 1,0,1
 470 350 470 350 413.142857143 350 c 128,-1,2
 356.285714286 350 356.285714286 350 308 363 c 1,3,-1
 310 419 l 1,4,5
 374 398 374 398 429 398 c 128,-1,6
 484 398 484 398 526 411 c 1,7,8
 527 416 527 416 527 421 c 128,-1,9
 527 426 527 426 527 442.5 c 128,-1,10
 527 459 527 459 518.5 485 c 128,-1,11
 510 511 510 511 494 531 c 0,12,13
 458 576 458 576 400 576 c 0,14,15
 377 576 377 576 352.5 562.5 c 128,-1,16
 328 549 328 549 314 527 c 1,17,-1
 232 527 l 1,18,19
 253.205479452 577.122042341 253.205479452 577.122042341 302 611.5 c 0,20,21
 348.129032258 644 348.129032258 644 393.564516129 644 c 128,-1,22
 439 644 439 644 474.5 624 c 128,-1,23
 510 604 510 604 535 573 c 0,24,25
 587 508.52 587 508.52 587 428 c 1,26,27
 651.272727273 450.954545455 651.272727273 450.954545455 678 471 c 0,28,29
 686 477 686 477 698 483 c 1,30,-1
 703 444 l 1,31,32
 669.987951807 409.337349398 669.987951807 409.337349398 583 375 c 1,33,34
 566.29970799 261.809131935 566.29970799 261.809131935 484 169.5 c 0,35,36
 418.043478261 95.5217391304 418.043478261 95.5217391304 316 44.5 c 0,37,38
 231 2 231 2 159.5 2 c 128,-1,39
 88 2 88 2 53 32 c 128,-1,40
 18 62 18 62 18 114.25 c 128,-1,41
 18 166.5 18 166.5 65 237 c 1,42,-1
 112 237 l 1,43,44
 80 175.133333333 80 175.133333333 80 138 c 0,45,46
 80 76 80 76 167 76 c 0,47,48
 232.6 76 232.6 76 314 120 c 0,49,50
 386.202680067 159.028475712 386.202680067 159.028475712 446.5 227 c 0,51,52
 504.990033223 292.934219269 504.990033223 292.934219269 515 359 c 1,0,1
EndSplineSet
EndChar

StartChar: uni0432
Encoding: 1074 1074 100
Width: 461
Flags: W
LayerCount: 2
Fore
SplineSet
143 0 m 0,0,1
 62 0 62 0 62 116 c 0,2,3
 62 165 62 165 73 213 c 128,-1,4
 84 261 84 261 93 298 c 1,5,-1
 12 268 l 1,6,-1
 11 292 l 1,7,8
 19.8571428571 297.314285714 19.8571428571 297.314285714 49.4285714286 308.157142857 c 128,-1,9
 79 319 79 319 102 328 c 1,10,11
 151.820620285 618.620284996 151.820620285 618.620284996 268 672 c 0,12,13
 305 689 305 689 348 689 c 256,14,15
 391 689 391 689 415.5 662 c 128,-1,16
 440 635 440 635 440 591.5 c 128,-1,17
 440 548 440 548 419 507.5 c 128,-1,18
 398 467 398 467 360 431 c 0,19,20
 281.26459144 356.408560311 281.26459144 356.408560311 150 314 c 1,21,22
 125 214 125 214 125 145.5 c 128,-1,23
 125 77 125 77 166 77 c 0,24,25
 209.714285714 77 209.714285714 77 244 114.5 c 0,26,27
 280 153.875 280 153.875 280 204.4375 c 128,-1,28
 280 255 280 255 242 255 c 0,29,30
 229 255 229 255 219 251 c 128,-1,31
 209 247 209 247 194 242 c 1,32,-1
 182 272 l 1,33,34
 245 317 245 317 278.5 317 c 128,-1,35
 312 317 312 317 332 301.5 c 128,-1,36
 352 286 352 286 352 247.5 c 128,-1,37
 352 209 352 209 333.5 165.5 c 128,-1,38
 315 122 315 122 285.5 85 c 128,-1,39
 256 48 256 48 218.5 24 c 128,-1,40
 181 0 181 0 143 0 c 0,0,1
156 344 m 1,41,42
 242.925081433 383.511400651 242.925081433 383.511400651 300.5 440 c 0,43,44
 357 495.433962264 357 495.433962264 357 542 c 0,45,46
 357 566 357 566 343 581 c 128,-1,47
 329 596 329 596 309.5 596 c 128,-1,48
 290 596 290 596 270 584 c 128,-1,49
 250 572 250 572 229.5 543 c 0,50,51
 183.527084315 477.965143665 183.527084315 477.965143665 156 344 c 1,41,42
EndSplineSet
EndChar

StartChar: uni0416
Encoding: 1046 1046 101
Width: 976
Flags: W
LayerCount: 2
Fore
SplineSet
888 612 m 0,0,1
 971 612 971 612 971 546 c 0,2,3
 971 461.317073171 971 461.317073171 874 414 c 0,4,5
 803.005899705 379.368731563 803.005899705 379.368731563 701 374 c 1,6,-1
 699 404 l 1,7,8
 787 413 787 413 834 441.5 c 128,-1,9
 881 470 881 470 884 514 c 1,10,11
 884 531 884 531 873.5 537.5 c 128,-1,12
 863 544 863 544 841 544 c 0,13,14
 788 544 788 544 742.5 512.5 c 128,-1,15
 697 481 697 481 662 433 c 128,-1,16
 627 385 627 385 606 329 c 128,-1,17
 585 273 585 273 582 224 c 1,18,19
 582 170.027027027 582 170.027027027 619.5 130.5 c 0,20,21
 660.769230769 87 660.769230769 87 725 87 c 1,22,23
 794.349726776 90.7486338798 794.349726776 90.7486338798 845 142.5 c 0,24,25
 888.015267176 186.450381679 888.015267176 186.450381679 910 259 c 1,26,-1
 954 262 l 1,27,28
 949 223 949 223 927 181 c 128,-1,29
 905 139 905 139 869 104.5 c 0,30,31
 786.043478261 25 786.043478261 25 679 25 c 0,32,33
 578.158730159 25 578.158730159 25 536.5 115.5 c 0,34,35
 522 147 522 147 520 192 c 1,36,37
 506 166 506 166 490 138 c 128,-1,38
 474 110 474 110 462 65 c 1,39,40
 454 21 454 21 438.5 6.5 c 128,-1,41
 423 -8 423 -8 410.5 -8 c 128,-1,42
 398 -8 398 -8 389 2 c 128,-1,43
 380 12 380 12 380 23 c 128,-1,44
 380 34 380 34 383 45 c 128,-1,45
 386 56 386 56 390 67.5 c 0,46,47
 398.705882353 92.5294117647 398.705882353 92.5294117647 409 109 c 1,48,49
 432.25 240.75 432.25 240.75 447.625 307.375 c 128,-1,50
 463 374 463 374 466 388 c 1,51,52
 414.491620112 264.379888268 414.491620112 264.379888268 382.245810056 209.189944134 c 128,-1,53
 350 154 350 154 318.5 115 c 128,-1,54
 287 76 287 76 248.5 47.5 c 0,55,56
 165.421052632 -14 165.421052632 -14 55 -14 c 0,57,58
 3 -14 3 -14 3 32 c 0,59,60
 3 75 3 75 29 115 c 128,-1,61
 55 155 55 155 100 187 c 0,62,63
 193.686170213 253.621276596 193.686170213 253.621276596 337 270 c 1,64,65
 361 337.636363636 361 337.636363636 361 411 c 0,66,67
 361 538 361 538 266 538 c 0,68,69
 189.191489362 538 189.191489362 538 135.5 486.5 c 0,70,71
 87.4263877715 440.388576026 87.4263877715 440.388576026 68 367 c 1,72,-1
 23 364 l 1,73,74
 27 402 27 402 49 444 c 128,-1,75
 71 486 71 486 106.5 521 c 0,76,77
 187.642857143 601 187.642857143 601 295 601 c 0,78,79
 349 601 349 601 388.5 561.5 c 0,80,81
 431 519 431 519 431 444 c 0,82,83
 431 416 431 416 424 385 c 1,84,85
 531.326120556 585.803709428 531.326120556 585.803709428 568 630.5 c 0,86,87
 584 650 584 650 592.5 650 c 128,-1,88
 601 650 601 650 613 642 c 128,-1,89
 625 634 625 634 625 616 c 128,-1,90
 625 598 625 598 619.5 587.5 c 128,-1,91
 614 577 614 577 595 548 c 128,-1,92
 576 519 576 519 557 476.5 c 128,-1,93
 538 434 538 434 524.5 390 c 0,94,95
 507.796610169 335.559322034 507.796610169 335.559322034 484 206 c 1,96,97
 559 407 559 407 659 509.5 c 128,-1,98
 759 612 759 612 888 612 c 0,0,1
325 228 m 1,99,100
 234.844827586 210.827586207 234.844827586 210.827586207 168.5 170 c 0,101,102
 95 124.769230769 95 124.769230769 95 76 c 0,103,104
 95 45 95 45 127.5 46 c 128,-1,105
 160 47 160 47 192.5 67 c 128,-1,106
 225 87 225 87 252 115 c 0,107,108
 308.414117647 173.503529412 308.414117647 173.503529412 325 228 c 1,99,100
EndSplineSet
EndChar

StartChar: uni0436
Encoding: 1078 1078 102
Width: 586
Flags: W
LayerCount: 2
Fore
SplineSet
267 263 m 1,0,1
 271 331 271 331 271 403 c 1,2,-1
 336 397 l 1,3,-1
 326 278 l 1,4,5
 391.178571429 324.928571429 391.178571429 324.928571429 434.589285714 350.464285714 c 128,-1,6
 478 376 478 376 488 379 c 1,7,-1
 510 359 l 2,8,9
 520 350 520 350 532 340 c 1,10,11
 479.619047619 324.285714286 479.619047619 324.285714286 357 236 c 0,12,13
 332 218 332 218 328 214 c 1,14,15
 383.857142857 138.714285714 383.857142857 138.714285714 541 28 c 1,16,-1
 512 -8 l 1,17,18
 455.042105263 24.5473684211 455.042105263 24.5473684211 394.021052632 72.7736842105 c 128,-1,19
 333 121 333 121 313 143 c 1,20,21
 298.87012987 32.316017316 298.87012987 32.316017316 285 -17 c 1,22,-1
 224 -25 l 1,23,24
 248.153846154 23.3076923077 248.153846154 23.3076923077 262 171 c 1,25,26
 230.028571429 160.342857143 230.028571429 160.342857143 145 70 c 0,27,28
 107 30 107 30 65 -20 c 1,29,-1
 34 8 l 1,30,31
 70.4838709677 77.4930875576 70.4838709677 77.4930875576 152.5 153 c 0,32,33
 184 182 184 182 207.5 200.5 c 128,-1,34
 231 219 231 219 233 221 c 1,35,36
 157 278 157 278 113 344 c 0,37,38
 97 368 97 368 94 388 c 1,39,-1
 154 395 l 1,40,41
 158.996108949 372.517509728 158.996108949 372.517509728 233.5 296 c 0,42,43
 252 277 252 277 267 263 c 1,0,1
EndSplineSet
EndChar

StartChar: uni041E
Encoding: 1054 1054 103
Width: 720
Flags: W
LayerCount: 2
Fore
SplineSet
708 444 m 1,0,1
 678.218181818 426.981818182 678.218181818 426.981818182 620.109090909 403.490909091 c 128,-1,2
 562 380 562 380 542 373 c 1,3,4
 516 309 516 309 472 243.5 c 128,-1,5
 428 178 428 178 374.5 125.5 c 0,6,7
 252.723809524 6 252.723809524 6 157 6 c 0,8,9
 102 6 102 6 68 45 c 128,-1,10
 34 84 34 84 34 144 c 128,-1,11
 34 204 34 204 61.5 273.5 c 128,-1,12
 89 343 89 343 134 410.5 c 128,-1,13
 179 478 179 478 236.5 535 c 128,-1,14
 294 592 294 592 354 623 c 1,15,16
 386.454545455 644 386.454545455 644 454 644 c 0,17,18
 506.421052632 644 506.421052632 644 538 604 c 0,19,20
 570 563.466666667 570 563.466666667 570 504 c 0,21,22
 570 459.8 570 459.8 562 431 c 1,23,24
 651.491017964 461.682634731 651.491017964 461.682634731 670.245508982 471.841317365 c 128,-1,25
 689 482 689 482 708 492 c 1,26,-1
 708 444 l 1,0,1
481 460 m 0,27,28
 481 559 481 559 396 559 c 0,29,30
 357 559 357 559 311 527 c 1,31,32
 278 492.058823529 278 492.058823529 278 461.529411765 c 128,-1,33
 278 431 278 431 309 412 c 128,-1,34
 340 393 340 393 398 393 c 0,35,36
 437.2 393 437.2 393 475 402 c 1,37,38
 481 432 481 432 481 460 c 0,27,28
207 421 m 1,39,40
 123 303 123 303 123 191 c 0,41,42
 123 148 123 148 143 120 c 128,-1,43
 163 92 163 92 208 92 c 0,44,45
 260.423076923 92 260.423076923 92 324 149 c 1,46,47
 425.667565745 254.817262306 425.667565745 254.817262306 461 351 c 1,48,49
 437.25 346 437.25 346 380.125 346 c 128,-1,50
 323 346 323 346 270.5 364 c 128,-1,51
 218 382 218 382 207 421 c 1,39,40
EndSplineSet
EndChar

StartChar: uni0424
Encoding: 1060 1060 104
Width: 706
Flags: W
LayerCount: 2
Fore
SplineSet
142.5 126.5 m 128,-1,1
 131 157 131 157 131 193.4 c 128,-1,2
 131 229.8 131 229.8 139 257 c 1,3,4
 94 271 94 271 70 304.5 c 128,-1,5
 46 338 46 338 46 386.5 c 128,-1,6
 46 435 46 435 76 482 c 128,-1,7
 106 529 106 529 158 567 c 0,8,9
 270.234273319 649.017353579 270.234273319 649.017353579 432 661 c 0,10,11
 434 662 434 662 446 677.5 c 128,-1,12
 458 693 458 693 473.5 711.5 c 0,13,14
 514.972972973 761 514.972972973 761 532 761 c 256,15,16
 543 761 543 761 555.5 752 c 128,-1,17
 568 743 568 743 568 733.5 c 128,-1,18
 568 724 568 724 562.5 712 c 128,-1,19
 557 700 557 700 550 688.5 c 128,-1,20
 543 677 543 677 538 668 c 2,21,-1
 533 659 l 1,22,23
 543 661 543 661 558 661 c 128,-1,24
 573 661 573 661 595.5 654.5 c 128,-1,25
 618 648 618 648 638.5 631 c 0,26,27
 686 591.609756098 686 591.609756098 686 507 c 0,28,29
 686 401.111111111 686 401.111111111 597.5 270 c 0,30,31
 510.30733945 140.825688073 510.30733945 140.825688073 395 68 c 1,32,33
 389 21 389 21 389 -11 c 128,-1,34
 389 -43 389 -43 399 -85 c 1,35,-1
 349 -92 l 1,36,37
 337 -60.8 337 -60.8 337 9 c 0,38,39
 337 31 337 31 339 43 c 1,40,41
 300 30 300 30 275.5 30 c 128,-1,42
 251 30 251 30 223 41.5 c 128,-1,43
 195 53 195 53 174.5 74.5 c 128,-1,0
 154 96 154 96 142.5 126.5 c 128,-1,1
161 342 m 1,44,45
 179 412 179 412 229 478 c 128,-1,46
 279 544 279 544 351 593 c 1,47,48
 251.190291262 573.805825243 251.190291262 573.805825243 192 519 c 0,49,50
 138 469 138 469 138 406 c 0,51,52
 138 387 138 387 142.5 373.5 c 128,-1,53
 147 360 147 360 161 342 c 1,44,45
221 249 m 1,54,-1
 220 236 l 1,55,56
 220 178 220 178 247 147 c 128,-1,57
 274 116 274 116 324 116 c 0,58,59
 338.5 116 338.5 116 346 121 c 1,60,61
 365.243243243 361.540540541 365.243243243 361.540540541 418 533 c 0,62,63
 430 572 430 572 445 599 c 1,64,65
 394.915254237 599 394.915254237 599 340 531.5 c 0,66,67
 299.923444976 482.23923445 299.923444976 482.23923445 272.961722488 425.619617225 c 0,68,69
 229 333.3 229 333.3 229 311 c 0,70,71
 229 310 229 310 246 310 c 256,72,73
 301.5 310 301.5 310 318 331 c 1,74,-1
 344 304 l 1,75,76
 313.32 273.32 313.32 273.32 255 255.5 c 0,77,78
 237 250 237 250 221 249 c 1,54,-1
403 140 m 1,79,80
 481.565217391 187.139130435 481.565217391 187.139130435 543.5 302 c 0,81,82
 604 414.2 604 414.2 604 494 c 0,83,84
 604 542 604 542 576 569.5 c 128,-1,85
 548 597 548 597 498 597 c 1,86,87
 475 538 475 538 448 422.5 c 128,-1,88
 421 307 421 307 403 140 c 1,79,80
EndSplineSet
EndChar

StartChar: uni0444
Encoding: 1092 1092 105
Width: 427
Flags: W
LayerCount: 2
Fore
SplineSet
315.5 177 m 128,-1,1
 341 220 341 220 341 265.192307692 c 128,-1,2
 341 310.384615385 341 310.384615385 321 335 c 1,3,-1
 373 351 l 1,4,5
 391.138686131 330.270072993 391.138686131 330.270072993 397.5 281.5 c 0,6,7
 399 270 399 270 399 263 c 0,8,9
 399 191.645833333 399 191.645833333 346 126.5 c 0,10,11
 295.743329098 64.7261753494 295.743329098 64.7261753494 225 46 c 1,12,13
 212.7 -40.1 212.7 -40.1 207 -99 c 1,14,-1
 160 -65 l 1,15,16
 162 -51 162 -51 164.5 -24.5 c 128,-1,17
 167 2 167 2 172 39 c 1,18,19
 110.321630804 41.1268403171 110.321630804 41.1268403171 65.5 73 c 0,20,21
 16 108.2 16 108.2 16 156.1 c 128,-1,22
 16 204 16 204 30.5 244 c 128,-1,23
 45 284 45 284 72 317.5 c 0,24,25
 130.876830642 390.550882463 130.876830642 390.550882463 222 408 c 1,26,27
 239.371428571 536.114285714 239.371428571 536.114285714 245 553 c 1,28,-1
 300 536 l 1,29,30
 300 522.894736842 300 522.894736842 284.5 427.447368421 c 0,31,32
 246.4375 193.0625 246.4375 193.0625 236 120 c 1,33,0
 290 134 290 134 315.5 177 c 128,-1,1
97 210 m 0,34,35
 97 180.72 97 180.72 125.5 154.5 c 0,36,37
 149.711711712 132.225225225 149.711711712 132.225225225 182 123 c 1,38,-1
 217 371 l 1,39,40
 164 356 164 356 130.5 312 c 128,-1,41
 97 268 97 268 97 210 c 0,34,35
EndSplineSet
EndChar

StartChar: uni0427
Encoding: 1063 1063 106
Width: 524
Flags: W
LayerCount: 2
Fore
SplineSet
96 262 m 0,0,1
 -1 262 -1 262 -1 367 c 1,2,3
 2.59154929577 435.23943662 2.59154929577 435.23943662 48.5 512.5 c 0,4,5
 82.1785714286 569.178571429 82.1785714286 569.178571429 152 639 c 1,6,-1
 183 602 l 1,7,8
 103.965292842 528.234273319 103.965292842 528.234273319 81.5 444.5 c 0,9,10
 76 424 76 424 75 412 c 1,11,12
 75 370 75 370 97 349 c 128,-1,13
 119 328 119 328 150.5 328 c 128,-1,14
 182 328 182 328 202.5 337.5 c 128,-1,15
 223 347 223 347 246 361 c 1,16,17
 295.806020067 499.350055741 295.806020067 499.350055741 364 575.5 c 0,18,19
 422.656716418 641 422.656716418 641 468 641 c 0,20,21
 485 641 485 641 497 630.5 c 128,-1,22
 509 620 509 620 509 603 c 0,23,24
 504.032085561 518.545454545 504.032085561 518.545454545 417 434 c 0,25,26
 382 400 382 400 346.5 375.5 c 128,-1,27
 311 351 311 351 290 336 c 1,28,29
 252.948275862 261.896551724 252.948275862 261.896551724 236.5 123 c 0,30,31
 232 85 232 85 232 52.5 c 128,-1,32
 232 20 232 20 239 1 c 128,-1,33
 246 -18 246 -18 266 -18 c 128,-1,34
 286 -18 286 -18 322 14 c 1,35,-1
 350 -7 l 1,36,37
 327.037735849 -52.9245283019 327.037735849 -52.9245283019 278.5 -76.5 c 0,38,39
 261 -85 261 -85 242 -85 c 0,40,41
 202 -85 202 -85 186.5 -49.5 c 128,-1,42
 171 -14 171 -14 171 43.5 c 0,43,44
 171 139.6 171 139.6 219 298 c 1,45,46
 151.5 262 151.5 262 96 262 c 0,0,1
435 567 m 0,47,48
 408.666666667 567 408.666666667 567 383 528.5 c 0,49,50
 364.153846154 500.230769231 364.153846154 500.230769231 324 411 c 1,51,52
 384 456 384 456 414.5 496 c 128,-1,53
 445 536 445 536 445 551.5 c 128,-1,54
 445 567 445 567 435 567 c 0,47,48
EndSplineSet
EndChar

StartChar: uni0447
Encoding: 1095 1095 107
Width: 393
Flags: W
LayerCount: 2
Fore
SplineSet
266 121 m 128,-1,1
 266 87 266 87 292.5 87 c 128,-1,2
 319 87 319 87 347 115 c 1,3,-1
 375 94 l 1,4,5
 348.486486486 49.8108108108 348.486486486 49.8108108108 302.5 28.5 c 0,6,7
 282 19 282 19 257 19 c 0,8,9
 199 19 199 19 199 78 c 0,10,11
 199 115.421052632 199 115.421052632 215 159.210526316 c 128,-1,12
 231 203 231 203 241 228 c 2,13,-1
 259 273 l 1,14,15
 234.224719101 238.314606742 234.224719101 238.314606742 197.612359551 213.657303371 c 0,16,17
 126.848484848 166 126.848484848 166 84 166 c 0,18,19
 56 166 56 166 37.5 182.5 c 128,-1,20
 19 199 19 199 19 232 c 128,-1,21
 19 265 19 265 26.5 293.5 c 128,-1,22
 34 322 34 322 46 348 c 0,23,24
 71.9137931034 404.146551724 71.9137931034 404.146551724 101 427 c 1,25,-1
 145 411 l 1,26,27
 140 401 140 401 132 385.5 c 128,-1,28
 124 370 124 370 116.5 352 c 0,29,30
 98 307.6 98 307.6 98 283.3 c 0,31,32
 98 240 98 240 137 240 c 0,33,34
 182.195652174 240 182.195652174 240 237.5 288 c 0,35,36
 297.708278581 340.256241787 297.708278581 340.256241787 322 415 c 1,37,-1
 374 386 l 1,38,39
 371 380 371 380 361.5 363.5 c 128,-1,40
 352 347 352 347 340 323.5 c 128,-1,41
 328 300 328 300 315 272.5 c 128,-1,42
 302 245 302 245 291 217.5 c 0,43,0
 266 155 266 155 266 121 c 128,-1,1
EndSplineSet
EndChar

StartChar: uni0449
Encoding: 1097 1097 108
Width: 833
Flags: W
LayerCount: 2
Fore
SplineSet
90 0 m 0,0,1
 36 0 36 0 36 69 c 0,2,3
 36 136.102564103 36 136.102564103 84.5 253 c 0,4,5
 104 300 104 300 122.5 335 c 128,-1,6
 141 370 141 370 149 377 c 1,7,-1
 197 356 l 1,8,9
 145.234347048 271.540250447 145.234347048 271.540250447 120 168.5 c 0,10,11
 114 144 114 144 114 131 c 128,-1,12
 114 118 114 118 124.5 105 c 128,-1,13
 135 92 135 92 148 92 c 256,14,15
 172.06122449 92 172.06122449 92 221 146.5 c 0,16,17
 287.197132616 220.21953405 287.197132616 220.21953405 344 328.5 c 0,18,19
 360 359 360 359 368 382 c 1,20,-1
 428 356 l 1,21,22
 407.260869565 328.347826087 407.260869565 328.347826087 384.130434783 272.173913043 c 0,23,24
 340 165 340 165 340 141.5 c 128,-1,25
 340 118 340 118 354.5 106 c 128,-1,26
 369 94 369 94 384.5 94 c 128,-1,27
 400 94 400 94 428.5 119 c 128,-1,28
 457 144 457 144 488 184.5 c 0,29,30
 557.480192077 275.272509004 557.480192077 275.272509004 597 380 c 1,31,-1
 656 354 l 1,32,33
 648 334 648 334 631.5 303.5 c 128,-1,34
 615 273 615 273 598.5 239.5 c 0,35,36
 558 157.272727273 558 157.272727273 558 117 c 0,37,38
 558 97 558 97 567.5 86 c 128,-1,39
 577 75 577 75 591 75 c 128,-1,40
 605 75 605 75 620 89.5 c 128,-1,41
 635 104 635 104 652 122 c 128,-1,42
 669 140 669 140 687.5 154.5 c 128,-1,43
 706 169 706 169 725 169 c 128,-1,44
 744 169 744 169 755.5 156.5 c 128,-1,45
 767 144 767 144 767 124 c 0,46,47
 767 70.9523809524 767 70.9523809524 685 -95 c 1,48,-1
 638 -92 l 1,49,50
 638 -87 638 -87 647.5 -67.5 c 128,-1,51
 657 -48 657 -48 668 -23 c 0,52,53
 697 42.9090909091 697 42.9090909091 697 71 c 0,54,55
 697 82 697 82 694 89 c 128,-1,56
 691 96 691 96 680.5 96 c 128,-1,57
 670 96 670 96 659.5 81 c 128,-1,58
 649 66 649 66 634.5 48 c 0,59,60
 595.833333333 4.61852778244e-14 595.833333333 4.61852778244e-14 549 0 c 0,61,62
 523 0 523 0 506 20.5 c 128,-1,63
 489 41 489 41 489 76 c 0,64,65
 489 105.833333333 489 105.833333333 500 159 c 1,66,67
 451 82 451 82 402.5 41.5 c 128,-1,68
 354 1 354 1 316 1 c 0,69,70
 262 1 262 1 262 70 c 0,71,72
 262 90 262 90 266.5 111.5 c 128,-1,73
 271 133 271 133 276 158 c 1,74,75
 227 81 227 81 177.5 40.5 c 128,-1,76
 128 0 128 0 90 0 c 0,0,1
EndSplineSet
EndChar

StartChar: uni0446
Encoding: 1094 1094 109
Width: 570
Flags: W
LayerCount: 2
Fore
SplineSet
552 124 m 0,0,1
 552 70.9523809524 552 70.9523809524 470 -95 c 1,2,-1
 423 -92 l 1,3,4
 423 -87 423 -87 432.5 -67.5 c 128,-1,5
 442 -48 442 -48 453 -23 c 0,6,7
 482 42.9090909091 482 42.9090909091 482 71 c 0,8,9
 482 82 482 82 479 89 c 128,-1,10
 476 96 476 96 465.5 96 c 128,-1,11
 455 96 455 96 444.5 81 c 128,-1,12
 434 66 434 66 419.5 48 c 0,13,14
 380.833333333 -2.48689957516e-14 380.833333333 -2.48689957516e-14 334 0 c 0,15,16
 308 0 308 0 291 20.5 c 128,-1,17
 274 41 274 41 274 76 c 0,18,19
 274 105.5 274 105.5 285 155 c 1,20,21
 235 78 235 78 182 39 c 128,-1,22
 129 0 129 0 94 0 c 0,23,24
 38 0 38 0 38 71 c 0,25,26
 38 156.04 38 156.04 112.5 311 c 0,27,28
 140 368.2 140 368.2 151 377 c 1,29,-1
 199 356 l 1,30,31
 158.740368509 289.484087102 158.740368509 289.484087102 141.370184255 238.242043551 c 0,32,33
 116 163.4 116 163.4 116 141.2 c 128,-1,34
 116 119 116 119 129.5 106 c 128,-1,35
 143 93 143 93 161 93 c 256,36,37
 201.128571429 93 201.128571429 93 256.5 161 c 0,38,39
 319.584269663 238.471910112 319.584269663 238.471910112 382 386 c 1,40,-1
 433 363 l 1,41,42
 424.692913386 336.417322835 424.692913386 336.417322835 396.346456693 268.208661417 c 0,43,44
 344 142.25 344 142.25 344 118.625 c 128,-1,45
 344 95 344 95 353.5 85 c 128,-1,46
 363 75 363 75 376.5 75 c 128,-1,47
 390 75 390 75 405 89.5 c 128,-1,48
 420 104 420 104 437 122 c 128,-1,49
 454 140 454 140 472.5 154.5 c 128,-1,50
 491 169 491 169 510 169 c 128,-1,51
 529 169 529 169 540.5 156.5 c 128,-1,52
 552 144 552 144 552 124 c 0,0,1
EndSplineSet
EndChar

StartChar: uni0429
Encoding: 1065 1065 110
Width: 1051
Flags: W
LayerCount: 2
Fore
SplineSet
946 72 m 0,0,1
 946 99 946 99 927 99 c 256,2,3
 916 99 916 99 905 83 c 128,-1,4
 894 67 894 67 878 47.5 c 0,5,6
 835.743589744 -4 835.743589744 -4 786 -4 c 0,7,8
 753.6 -4 753.6 -4 740.3 6.5 c 0,9,10
 715 26.4736842105 715 26.4736842105 715 60 c 0,11,12
 715 95.8571428571 715 95.8571428571 727 149 c 1,13,14
 672.423728814 91.6949152542 672.423728814 91.6949152542 638.711864407 67.3474576271 c 0,15,16
 570.384615385 18 570.384615385 18 518.192307692 18 c 0,17,18
 413.350877193 18 413.350877193 18 403 136 c 1,19,20
 323.449257426 52.2623762376 323.449257426 52.2623762376 229.5 13 c 0,21,22
 196 -1 196 -1 166 -1 c 0,23,24
 117 -1 117 -1 87 34 c 128,-1,25
 57 69 57 69 57 118 c 128,-1,26
 57 167 57 167 73.5 218 c 128,-1,27
 90 269 90 269 117.5 321.5 c 128,-1,28
 145 374 145 374 182 426 c 128,-1,29
 219 478 219 478 260 523.5 c 0,30,31
 347.984036488 621.140820981 347.984036488 621.140820981 426 666 c 1,32,-1
 453 628 l 1,33,34
 335.625264644 537.453775582 335.625264644 537.453775582 247.5 409 c 0,35,36
 149 265.423728814 149 265.423728814 149 160 c 0,37,38
 149 121 149 121 167.5 99.5 c 128,-1,39
 186 78 186 78 212 78 c 128,-1,40
 238 78 238 78 263.5 90 c 128,-1,41
 289 102 289 102 316 119 c 0,42,43
 372.054347826 154.293478261 372.054347826 154.293478261 403 190 c 1,44,45
 412.058562555 340.976042591 412.058562555 340.976042591 495 477 c 0,46,47
 545.905797101 560.485507246 545.905797101 560.485507246 602.5 596.5 c 0,48,49
 630 614 630 614 653 614 c 0,50,51
 698 614 698 614 698 566 c 0,52,53
 698 514.573770492 698 514.573770492 627.5 399 c 0,54,55
 562.851226994 293.018404908 562.851226994 293.018404908 487 215 c 1,56,57
 496.301204819 149.891566265 496.301204819 149.891566265 505.65060241 132.945783133 c 0,58,59
 523.275862069 101 523.275862069 101 565 101 c 0,60,61
 638 101 638 101 703.5 186.5 c 128,-1,62
 769 272 769 272 834 445 c 0,63,64
 861.568093385 519.221789883 861.568093385 519.221789883 872.284046693 535.610894942 c 128,-1,65
 883 552 883 552 890 557 c 128,-1,66
 897 562 897 562 907.5 562 c 128,-1,67
 918 562 918 562 928 554.5 c 128,-1,68
 938 547 938 547 938 527 c 0,69,70
 938 475.75 938 475.75 877 369 c 1,71,72
 845 295 845 295 820.5 230 c 128,-1,73
 796 165 796 165 796 132.5 c 128,-1,74
 796 100 796 100 806 88.5 c 128,-1,75
 816 77 816 77 831.5 77 c 128,-1,76
 847 77 847 77 863 93 c 128,-1,77
 879 109 879 109 897 127.5 c 128,-1,78
 915 146 915 146 935 162 c 128,-1,79
 955 178 955 178 976 178 c 128,-1,80
 997 178 997 178 1009 164 c 128,-1,81
 1021 150 1021 150 1021 127 c 128,-1,82
 1021 104 1021 104 999.5 34.5 c 128,-1,83
 978 -35 978 -35 934 -126 c 1,84,-1
 883 -123 l 1,85,86
 946 9.3 946 9.3 946 72 c 0,0,1
605 520 m 0,87,88
 572.434782609 520 572.434782609 520 532 442.5 c 0,89,90
 493.323076923 368.369230769 493.323076923 368.369230769 481 278 c 1,91,92
 575.395543175 390.094707521 575.395543175 390.094707521 608.5 468.5 c 0,93,94
 618 491 618 491 618 505.5 c 128,-1,95
 618 520 618 520 605 520 c 0,87,88
EndSplineSet
EndChar

StartChar: uni044A
Encoding: 1098 1098 111
Width: 362
Flags: W
LayerCount: 2
Fore
SplineSet
147 401 m 0,0,1
 213 401 213 401 213 361 c 0,2,3
 213 330.826086957 213 330.826086957 164 203 c 1,4,5
 246.588235294 239 246.588235294 239 281.294117647 239 c 128,-1,6
 316 239 316 239 328.5 227.5 c 128,-1,7
 341 216 341 216 341 188.5 c 128,-1,8
 341 161 341 161 319.5 127 c 128,-1,9
 298 93 298 93 266 65.5 c 128,-1,10
 234 38 234 38 196 20 c 128,-1,11
 158 2 158 2 126 2 c 128,-1,12
 94 2 94 2 77.5 18.5 c 128,-1,13
 61 35 61 35 61 56 c 128,-1,14
 61 77 61 77 73 111 c 128,-1,15
 85 145 85 145 100 181 c 0,16,17
 139 274.6 139 274.6 139 308 c 0,18,19
 139 322 139 322 132.5 334 c 128,-1,20
 126 346 126 346 109 346 c 128,-1,21
 92 346 92 346 79 340 c 128,-1,22
 66 334 66 334 53.5 325.5 c 128,-1,23
 41 317 41 317 29.5 308 c 128,-1,24
 18 299 18 299 9 293 c 1,25,-1
 -5 326 l 1,26,27
 33 360 33 360 75 380.5 c 128,-1,28
 117 401 117 401 147 401 c 0,0,1
275 160 m 1,29,30
 271 188 271 188 227 188 c 0,31,32
 204.2 188 204.2 188 152 170 c 1,33,34
 146 147 146 147 142.5 135.5 c 128,-1,35
 139 124 139 124 139 107 c 128,-1,36
 139 90 139 90 151 76 c 128,-1,37
 163 62 163 62 182 62 c 128,-1,38
 201 62 201 62 228 82 c 128,-1,39
 255 102 255 102 268 134 c 0,40,41
 275 150 275 150 275 160 c 1,29,30
EndSplineSet
EndChar

StartChar: uni044C
Encoding: 1100 1100 112
Width: 292
Flags: W
LayerCount: 2
Fore
SplineSet
99 191 m 1,0,1
 172.914110429 224.877300613 172.914110429 224.877300613 226 228 c 1,2,3
 256 228 256 228 268.5 217 c 128,-1,4
 281 206 281 206 281 179 c 128,-1,5
 281 152 281 152 262.5 119.5 c 128,-1,6
 244 87 244 87 214.5 60.5 c 0,7,8
 147.150943396 2.13162820728e-14 147.150943396 2.13162820728e-14 81 0 c 0,9,10
 18 0 18 0 18 85 c 0,11,12
 18 151 18 151 56 265 c 0,13,14
 86.7777777778 357.333333333 86.7777777778 357.333333333 107 392 c 1,15,-1
 152 377 l 1,16,17
 129.25 312 129.25 312 99 191 c 1,0,1
216 151 m 0,18,19
 212.142857143 178 212.142857143 178 169 178 c 0,20,21
 149 178 149 178 91 160 c 1,22,23
 83 129.333333333 83 129.333333333 83 105.666666667 c 128,-1,24
 83 82 83 82 95 68.5 c 128,-1,25
 107 55 107 55 125.5 55 c 128,-1,26
 144 55 144 55 170.5 74.5 c 128,-1,27
 197 94 197 94 210 125 c 0,28,29
 212 132 212 132 214 139 c 128,-1,30
 216 146 216 146 216 151 c 0,18,19
EndSplineSet
EndChar

StartChar: uni042C
Encoding: 1068 1068 113
Width: 661
Flags: W
LayerCount: 2
Fore
SplineSet
142 57 m 1,0,1
 100 119.086956522 100 119.086956522 100 220 c 0,2,3
 100 285.352941176 100 285.352941176 133.5 376 c 0,4,5
 142 399 142 399 149 420 c 1,6,7
 136 412 136 412 110 387 c 128,-1,8
 84 362 84 362 65 330 c 1,9,-1
 14 359 l 1,10,11
 66.0243902439 434.146341463 66.0243902439 434.146341463 179 533 c 1,12,13
 207 599 207 599 225 628.5 c 128,-1,14
 243 658 243 658 260.5 658 c 128,-1,15
 278 658 278 658 289 645 c 128,-1,16
 300 632 300 632 300 617 c 0,17,18
 300 598.375 300 598.375 281 558 c 1,19,20
 244 487 244 487 219 410.5 c 128,-1,21
 194 334 194 334 194 234 c 0,22,23
 194 174 194 174 208 139 c 1,24,25
 270.2421875 217.3046875 270.2421875 217.3046875 357.5 263.5 c 0,26,27
 445.333333333 310 445.333333333 310 536 310 c 0,28,29
 584 310 584 310 611.5 289.5 c 128,-1,30
 639 269 639 269 639 229.5 c 128,-1,31
 639 190 639 190 610.5 148 c 128,-1,32
 582 106 582 106 535 73 c 0,33,34
 429.606060606 -1 429.606060606 -1 306 -1 c 0,35,36
 223 -1 223 -1 177 29 c 1,37,38
 175 27 175 27 171 18.5 c 128,-1,39
 167 10 167 10 161 -1 c 0,40,41
 144.2 -31.8 144.2 -31.8 134 -42 c 1,42,-1
 101 -28 l 1,43,44
 107.4375 -2.25 107.4375 -2.25 142 57 c 1,0,1
230 103 m 1,45,46
 270.909090909 58 270.909090909 58 337 58 c 0,47,48
 416 58 416 58 479 103 c 0,49,50
 507 123 507 123 524 149.5 c 128,-1,51
 541 176 541 176 541 200.5 c 128,-1,52
 541 225 541 225 524 237.5 c 128,-1,53
 507 250 507 250 477.5 250 c 128,-1,54
 448 250 448 250 415 238.5 c 128,-1,55
 382 227 382 227 349 207 c 0,56,57
 276.497237569 163.05893186 276.497237569 163.05893186 230 103 c 1,45,46
EndSplineSet
EndChar

StartChar: uni044E
Encoding: 1102 1102 114
Width: 569
Flags: W
LayerCount: 2
Fore
SplineSet
18 119 m 1,0,-1
 8 158 l 1,1,2
 8 162.804878049 8 162.804878049 53.5 173.902439024 c 128,-1,3
 99 185 99 185 121 188 c 1,4,5
 201.452830189 372.452830189 201.452830189 372.452830189 230 401 c 1,6,-1
 273 384 l 1,7,8
 265 366 265 366 257.5 350 c 128,-1,9
 250 334 250 334 241 314.5 c 128,-1,10
 232 295 232 295 219.5 268.5 c 128,-1,11
 207 242 207 242 189 203 c 1,12,-1
 256 210 l 1,13,14
 282.643564356 281.732673267 282.643564356 281.732673267 345 328.5 c 0,15,16
 409.666666667 377 409.666666667 377 481 377 c 2,17,-1
 493.5 377 l 2,18,19
 500 377 500 377 505 376 c 1,20,-1
 508 343 l 1,21,22
 427.272727273 343 427.272727273 343 375 297 c 0,23,24
 322 250.36 322 250.36 322 179 c 0,25,26
 322 136 322 136 343 109.5 c 128,-1,27
 364 83 364 83 399 83 c 0,28,29
 438 83 438 83 465.5 116 c 128,-1,30
 493 149 493 149 493 196 c 0,31,32
 493 216 493 216 487.5 237 c 128,-1,33
 482 258 482 258 474 292 c 1,34,-1
 526 308 l 1,35,36
 544.138686131 287.270072993 544.138686131 287.270072993 550.5 238.5 c 0,37,38
 552 227 552 227 552 220 c 0,39,40
 552 130.980392157 552 130.980392157 497.5 69 c 0,41,42
 441.224137931 5 441.224137931 5 364 5 c 0,43,44
 305 5 305 5 273 38 c 128,-1,45
 241 71 241 71 241 131 c 0,46,47
 241 138 241 138 241 145 c 128,-1,48
 241 152 241 152 243 160 c 1,49,50
 223 158 223 158 201.5 154.5 c 128,-1,51
 180 151 180 151 165 149 c 1,52,53
 144 111 144 111 134 69.5 c 128,-1,54
 124 28 124 28 124 2 c 1,55,-1
 64 7 l 1,56,57
 64 62.5714285714 64 62.5714285714 100 138 c 1,58,59
 69.2903225806 134.387096774 69.2903225806 134.387096774 18 119 c 1,0,-1
EndSplineSet
EndChar

StartChar: uni042F
Encoding: 1071 1071 115
Width: 833
Flags: W
LayerCount: 2
Fore
SplineSet
463.5 604 m 128,-1,1
 521 630 521 630 569.166666667 630 c 128,-1,2
 617.333333333 630 617.333333333 630 674 613 c 1,3,4
 708 641 708 641 739 641 c 256,5,6
 770 641 770 641 787 621.5 c 128,-1,7
 804 602 804 602 804 575 c 128,-1,8
 804 548 804 548 787.5 511.5 c 128,-1,9
 771 475 771 475 740.5 435 c 0,10,11
 671.233142353 344.15821948 671.233142353 344.15821948 572 285 c 1,12,13
 557 222 557 222 545.5 176 c 0,14,15
 522 82 522 82 522 60 c 128,-1,16
 522 38 522 38 531 27.5 c 128,-1,17
 540 17 540 17 557 17 c 128,-1,18
 574 17 574 17 586.5 30 c 128,-1,19
 599 43 599 43 613 58 c 1,20,-1
 633 41 l 1,21,22
 614.980392157 -1.04575163399 614.980392157 -1.04575163399 579.5 -29 c 128,-1,23
 543.961538462 -57 543.961538462 -57 515 -57 c 0,24,25
 453 -57 453 -57 453 34 c 0,26,27
 453 95.75 453 95.75 489 210.5 c 0,28,29
 497 236 497 236 501 251 c 1,30,31
 382.868986694 112.324462641 382.868986694 112.324462641 295 42.5 c 0,32,33
 168.528089888 -58 168.528089888 -58 63 -58 c 0,34,35
 41 -58 41 -58 18 -53 c 1,36,-1
 45 15 l 1,37,38
 50 13 50 13 55 13 c 128,-1,39
 60 13 60 13 65 13 c 0,40,41
 124.24137931 13 124.24137931 13 219.5 78 c 0,42,43
 300.541300527 133.298769772 300.541300527 133.298769772 388 223 c 1,44,45
 383 222 383 222 374 222 c 0,46,47
 316 222 316 222 283.5 251 c 128,-1,48
 251 280 251 280 251 333.5 c 128,-1,49
 251 387 251 387 281 440.5 c 128,-1,50
 311 494 311 494 358.5 536 c 128,-1,0
 406 578 406 578 463.5 604 c 128,-1,1
736 551.5 m 0,51,52
 736 569 736 569 719 569 c 0,53,54
 677.2 569 677.2 569 590 351 c 1,55,56
 638.919308357 386.221902017 638.919308357 386.221902017 688 454 c 0,57,58
 736 520.285714286 736 520.285714286 736 551.5 c 0,51,52
517 316 m 1,59,60
 527.663811563 371.451820128 527.663811563 371.451820128 552.331905782 427.725910064 c 0,61,62
 596.771797632 529.104413348 596.771797632 529.104413348 644 582 c 1,63,64
 627 585 627 585 615 588 c 128,-1,65
 603 591 603 591 587 591 c 0,66,67
 540 591 540 591 495.5 567 c 128,-1,68
 451 543 451 543 415.5 507 c 128,-1,69
 380 471 380 471 358.5 428 c 128,-1,70
 337 385 337 385 337 354 c 128,-1,71
 337 323 337 323 355.5 304 c 128,-1,72
 374 285 374 285 401.5 285 c 128,-1,73
 429 285 429 285 455.5 295 c 128,-1,74
 482 305 482 305 517 316 c 1,59,60
EndSplineSet
EndChar

StartChar: uni044D
Encoding: 1101 1101 116
Width: 417
Flags: W
LayerCount: 2
Fore
SplineSet
267 262 m 0,0,1
 267 313 267 313 207 313 c 0,2,3
 181 313 181 313 144.5 300.5 c 128,-1,4
 108 288 108 288 72 253 c 1,5,-1
 78 307 l 1,6,7
 165.823321555 376.74204947 165.823321555 376.74204947 232.5 387 c 0,8,9
 252 390 252 390 272 390 c 0,10,11
 313 390 313 390 335 361.5 c 128,-1,12
 357 333 357 333 357 296 c 128,-1,13
 357 259 357 259 344 222 c 1,14,-1
 365.5 222 l 2,15,16
 376 222 376 222 388 221 c 1,17,-1
 374 165 l 1,18,19
 353 166 353 166 341.5 166 c 2,20,-1
 316 166 l 1,21,22
 253.062937063 71.5944055944 253.062937063 71.5944055944 140.5 13 c 0,23,24
 104 -6 104 -6 66 -18 c 1,25,-1
 72 32 l 1,26,27
 125 55 125 55 168.5 91 c 128,-1,28
 212 127 212 127 237 168 c 1,29,30
 162.1875 171.5625 162.1875 171.5625 125 179 c 1,31,-1
 123 225 l 1,32,33
 139.5 228 139.5 228 173.25 228 c 128,-1,34
 207 228 207 228 259 226 c 1,35,36
 261 237 261 237 264 245.5 c 128,-1,37
 267 254 267 254 267 262 c 0,0,1
EndSplineSet
EndChar

StartChar: uni042B
Encoding: 1067 1067 117
Width: 931
Flags: W
LayerCount: 2
Fore
SplineSet
117 55 m 1,0,1
 75 117.086956522 75 117.086956522 75 218 c 0,2,3
 75 313 75 313 110 418 c 1,4,5
 96 410 96 410 70.5 385 c 128,-1,6
 45 360 45 360 25 328 c 1,7,-1
 -26 357 l 1,8,9
 26.0243902439 432.146341463 26.0243902439 432.146341463 139 531 c 1,10,11
 167 597 167 597 185 626.5 c 128,-1,12
 203 656 203 656 220.5 656 c 128,-1,13
 238 656 238 656 249 643 c 128,-1,14
 260 630 260 630 260 615.5 c 0,15,16
 260 592 260 592 241.5 556 c 128,-1,17
 223 520 223 520 209.5 483.5 c 128,-1,18
 196 447 196 447 187 408 c 0,19,20
 169 330 169 330 169 232 c 0,21,22
 169 172 169 172 183 137 c 1,23,24
 278.975493533 257.743362832 278.975493533 257.743362832 435 300 c 0,25,26
 483 313 483 313 529.5 313 c 128,-1,27
 576 313 576 313 603.5 292.5 c 128,-1,28
 631 272 631 272 631 232.5 c 128,-1,29
 631 193 631 193 600 150.5 c 128,-1,30
 569 108 569 108 519 74 c 128,-1,31
 469 40 469 40 406.5 18.5 c 128,-1,32
 344 -3 344 -3 271 -3 c 128,-1,33
 198 -3 198 -3 152 27 c 1,34,35
 150 25 150 25 146 16.5 c 128,-1,36
 142 8 142 8 136 -3 c 0,37,38
 119.2 -33.8 119.2 -33.8 109 -44 c 1,39,-1
 76 -30 l 1,40,41
 82.4375 -4.25 82.4375 -4.25 117 55 c 1,0,1
674 180 m 0,42,43
 674 413 674 413 719 638 c 1,44,-1
 788 638 l 1,45,46
 785 598 785 598 779 542.5 c 128,-1,47
 773 487 773 487 767 425.5 c 0,48,49
 752 271.75 752 271.75 752 188 c 2,50,-1
 752 168 l 2,51,52
 752 102.846153846 752 102.846153846 777 74 c 0,53,54
 800.118918919 47.3243243243 800.118918919 47.3243243243 860 37 c 1,55,-1
 848 0 l 1,56,57
 828 -2 828 -2 803.5 -2 c 128,-1,58
 779 -2 779 -2 754 11 c 128,-1,59
 729 24 729 24 711.5 48 c 0,60,61
 674 99.4285714286 674 99.4285714286 674 180 c 0,42,43
205 101 m 1,62,63
 245.909090909 56 245.909090909 56 312 56 c 0,64,65
 392.906976744 56 392.906976744 56 462.5 103.5 c 0,66,67
 494 125 494 125 513.5 152 c 128,-1,68
 533 179 533 179 533 203.5 c 128,-1,69
 533 228 533 228 516 240.5 c 128,-1,70
 499 253 499 253 469.5 253 c 128,-1,71
 440 253 440 253 404 241 c 128,-1,72
 368 229 368 229 332 208 c 0,73,74
 251.470588235 161.024509804 251.470588235 161.024509804 205 101 c 1,62,63
EndSplineSet
EndChar

